/* XPM */
static char *collect[] = {
/* columns rows colors chars-per-pixel */
"31 32 188 2 ",
"   c #2D1E1A",
".  c #3F1E1C",
"X  c #27221C",
"o  c #3F231A",
"O  c #2E2925",
"+  c #2A2A26",
"@  c #322925",
"#  c #312C29",
"$  c #352722",
"%  c #3F3E28",
"&  c #45291E",
"*  c #432C24",
"=  c #4A2D27",
"-  c #512520",
";  c #413D23",
":  c #59332A",
">  c #66332A",
",  c #613B34",
"<  c #7B3532",
"1  c #2F451D",
"2  c #30451E",
"3  c #2E4223",
"4  c #304422",
"5  c #3E4B36",
"6  c #4F413F",
"7  c #53523C",
"8  c #4D5030",
"9  c #4F4543",
"0  c #524740",
"q  c #555552",
"w  c #625F5A",
"e  c #735854",
"r  c #72635D",
"t  c #6E7A5C",
"y  c #6F6662",
"u  c #6E6A63",
"i  c #7C6963",
"p  c #736E69",
"a  c #726964",
"s  c #6A7660",
"d  c #7C706B",
"f  c #767C6D",
"g  c #7B7B73",
"h  c #893B38",
"j  c #AA3D3B",
"k  c #A5403C",
"l  c #874E47",
"z  c #984B44",
"x  c #8D574B",
"c  c #9B5446",
"v  c #96554A",
"b  c #885D53",
"n  c #B35A4B",
"m  c #807D79",
"M  c #C64E4D",
"N  c #D2564F",
"B  c #C94F52",
"V  c #D45251",
"C  c #ED4C49",
"Z  c #F44F4D",
"A  c #FA4E4B",
"S  c #EE504A",
"D  c #F4524D",
"F  c #FB504C",
"G  c #F45451",
"H  c #F45A52",
"J  c #F85C52",
"K  c #DD6648",
"L  c #D96B48",
"P  c #C66B5A",
"I  c #D46C5C",
"U  c #DC775F",
"Y  c #D7745E",
"T  c #D9794A",
"R  c #E76A56",
"E  c #F66359",
"W  c #F86D5C",
"Q  c #F76D5D",
"!  c #F5795E",
"~  c #E47C54",
"^  c #DD7561",
"/  c #DD7862",
"(  c #D77860",
")  c #E47762",
"_  c #E37A63",
"`  c #FB7564",
"'  c #F47A63",
"]  c #FA7C65",
"[  c #F87D69",
"{  c #648C40",
"}  c #699446",
"|  c #79816E",
" . c #7F807A",
".. c #7FC748",
"X. c #919E51",
"o. c #86895E",
"O. c #9BA04A",
"+. c #B9B44C",
"@. c #87887B",
"#. c #C39B4C",
"$. c #C19D51",
"%. c #EB915C",
"&. c #ECB85F",
"*. c #DC8463",
"=. c #ED8D61",
"-. c #F58363",
";. c #F98164",
":. c #F48964",
">. c #F68A69",
",. c #F78368",
"<. c #F39A65",
"1. c #F79D6A",
"2. c #F89969",
"3. c #F8956A",
"4. c #F9AF6F",
"5. c #F2AF67",
"6. c #EEB862",
"7. c #F9B66F",
"8. c #FAA770",
"9. c #FAB770",
"0. c #85C24E",
"q. c #9EDD4C",
"w. c #8DD552",
"e. c #A9D24E",
"r. c #A6D24C",
"t. c #AFCF53",
"y. c #92EC4D",
"u. c #9BE74F",
"i. c #94EB56",
"p. c #A2E54F",
"a. c #BBEC58",
"s. c #ECC15F",
"d. c #C3F358",
"f. c #DCCD65",
"g. c #DCDE65",
"h. c #C5C76A",
"j. c #EED562",
"k. c #DFE263",
"l. c #E8E964",
"z. c #ECF566",
"x. c #F1F669",
"c. c #8B8E82",
"v. c #978784",
"b. c #9B948E",
"n. c #9C9894",
"m. c #9F9591",
"M. c #A49693",
"N. c #A59996",
"B. c #A79E9A",
"V. c #A7A899",
"C. c #AEA5A1",
"Z. c #BDAEAA",
"A. c #B8ACA8",
"S. c #AEB6A3",
"D. c #BFB0AE",
"F. c #BCB5B2",
"G. c #C4BDBA",
"H. c #C4B4B1",
"J. c #D0BEBB",
"K. c #C4C3BB",
"L. c #C7CDBE",
"P. c #C8CBBE",
"I. c #CFC2BF",
"U. c #CDC5C1",
"Y. c #CCCDC2",
"T. c #D5CDCA",
"R. c #D5CBC8",
"E. c #CDD1C5",
"W. c #D1D2C4",
"Q. c #D4D3CC",
"!. c #D8D1CF",
"~. c #DBD4D2",
"^. c #DCDCD6",
"/. c #DEDCD9",
"(. c #D7DAD1",
"). c #E1DDDB",
"_. c #E2E1DE",
"`. c #E6E5E2",
"'. c #E9E7E6",
"]. c #EAE9E7",
"[. c #EDECEB",
"{. c #F0EFEE",
"}. c #EFF0EE",
"|. c #F0F0EF",
" X c #F5F5F4",
".X c #F8F7F7",
"XX c #F8F8F7",
"oX c #FFFFFF",
/* pixels */
"oXoXoXoXoXoXoXoXoXoXoXoXoXoXoXXXoXoXoXoXoXoXoXoXoXoXoXoXoXoXoX",
"oXoXoXoXoXoXoXoXoXoXoXoXoXoXoXoXoX.XoXoXoXoXoXoXoXoXoXoXoXoXoX",
"oXoXoXoXoXoXoXoXoXoXoXoXoXoX X X[.[. XoXoXoXoXoXoXoXoXoXoXoXoX",
"oXoXoXoXoXoXoXoXoXoXoXXXoX[.`./.Y.Q.'. XoXoXoXoXoXoXoXoXoXoXoX",
"oXoXoXoXoXoXoXoXXXXX X{.`.^.Q.K.q g /.`.|.XXoXoXoXoXoXoXoXoXoX",
"oXoXoXoXoXoXoXoX X]._.~.E.K.n.p  .n.G.!._.{. XoXoXoXoXoXoXoXoX",
"oXoXoXoXoXoXoX[.`.!.F.C.N.b.w + g v.n.C.G./.'. XoXoXoXoXoXoXoX",
"oXoXoXoXoXoX|.).T.Z.9 # # + X X # # # # d U.~.'. XoXoXoXoXoXoX",
"oXoXoXoXXX|._.!.N.y v c c c , X l c c c b d H.~.'. XoXoXoXoXoX",
"oXoXoXoX|._.T.Z.b , ) ) I ' l & I ` [ [ n = v.H.~.'..XoXoXoXoX",
"oXoXoX X`.~.Z.7 x _ ,.z - V h . M G S ) E B : i J.).'.XXoXoXoX",
"oXoXoX[./.B.i x P [ ' P l h =   > < h ^ Q C k l d G.). XoXoXoX",
"oXoX.X'.T.p * Y ,.>.:.>./ : * = & & : I W Z G j @ B./.[.oXoXoX",
"oXoX.X`.R.a * U 3.7.4.3.[ / ( ) ^ U ) ' W G D j $ M.~.[.oXoXoX",
"oXoX.X_.I.y * ^ 1.9.9.2.-.[ [ ;.[ ] ] W H D A j @ M.T.'.oXoXoX",
"oXoX.X_.U.y * U 2.4.4.1.:.-.] [ ] ] ] D A F A j $ M.R.`.oXoXoX",
"oXoX X`.U.y * ^ ;.:.;.1.8.;.] ] ] ] ` F A A A j $ M.T.[.XXoXoX",
"oXoX.X).U.y * U ! ;.] >.2.;.] ] ] ` E F A A A j $ N.T.].oXoXoX",
"oXoX.X).U.y * *.:.;.[ ] ] ;.] ] ` E G A A A A j $ N.T.].oXoXoX",
"oXoX.X_.Y.u % f.5.-.! ] [ ] [ ` H D S S D Z A j $ N.!.[.oXoXoX",
"oXoXXX`.W.p ; l.j.&.&.<.' ' ! E G I $.#.T Z A j O B.~.[.oXoXoX",
"oXoXoX[.^.@.7 h.l.z.z.s.%.=.~ K K #.p.p.+.L V k 6 A.).|.oXoXoX",
"oXoXoX[._.P.V.7 O.z.z.l.l.a.e.q.e.u.y.y.q.t.8 e A.T.'..XoXoXoX",
"oXoXoX.X]._.I.@.o.X.d.d.a.i.y.y.y.y.y.u...{ t b.T._.[.oXoXoXoX",
"oXoXoXoX.X].^.W.| 5 0.w.w.w...w.w.w.w.w.} 5 V.W._.{.XXoXoXoXoX",
"oXoXoXoXoX X].^.K.V.7 2 4 2 3 1 4 4 3 3 s S.E._.{.XXoXoXoXoXoX",
"oXoXoXoXoXoX X].^.L.c.f | | | | | | | | V.Q._.[.oXoXoXoXoXoXoX",
"oXoXoXoXoXoXoX X[.`.(.E.Y.L.L.L.L.Y.E.Q.^.'.[.oXoXoXoXoXoXoXoX",
"oXoXoXoXoXoXoXoX.X|.[.`._._._._._._._.].[. XoXoXoXoXoXoXoXoXoX",
"oXoXoXoXoXoXoXoXoXoXXXXX.X.X.X X XXXXXXXoXoXoXoXoXoXoXoXoXoXoX",
"oXoXoXoXoXoXoXoXoXoXoXoXoXoXoXoXoXoXoXoXoXoXoXoXoXoXoXoXoXoXoX",
"oXoXoXoXoXoXoXoXoXoXoXoXoXoXoXoXoXoXoXoXoXoXoXoXoXoXoXoXoXoXoX"
};
