/* XPM */
static char * collect_xpm[] = {
"64 64 323 2",
"  	c #4C532B",
". 	c #798366",
"+ 	c #6C7858",
"@ 	c #7B8363",
"# 	c #899071",
"$ 	c #858C69",
"% 	c #7B845C",
"& 	c #929C6A",
"* 	c #A6AD87",
"= 	c #656B54",
"- 	c #6A6C5A",
"; 	c #757D63",
"> 	c #757A63",
", 	c #7B875A",
"' 	c #6C7454",
") 	c #6A6B55",
"! 	c #737B5B",
"~ 	c #707265",
"{ 	c #6D745A",
"] 	c #576243",
"^ 	c #5B643B",
"/ 	c #636B42",
"( 	c #7B8453",
"_ 	c #65733B",
": 	c #546324",
"< 	c #727D44",
"[ 	c #94A263",
"} 	c #55632C",
"| 	c #59652C",
"1 	c #5A6434",
"2 	c #434C16",
"3 	c #434523",
"4 	c #44452A",
"5 	c #737B53",
"6 	c #5A5D3B",
"7 	c #3E4522",
"8 	c #797E4D",
"9 	c #69743C",
"0 	c #454B2A",
"a 	c #42451D",
"b 	c #3B3E1B",
"c 	c #53553B",
"d 	c #5B6342",
"e 	c #555D3A",
"f 	c #72754B",
"g 	c #717544",
"h 	c #444B23",
"i 	c #494D24",
"j 	c #3D441C",
"k 	c #46522A",
"l 	c #556933",
"m 	c #566939",
"n 	c #56633A",
"o 	c #555B42",
"p 	c #4B4D33",
"q 	c #4A5325",
"r 	c #525C2C",
"s 	c #5B6A2C",
"t 	c #66762C",
"u 	c #6B7B35",
"v 	c #66793A",
"w 	c #647334",
"x 	c #5A6A25",
"y 	c #556925",
"z 	c #818E4C",
"A 	c #748244",
"B 	c #434B1D",
"C 	c #6B7443",
"D 	c #5D6A3A",
"E 	c #556333",
"F 	c #3D4A1C",
"G 	c #51552C",
"H 	c #595D2D",
"I 	c #525533",
"J 	c #4E5A32",
"K 	c #455223",
"L 	c #4D5432",
"M 	c #525C25",
"N 	c #56692C",
"O 	c #4E6124",
"P 	c #435315",
"Q 	c #7D8B52",
"R 	c #74834B",
"S 	c #45521C",
"T 	c #4C5A24",
"U 	c #63722E",
"V 	c #6E813C",
"W 	c #76894C",
"X 	c #8E9B62",
"Y 	c #5C6A33",
"Z 	c #737C4B",
"` 	c #4A462A",
" .	c #3E4329",
"..	c #3E4A22",
"+.	c #364A16",
"@.	c #4E612B",
"#.	c #4A4D2A",
"$.	c #5E6751",
"%.	c #39460C",
"&.	c #4B5A1D",
"*.	c #828D54",
"=.	c #596626",
"-.	c #657342",
";.	c #667747",
">.	c #5B5D43",
",.	c #465924",
"'.	c #716F4D",
").	c #454C32",
"!.	c #6C7B3C",
"~.	c #838C5B",
"{.	c #535C33",
"].	c #61663B",
"^.	c #364419",
"/.	c #595E34",
"(.	c #797E53",
"_.	c #4A4D1D",
":.	c #414415",
"<.	c #86935A",
"[.	c #98A56A",
"}.	c #485617",
"|.	c #4A531D",
"1.	c #768944",
"2.	c #8A9654",
"3.	c #8C9B54",
"4.	c #657934",
"5.	c #7E9249",
"6.	c #93A15C",
"7.	c #616D2D",
"8.	c #4A4936",
"9.	c #4A4524",
"0.	c #555552",
"a.	c #7B7B73",
"b.	c #879959",
"c.	c #929D5B",
"d.	c #47582B",
"e.	c #4D5A2B",
"f.	c #626C3B",
"g.	c #6C744B",
"h.	c #798444",
"i.	c #626D34",
"j.	c #3E492A",
"k.	c #89964B",
"l.	c #818945",
"m.	c #6D7B4A",
"n.	c #736E69",
"o.	c #7F807A",
"p.	c #3C4A15",
"q.	c #74823D",
"r.	c #515B1D",
"s.	c #7C8B45",
"t.	c #3C4415",
"u.	c #625F5A",
"v.	c #2A2A26",
"w.	c #6B6D4A",
"x.	c #585632",
"y.	c #727D3D",
"z.	c #5E6A44",
"A.	c #4F4543",
"B.	c #312C29",
"C.	c #27221C",
"D.	c #7C706B",
"E.	c #758251",
"F.	c #626542",
"G.	c #595C25",
"H.	c #6F6662",
"I.	c #96554A",
"J.	c #9B5446",
"K.	c #613B34",
"L.	c #874E47",
"M.	c #885D53",
"N.	c #5E7134",
"O.	c #6E8143",
"P.	c #E47762",
"Q.	c #D46C5C",
"R.	c #F47A63",
"S.	c #45291E",
"T.	c #FB7564",
"U.	c #F87D69",
"V.	c #B35A4B",
"W.	c #4A2D27",
"X.	c #6D7B43",
"Y.	c #919E55",
"Z.	c #8A955C",
"`.	c #53523C",
" +	c #8D574B",
".+	c #E37A63",
"++	c #F78368",
"@+	c #984B44",
"#+	c #512520",
"$+	c #D45251",
"%+	c #893B38",
"&+	c #3F1E1C",
"*+	c #C64E4D",
"=+	c #F45451",
"-+	c #EE504A",
";+	c #F66359",
">+	c #C94F52",
",+	c #59332A",
"'+	c #7C6963",
")+	c #849353",
"!+	c #C66B5A",
"~+	c #2D1E1A",
"{+	c #66332A",
"]+	c #7B3532",
"^+	c #DD7561",
"/+	c #F76D5D",
"(+	c #ED4C49",
"_+	c #A5403C",
":+	c #364314",
"<+	c #432C24",
"[+	c #D7745E",
"}+	c #F68A69",
"|+	c #F48964",
"1+	c #DD7862",
"2+	c #F86D5C",
"3+	c #F44F4D",
"4+	c #AA3D3B",
"5+	c #322925",
"6+	c #4A5636",
"7+	c #49461C",
"8+	c #616534",
"9+	c #726964",
"0+	c #DC775F",
"a+	c #F8956A",
"b+	c #F9B66F",
"c+	c #F9AF6F",
"d+	c #D77860",
"e+	c #F4524D",
"f+	c #352722",
"g+	c #6A6D3C",
"h+	c #515425",
"i+	c #F79D6A",
"j+	c #FAB770",
"k+	c #F89969",
"l+	c #F58363",
"m+	c #F98164",
"n+	c #FA7C65",
"o+	c #F45A52",
"p+	c #FA4E4B",
"q+	c #6A7534",
"r+	c #78863D",
"s+	c #FB504C",
"t+	c #8EA15A",
"u+	c #FAA770",
"v+	c #F5795E",
"w+	c #7A854C",
"x+	c #84934C",
"y+	c #DC8463",
"z+	c #6E6A63",
"A+	c #3F3E28",
"B+	c #DCCD65",
"C+	c #F2AF67",
"D+	c #636B4B",
"E+	c #413D23",
"F+	c #E8E964",
"G+	c #EED562",
"H+	c #ECB85F",
"I+	c #F39A65",
"J+	c #C19D51",
"K+	c #C39B4C",
"L+	c #D9794A",
"M+	c #2E2925",
"N+	c #929D63",
"O+	c #6A6E44",
"P+	c #4E6333",
"Q+	c #87887B",
"R+	c #C5C76A",
"S+	c #ECF566",
"T+	c #ECC15F",
"U+	c #EB915C",
"V+	c #ED8D61",
"W+	c #E47C54",
"X+	c #DD6648",
"Y+	c #A2E54F",
"Z+	c #B9B44C",
"`+	c #D96B48",
" @	c #4F413F",
".@	c #7C8B4C",
"+@	c #9BA04A",
"@@	c #BBEC58",
"#@	c #A9D24E",
"$@	c #9EDD4C",
"%@	c #9BE74F",
"&@	c #92EC4D",
"*@	c #AFCF53",
"=@	c #4D5030",
"-@	c #735854",
";@	c #91975C",
">@	c #5E712D",
",@	c #86895E",
"'@	c #919E51",
")@	c #C3F358",
"!@	c #94EB56",
"~@	c #7FC748",
"{@	c #648C40",
"]@	c #6E7A5C",
"^@	c #53641E",
"/@	c #79816E",
"(@	c #3E4B36",
"_@	c #85C24E",
":@	c #8DD552",
"<@	c #699446",
"[@	c #727A37",
"}@	c #61662D",
"|@	c #30451E",
"1@	c #304422",
"2@	c #2E4223",
"3@	c #2F451D",
"4@	c #6A7660",
"5@	c #767C6D",
"6@	c #8C9B5C",
"7@	c #7E9151",
"8@	c #969766",
"9@	c #504D2B",
"0@	c #5E713A",
"a@	c #6D8137",
"b@	c #4D5439",
"c@	c #858D63",
"d@	c #696E35",
"e@	c #6E814A",
"f@	c #444532",
"g@	c #373E16",
"h@	c #3B3E23",
"  . + @ . # $ % & * # @ @ @ . . = = - - ; @ # # > > = ; # , % ' ' - - ) ) - - > ; ; ! - - ~ { $ $ ' + = { ; ! ! @ ; ; ; { = ~ > ",
"  ] ^ ^ / ( _ : < [ < } | 1 1 1 2 3 4 4 ^ ^ 5 5 ^ 6 7 1 8 9 1   0 0 7 a b 4 4 c d ^ e 0 4 0   f g h i j k l 1 m m n ^ n 0 7 o ] ",
"  p q r } s t u v w x y u z A v : r h B C C D D 1 E F G H | 1 q h h F   r I J k K } | r L   2 M M h k J J N O P : Q R } r r q   ",
"  7 B S T : U V D | O O W X Q R Y 1 2 2 R Z | | 1 r j ` ` r ^    . .7 I l E m ..+.@.| Y E h a #.#.7 4 $.n l O %.&.[ *.=.| r B F ",
"  c   B h K r D -.;.Y } v R D T 1 1 h h K q l l l 1 j 4 4 #.L e >.c e E E q k J J } @.,.B / '.#.i 6 o ).k l } : w W !.: < ~.D {.",
"  ^ {.h 0 #.c ^ _ W w : w A =.S 1 ].  #.h F ^ ^ ^ ^ ^.3 a B i /.].1 D : } B F   m m } F F (.f _.:.1 E j +.N : } Y A !.=.<.[.-.e ",
"  ^ r j 3 4 4 h T N w !.s }.|._.B 3 3 7 h h m {.h i ^ G B 2 _.B 2 r : 1.2._ E n E K B r 1 i q r U 3.z s Y !.4.l E | } : s Y C Z ",
"  n r a 4 ` 4 4 ,.l ;.< | |.i #.4 3 3 h ..h n E j B ].I 3 B #.i a T : 5.6.v 1 l E S 2 l ^ 4 h r 7.6.3.: 1 R v E } } : s =.=.C Z ",
"  n l l I i h a ..k {.^ {.0 0 4 8.  1 ^ l 1 j h e 1 ^ I 4 4 9.I ^ 0.0.a.a.9 Z D 1 *.b.D ^ 7  .e s A < 1 1 i i F F : w 6.c.c.r j ",
"  e E m J d.T q   i L 6 L 0 #.#.i i l l T e.` 9.f.D } G 9.0 3 /.f.0.0.a.a.f.g./.r A h.N l e.q Y i.!.9 r r 0 0 j.k N U k.l.l.G 9.",
"  7 ,.l E l E E   j 4   0 h {.^ h 7 n E F F #.#.(.m.} q a 3 a n.n.o.o.h B h h a 2 M =.: l m.8 Z 9 | } p.B 7 #.n n } s q.r.|.9.4 ",
"  f.i.} :   I ^ I 3 0 0 #.      q   d n     4 ` ].| } | E I   n.n.o.o.0 h {.^ #.B i.w N @.Y f.1 1         h k e.e.l D 9 q a 9.` ",
"  X s.=.T t.  ^   3 3 3   ^   B 1 E ^ l l E 3 a i S } _ R u.u.v.v.a.a.).` w.(.x._.9 !.N } ,.B a h h h n n E J p.h l {.{.i 3 3 9.",
"  ( q.x 7.Z /         i 0 i   q -.9 h.1.: | G I 4 h ,.=.f.u.u.v.v.a.a.8.9.I I G i 9 y.Y l K i G L {.J ..k e.E T e.;.z.L #.0 L I ",
"  8 u y A & m.F   ^ e.h h j I ^ 8 y.3.3.y A.A.B.B.B.B.v.v.C.C.C.C.B.B.B.B.B.B.B.B.D.D.D E K q /.6 ^ J ^.F E l Y Y E./ ^.0 #.6 F.",
"  / Y N _ ( 9 e.} E E J   ..q   /.G.h.1.: A.A.B.B.B.B.v.v.C.C.C.C.B.B.B.B.B.B.B.B.D.D.G   h i e E } Y R ;.l l } Y Y f.l e I     ",
"  n l l _ R w } N l l E   a h i i _.< H.H.I.I.J.J.J.J.J.J.K.K.C.C.L.L.J.J.J.J.J.J.M.M.D.D.3 ..{.} : s [ b.} | } N } w R f.1 i j ",
"  #.,.d.e.Y N.v N.@.D ;.D e i h 3 9.F.H.H.I.I.J.J.J.J.J.J.K.K.C.C.L.L.J.J.J.J.J.J.M.M.D.D.I n -.N.x x w 4.Y f.*.A N : r.| 1 E e ",
"  7 h q e.| _ O.w O _ R 9 ^   3 9.M.M.K.K.P.P.P.P.Q.Q.R.R.L.L.S.S.Q.Q.T.T.U.U.U.U.V.V.W.W.6 E C X.} | } N } v Y.s.| r |.E 1 E E ",
"  >.  h h K r N N.v w 1 r   #.` 3 M.M.K.K.P.P.P.P.Q.Q.R.R.L.L.S.S.Q.Q.T.T.U.U.U.U.V.V.W.W.^ e.1 E K r C _ N N.q.i.K q h G } Q Z.",
"  d G h h h e.} _ R 9 E r q #.`.`. + +.+.+++++@+@+#+#+$+$+%+%+&+&+*+*+=+=+-+-+P.P.;+;+>+>+,+,+'+'+h   ( ;.} N.h.9 i h B | s )+X ",
"  0   e I 3 i K e.l e.K h h h `.`. + +.+.+++++@+@+#+#+$+$+%+%+&+&+*+*+=+=+-+-+P.P.;+;+>+>+,+,+'+'+j ..e.,.Y } _.h 7   ^ < X.i.Y ",
"  7 q 1 I 7 4 i e.^ I   h '+'+ + +!+!+U.U.R.R.!+!+L.L.%+%+W.W.~+~+{+{+]+]+%+%+^+^+/+/+(+(+_+_+L.L.D.D.k K E r B h j   ^ X.R D E ",
"  n l l I 0 4 3 h   h 7 h '+'+ + +!+!+U.U.R.R.!+!+L.L.%+%+W.W.~+~+{+{+]+]+%+%+^+^+/+/+(+(+_+_+L.L.D.D.F K E / < i.:+q l l l k j.",
"  ^ } T   I #.3 h #.4 n.n.<+<+[+[+++++}+}+|+|+}+}+1+1+,+,+<+<+W.W.S.S.S.S.,+,+Q.Q.2+2+3+3+=+=+4+4+5+5+k   r 1 i.| B ,.T E l 6+6+",
"  1 T :+,.^   a 7+i i n.n.<+<+[+[+++++}+}+|+|+}+}+1+1+,+,+<+<+W.W.S.S.S.S.,+,+Q.Q.2+2+3+3+=+=+4+4+5+5+^ {.q i S ,.D T p.,.| n ] ",
"  Z i.&.} -.E q r 8+G 9+9+<+<+0+0+a+a+b+b+c+c+a+a+U.U.1+1+d+d+P.P.^+^+0+0+P.P.R.R.2+2+=+=+e+e+4+4+f+f+E E B i {.J {.e.&.4.V Y m ",
"  & Q } f.E.-.Y g+( 1 9+9+<+<+0+0+a+a+b+b+c+c+a+a+U.U.1+1+d+d+P.P.^+^+0+0+P.P.R.R.2+2+=+=+e+e+4+4+f+f+E {.a i ^ E B T =.)+[ _ l ",
"  , y.N Y C E q h+/.r H.H.<+<+^+^+i+i+j+j+j+j+k+k+l+l+U.U.U.U.m+m+U.U.n+n+n+n+2+2+o+o+e+e+p+p+4+4+5+5+{.  3 0 | Y s q+h.y.!.D } ",
"  Z u : =.Y d.F :.a   H.H.<+<+^+^+i+i+j+j+j+j+k+k+l+l+U.U.U.U.m+m+U.U.n+n+n+n+2+2+o+o+e+e+p+p+4+4+5+5+K h 3 #.} w !.z c.q+M 1 } ",
"  < r+s.!.l E I p 7   H.H.<+<+0+0+k+k+c+c+c+c+i+i+|+|+l+l+n+n+U.U.n+n+n+n+n+n+e+e+p+p+s+s+p+p+4+4+f+f+r e.3 #.} N.!.v 4.s =.| l ",
"  A r+t+A } E ^ I j r H.H.<+<+0+0+k+k+c+c+c+c+i+i+|+|+l+l+n+n+U.U.n+n+n+n+n+n+e+e+p+p+s+s+p+p+4+4+f+f+1 E a #.Y w W 4.: : | l l ",
"  D U r+4.Y e.F r r } H.H.<+<+^+^+m+m+|+|+m+m+i+i+u+u+m+m+n+n+n+n+n+n+n+n+T.T.s+s+p+p+p+p+p+p+4+4+f+f+M ,.1 ^ m.;.N Y } ;.Z Y E ",
"  l w A _ l q p.T | =.H.H.<+<+^+^+m+m+|+|+m+m+i+i+u+u+m+m+n+n+n+n+n+n+n+n+T.T.s+s+p+p+p+p+p+p+4+4+f+f+p.B Y ].8 C } l | ;.Z D l ",
"  ^ } T r l D ;.A )+u H.H.<+<+0+0+v+v+m+m+n+n+}+}+k+k+m+m+n+n+n+n+n+n+T.T.;+;+s+s+p+p+p+p+p+p+4+4+f+f+)+w+1 r G q B h B E /   h ",
"  d J k e.l _ A x+6.!.H.H.<+<+0+0+v+v+m+m+n+n+}+}+k+k+m+m+n+n+n+n+n+n+T.T.;+;+s+s+p+p+p+p+p+p+4+4+f+f+[ <.1 r i h a h ..{.^ 4 3 ",
"  4 0 0 0 K T : N s | H.H.<+<+y+y+|+|+m+m+U.U.n+n+n+n+m+m+n+n+n+n+T.T.;+;+=+=+p+p+p+p+p+p+p+p+4+4+f+f+< < 2 2 a   6 I i h h 4 9.",
"  7 3 7 3 #.r D } Y | H.H.<+<+y+y+|+|+m+m+U.U.n+n+n+n+m+m+n+n+n+n+T.T.;+;+=+=+p+p+p+p+p+p+p+p+4+4+f+f+( g.i j 7 0 / r K 2 :+7 b ",
"  >.I 3 0 9.4 K T | _ z+z+A+A+B+B+C+C+l+l+v+v+n+n+U.U.n+n+U.U.T.T.o+o+e+e+-+-+-+-+e+e+3+3+p+p+4+4+f+f+i   b #.] J t.,.| < 8 D+^ ",
"  6 c 4 4 3 4 K T Y f.z+z+A+A+B+B+C+C+l+l+v+v+n+n+U.U.n+n+U.U.T.T.o+o+e+e+-+-+-+-+e+e+3+3+p+p+4+4+f+f+h i h   n J F |.8+C 8 / 6 ",
"  4   ^ I 7 4 q 1 Z f.n.n.E+E+F+F+G+G+H+H+H+H+I+I+R.R.R.R.v+v+;+;+=+=+Q.Q.J+J+K+K+L+L+3+3+p+p+4+4+M+M+  K m {.F B 1 _ N+T t.n ^ ",
"  #.      3 0 h H O+/.n.n.E+E+F+F+G+G+H+H+H+H+I+I+R.R.R.R.v+v+;+;+=+=+Q.Q.J+J+K+K+L+L+3+3+p+p+4+4+M+M+K h E P+,.T } 8+9 _.B     ",
"  6 M :+h #.0 3 h+1 G Q+Q+`.`.R+R+F+F+S+S+S+S+T+T+U+U+V+V+W+W+X+X+X+X+K+K+Y+Y+Y+Y+Z+Z+`+`+$+$+_+_+ @ @F ..l E | | : | |.2 2 h 7 ",
"  E.9 M q e   h q r #.Q+Q+`.`.R+R+F+F+S+S+S+S+T+T+U+U+V+V+W+W+X+X+X+X+K+K+Y+Y+Y+Y+Z+Z+`+`+$+$+_+_+ @ @  e.m Y .@v s s < H G   0 ",
"  & .@=.| D   j h   h j h h G `.`.+@+@S+S+S+S+F+F+F+F+@@@@#@#@$@$@#@#@%@%@&@&@&@&@$@$@*@*@=@=@-@-@7 h ^ ^ Y v t+.@=.q+;@f.1   h ",
"  C t q+s K   e   h h h L {._ `.`.+@+@S+S+S+S+F+F+F+F+@@@@#@#@$@$@#@#@%@%@&@&@&@&@$@$@*@*@=@=@-@-@#.0     | Y >@v w w G.K B L   ",
"  } w A Y t.k ^ L 3 4 h {.E _ Q+Q+,@,@'@'@)@)@)@)@@@@@!@!@&@&@&@&@&@&@&@&@&@&@%@%@~@~@{@{@]@]@K i 0   F B l N ^@s A 9 B B j n d ",
"  X.w Y Y r E ^ L 3 h B e.E @.Q+Q+,@,@'@'@)@)@)@)@@@@@!@!@&@&@&@&@&@&@&@&@&@&@%@%@~@~@{@{@]@]@h i {.{.E E X.f.}.&.f.1 h i j 6 d ",
"  R q+y =.} | }   a a F   m K j i /@/@(@(@_@_@:@:@:@:@:@:@~@~@:@:@:@:@:@:@:@:@:@:@<@<@(@(@E {.h i ^ n D l ( C P &.^ {.3 h j e d ",
"  M x [@h.x+x+)+X.r h+i   k e.r :./@/@(@(@_@_@:@:@:@:@:@:@~@~@:@:@:@:@:@:@:@:@:@:@<@<@(@(@#.` 3 4     h K l D | r i 0 #.{.1   h ",
"  _.: [@s.6.c.3.A }@M i 0 K e.1 2 a _.i 8+`.`.|@|@1@1@|@|@2@2@3@3@1@1@1@1@2@2@2@2@4@4@^ ^ 9.3 9.4 i i F h } l 1 {.3 3   /.l h j ",
"  3 2 2 7.y.q+^@4.A 8+` G ^ D 1 < ( a a B `.`.|@|@1@1@|@|@2@2@3@3@1@1@1@1@2@2@2@2@4@4@4 ` 9.9.  4 a h 8 C K B a 3 0 3 h 1 1 Z (.",
"  3 B q 1 < 9 =.w < 1 #.c n l 1 < Z h B i q ^ 5@5@/@/@/@/@/@/@/@/@/@/@/@/@/@/@/@/@q i 3 0 3 3 h i B h Z C K h a 3 3 7 B } | C 5 ",
"  0 h   q l T S S q 7+a B F e.l l l F F 1 ^ i 5@5@/@/@/@/@/@/@/@/@/@/@/@/@/@/@/@/@q B h 0 e E E l 1 r 2 B 1 {.a h #.G 1 Q 6@Q Z ",
"    q h   ^ e.S K i 7+7+B F @.l E l B h 1 ^ i i a ` ].1 E E m E E   h ` i q q g+Z q B q   E l l | Y D 2 K /.{.a i i   Y 7@6@W m.",
"  E E E   F } Z ^ 9.f 8@g } l P+l l E E K i a 3 #.9@^ e.F d.m k F   ^ #.3 O+f G 2 r 1 E ^ p.+.} Y X b.1 r a i 1 r p.K N y y N | ",
"  l }   J   } | {.,.w O.0@N N.w a@q.Y ^ 0 ).6+L h #.d E e.g+8 Y K I I b@I {.1 h+h+C Z r q T r i._ A < i.f.a ` b@L e.e.D n ] c L ",
"  } ,.:+k z.q B   D Y } @.l _ A Y.6.s } ..7 D l t.t.l | M A [.y.| h+:+{./ K t.r 1 *.c@B F 1 1 < X.: Y R Z j 3 7 B } U .@Y E 0 ^.",
"  R 4.T L p 0 4   {.T T } Y D w k.3.}.T j i } } Y Y | O M w v w =.M M q G T &.Y v y.!.M T < w+d@Y T r / ^ ` 4 t.|.w+y.: ,.K 0 j ",
"  N+s.N e.j 7 0   l T S T l } s k.N+2 j     l Y R e@E } } } : _ 9 f.l   S M Y 9 A N N : N Z.Z.w : P &.E /.I ` j r N+*.T h h 0 4 ",
"  < 4.y :   h h q 1 M ,.e.,.r s t 9 4 3 b@L J E D D k m -.D E E K e.J J e k K l l ,.q e.{.f.7.q+w T T r   3 9.4 0 f C r 3  .f@f@",
"  C x ^@x : B t.h | | } S 2 Y y.r.r.a 7 c {.{.r ,.e.K l -._ } S p.,.J E d ).7 0   h h L L i P y.v : T r r g@b 4 #.1 1 r 7 7 4 4 ",
"  b@e.T 4.<.8+H #.h r {.e.n {.r 9 9 |.q B K | N : T _ | S T S T &.} N &.S r S M s w _ Y } ,.G r e.e.E i   6 I b B =.s !.| {.  i ",
"  f@b@  ;.& / e p 7 L e ] ] b@  (.( e.e 7 7 E } l I % ].F h K e e.l l K p.r M s =.!.< Y } e.6   0 ] d 7  .>.c h@3 l f.R D ^ L #."};
