/* XPM */
static char * empty_xpm[] = {
"64 64 199 2",
"  	c #4C532B",
". 	c #798366",
"+ 	c #6C7858",
"@ 	c #7B8363",
"# 	c #899071",
"$ 	c #858C69",
"% 	c #7B845C",
"& 	c #929C6A",
"* 	c #A6AD87",
"= 	c #656B54",
"- 	c #6A6C5A",
"; 	c #757D63",
"> 	c #757A63",
", 	c #7B875A",
"' 	c #6C7454",
") 	c #6A6B55",
"! 	c #737B5B",
"~ 	c #707265",
"{ 	c #6D745A",
"] 	c #576243",
"^ 	c #5B643B",
"/ 	c #636B42",
"( 	c #7B8453",
"_ 	c #65733B",
": 	c #546324",
"< 	c #727D44",
"[ 	c #94A263",
"} 	c #55632C",
"| 	c #59652C",
"1 	c #5A6434",
"2 	c #434C16",
"3 	c #434523",
"4 	c #44452A",
"5 	c #737B53",
"6 	c #5A5D3B",
"7 	c #3E4522",
"8 	c #797E4D",
"9 	c #69743C",
"0 	c #454B2A",
"a 	c #42451D",
"b 	c #3B3E1B",
"c 	c #53553B",
"d 	c #5B6342",
"e 	c #555D3A",
"f 	c #72754B",
"g 	c #717544",
"h 	c #444B23",
"i 	c #494D24",
"j 	c #3D441C",
"k 	c #46522A",
"l 	c #556933",
"m 	c #566939",
"n 	c #56633A",
"o 	c #555B42",
"p 	c #4B4D33",
"q 	c #4A5325",
"r 	c #525C2C",
"s 	c #5B6A2C",
"t 	c #66762C",
"u 	c #6B7B35",
"v 	c #66793A",
"w 	c #647334",
"x 	c #5A6A25",
"y 	c #556925",
"z 	c #818E4C",
"A 	c #748244",
"B 	c #434B1D",
"C 	c #6B7443",
"D 	c #5D6A3A",
"E 	c #556333",
"F 	c #3D4A1C",
"G 	c #51552C",
"H 	c #595D2D",
"I 	c #525533",
"J 	c #4E5A32",
"K 	c #455223",
"L 	c #4D5432",
"M 	c #525C25",
"N 	c #56692C",
"O 	c #4E6124",
"P 	c #435315",
"Q 	c #7D8B52",
"R 	c #74834B",
"S 	c #45521C",
"T 	c #4C5A24",
"U 	c #63722E",
"V 	c #6E813C",
"W 	c #76894C",
"X 	c #8E9B62",
"Y 	c #5C6A33",
"Z 	c #737C4B",
"` 	c #4A462A",
" .	c #3E4329",
"..	c #3E4A22",
"+.	c #364A16",
"@.	c #4E612B",
"#.	c #4A4D2A",
"$.	c #5E6751",
"%.	c #39460C",
"&.	c #4B5A1D",
"*.	c #828D54",
"=.	c #596626",
"-.	c #657342",
";.	c #667747",
">.	c #5B5D43",
",.	c #465924",
"'.	c #716F4D",
").	c #454C32",
"!.	c #6C7B3C",
"~.	c #838C5B",
"{.	c #535C33",
"].	c #61663B",
"^.	c #364419",
"/.	c #595E34",
"(.	c #797E53",
"_.	c #4A4D1D",
":.	c #414415",
"<.	c #86935A",
"[.	c #98A56A",
"}.	c #485617",
"|.	c #4A531D",
"1.	c #768944",
"2.	c #8A9654",
"3.	c #8C9B54",
"4.	c #657934",
"5.	c #7E9249",
"6.	c #93A15C",
"7.	c #616D2D",
"8.	c #4A4936",
"9.	c #4A4524",
"0.	c #7A854C",
"a.	c #879959",
"b.	c #929D5B",
"c.	c #47582B",
"d.	c #4D5A2B",
"e.	c #626C3B",
"f.	c #626D34",
"g.	c #6C744B",
"h.	c #798444",
"i.	c #3E492A",
"j.	c #89964B",
"k.	c #818945",
"l.	c #6D7B4A",
"m.	c #3C4A15",
"n.	c #74823D",
"o.	c #515B1D",
"p.	c #7C8B45",
"q.	c #3C4415",
"r.	c #6B6D4A",
"s.	c #585632",
"t.	c #727D3D",
"u.	c #5E6A44",
"v.	c #758251",
"w.	c #626542",
"x.	c #595C25",
"y.	c #6A6D3C",
"z.	c #4D5439",
"A.	c #49461C",
"B.	c #515425",
"C.	c #433E1D",
"D.	c #686E52",
"E.	c #5E7134",
"F.	c #6E8143",
"G.	c #6D7B43",
"H.	c #919E55",
"I.	c #8A955C",
"J.	c #849353",
"K.	c #84934C",
"L.	c #8C9B5C",
"M.	c #364314",
"N.	c #4A5636",
"O.	c #616534",
"P.	c #727A37",
"Q.	c #78863D",
"R.	c #8EA15A",
"S.	c #61662D",
"T.	c #6D8137",
"U.	c #696E35",
"V.	c #6A7534",
"W.	c #4E611B",
"X.	c #86875A",
"Y.	c #969766",
"Z.	c #4E6333",
"`.	c #636B4B",
" +	c #929D63",
".+	c #6A6E44",
"++	c #7C8B4C",
"@+	c #7E9151",
"#+	c #91975C",
"$+	c #5E712D",
"%+	c #53641E",
"&+	c #504D2B",
"*+	c #5E713A",
"=+	c #858D63",
"-+	c #6E814A",
";+	c #A6AB8F",
">+	c #444532",
",+	c #373E16",
"'+	c #3B3E23",
"  . + @ . # $ % & * # @ @ @ . . = = - - ; @ # # > > = ; # , % ' ' - - ) ) - - > ; ; ! - - ~ { $ $ ' + = { ; ! ! @ ; ; ; { = ~ > ",
"  ] ^ ^ / ( _ : < [ < } | 1 1 1 2 3 4 4 ^ ^ 5 5 ^ 6 7 1 8 9 1   0 0 7 a b 4 4 c d ^ e 0 4 0   f g h i j k l 1 m m n ^ n 0 7 o ] ",
"  p q r } s t u v w x y u z A v : r h B C C D D 1 E F G H | 1 q h h F   r I J k K } | r L   2 M M h k J J N O P : Q R } r r q   ",
"  7 B S T : U V D | O O W X Q R Y 1 2 2 R Z | | 1 r j ` ` r ^    . .7 I l E m ..+.@.| Y E h a #.#.7 4 $.n l O %.&.[ *.=.| r B F ",
"  c   B h K r D -.;.Y } v R D T 1 1 h h K q l l l 1 j 4 4 #.L e >.c e E E q k J J } @.,.B / '.#.i 6 o ).k l } : w W !.: < ~.D {.",
"  ^ {.h 0 #.c ^ _ W w : w A =.S 1 ].  #.h F ^ ^ ^ ^ ^.3 a B i /.].1 D : } B F   m m } F F (.f _.:.1 E j +.N : } Y A !.=.<.[.-.e ",
"  ^ r j 3 4 4 h T N w !.s }.|._.B 3 3 7 h h m {.h i ^ G B 2 _.B 2 r : 1.2._ E n E K B r 1 i q r U 3.z s Y !.4.l E | } : s Y C Z ",
"  n r a 4 ` 4 4 ,.l ;.< | |.i #.4 3 3 h ..h n E j B ].I 3 B #.i a T : 5.6.v 1 l E S 2 l ^ 4 h r 7.6.3.: 1 R v E } } : s =.=.C Z ",
"  n l l I i h a ..k {.^ {.0 0 4 8.  1 ^ l 1 j h e 1 ^ I 4 4 9.I ^ C 0.Y =.9 Z D 1 *.a.D ^ 7  .e s A < 1 1 i i F F : w 6.b.b.r j ",
"  e E m J c.T q   i L 6 L 0 #.#.i i l l T d.` 9.e.D } G 9.0 3 /.e.f._ 1 r e.g./.r A h.N l d.q Y f.!.9 r r 0 0 i.k N U j.k.k.G 9.",
"  7 ,.l E l E E   j 4   0 h {.^ h 7 n E F F #.#.(.l.} q a 3 a e.8 | |.h B h h a 2 M =.: l l.8 Z 9 | } m.B 7 #.n n } s n.o.|.9.4 ",
"  e.f.} :   I ^ I 3 0 0 #.      q   d n     4 ` ].| } | E I   {.e.G h 0 h {.^ #.B f.w N @.Y e.1 1         h k d.d.l D 9 q a 9.` ",
"  X p.=.T q.  ^   3 3 3   ^   B 1 E ^ l l E 3 a i S } _ R g.^   q h 9.).` r.(.s._.9 !.N } ,.B a h h h n n E J m.h l {.{.i 3 3 9.",
"  ( n.x 7.Z /         i 0 i   q -.9 h.1.: | G I 4 h ,.=.e.1 I q h   I 8.9.I I G i 9 t.Y l K i G L {.J ..k d.E T d.;.u.L #.0 L I ",
"  8 u y A & l.F   ^ d.h h j I ^ 8 t.3.3.y } ^ 6 3 3 K T 1   i h a G d 8.3 3 9.` q 9 < D E K q /.6 ^ J ^.F E l Y Y v./ ^.0 #.6 w.",
"  / Y N _ ( 9 d.} E E J   ..q   /.x.h.1.: N   I 9.4 y.r r   h   r G   z.{.#.` i A.B.H G   h i e E } Y R ;.l l } Y Y e.l e I     ",
"  n l l _ R w } N l l E   a h i i _.< A } l 0 ` C.#.( ].i 9.j I ^ q ^.c ^   #.4 a _._.K #.3 ..{.} : s [ a.} | } N } w R e.1 i j ",
"D.#.,.c.d.Y E.v E.@.D ;.D e i h 3 9.w./ k   0 4 #.i B.i 3 L e q h d.{.  K d.e #.a _.i i #.I n -.E.x x w 4.Y e.*.A N : o.| 1 E e ",
"D.7 h q d.| _ F.w O _ R 9 ^   3 9.3 ^ ^ k   3 3 #.i 3 4 9.G /.q q.  ^ k 7 e / h q.i i 9.4 6 E C G.} | } N } v H.p.| r |.E 1 E E ",
"  >.  h h K r N E.v w 1 r   #.` 3 j     4 #.3 3 ^ /.a 0 ` r 1 9 C e.E   i     G e #.3 3 3 ^ d.1 E K r C _ N E.n.f.K q h G } Q I.",
"  d G h h h d.} _ R 9 E r q #.#.4 h B i i #.7 4 ^ 6 a 0 0 {.| G.R _ } c.K h j c ^ 0 j 4 h I l D {.h   ( ;.} E.h.9 i h B | s J.X ",
"D.0   e I 3 i K d.l d.K h h h i e /.i i h h ^ e h i ^ J F l G.f.N N } | } |.B e 6 #.4 I r B B {.r j ..d.,.Y } _.h 7   ^ < G.f.Y ",
"  7 q 1 I 7 4 i d.^ I   h ..a B 1 1 i i a a ^ ^ j h ^ c.m.Y R w : s : : N 2 m.e d 0 h r 1 2 m.E {.j ..k K E r B h j   ^ G.R D E ",
"  n l l I 0 4 3 h   h 7 h j   E 1 1 a B Z l.l l m.F l } } l Y } | w !.K.L.w 1 {.^ 0 j l =.;.l.^ m n n F K E / < f.M.q l l l k i.",
"  ^ } T   I #.3 h #.4 h i k {.l w y.B F C 9 | } | s Y Y _ 1 E E d.1 f.< 0.4.e.Y E ,.T D Y _ -.l l J J k   r 1 f.| B ,.T E l N.N.",
"D.1 T M.,.^   a A.i i   I E l Y A ( F m.| } =.s b.b.=.4.R _ 1   j B B M | v R Y } | Y l.R Y 1 l d.^...^ {.q i S ,.D T m.,.| n ] ",
"  Z f.&.} -.E q r O.G h J E E T E.-.  q e.4.P.Q.K.k.7.s Y 1   0 L 4 h   d._ N 4.!.N N _ -.d.} } } c.k E E B i {.J {.d.&.4.V Y m ",
"  & Q } e.v.-.Y y.( 1 F d.E d.S : l D l A 1.R.H.n.P.h.S._.B j c w.  3 4 B } : *.L.4.| Y E q q r l l D E {.a i ^ E B T =.J.[ _ l ",
"  , t.N Y C E q B./.r c.J E   2 B.G r T 4.w T.T.U w =.B.A.` h r ^   a 6 ^ r | f.U.s | r   h `   d.D E {.  3 0 | Y s V.h.t.!.D } ",
"  Z u : =.Y c.F :.a   ^ E E K a i i   h Y } : N } s 2 i 3 0 #.e l K q.w.f e.1 T S : 1   0 h a h B l } K h 3 #.} w !.z b.V.M 1 } ",
"  < Q.p.!.l E I p 7   D } l {.L 0 3 4 3 d.  C C q G h   L ).0 d.1 } B.G G G   e.e.} q h ` ` B G } Q R r d.3 #.} E.!.v 4.s =.| l ",
"  A Q.R.A } E ^ I j r Y : l l ^ 4 9.h h     ( 5 #.  h   ^ N...c.1 1 1 4 a #.i 9 ;.d.h 3 9.i B | f.X a.1 E a #.Y w W 4.: : | l l ",
"  D U Q.4.Y d.F r r } W.1.J.Y h 6 /.g.g a B q #.B i Z D E E E E Y h 3 4 9.#.i {.Y q h ` 9.6 | C !.s N M ,.1 ^ l.;.N Y } ;.Z Y E ",
"  l w A _ l q m.T | =.y Q.2.N m.^ 1 Z Z a a q i :.i 0._ l l E } | q 3  .9.4 i r 1 q i 4 ` s.Y < G.: : m.B Y ].8 C } l | ;.Z D l ",
"  ^ } T r l D ;.A J.u x s 4.w _ 1 } e.].j 3 a i B |.f.} ,.r } !.J.9 r 6 e h 2 8 ~.M i G e   h q M : N J.0.1 r G q B h B E /   h ",
"  d J k d.l _ A K.6.!.} | Y _ R | E {./.a 9.3 h h q 1 r i G | A 6.v : 1 m K q.X.Y.x.B e n h i h ,.| Y [ <.1 r i h a h ..{.^ 4 3 ",
"D.4 0 0 0 K T : N s | l / l.l q l E h 4 4 4 >.e ^ E B ` a /.G.U x t n.7.l E {.r B.A.B E Z.] 6 h B | s < < 2 2 a   6 I i h h 4 9.",
"D.7 3 7 3 #.r D } Y | } C 8 ^   1 ].3 3 b 3 d ^ ^ } F 9.a 1 0.w } _ W Y l ^ e G B a 2 E E ^ ^ h h Y O.( g.i j 7 0 / r K 2 M.7 b ",
"  >.I 3 0 9.4 K T | _ R 1 q h a 4 a a 3 u.^ ....l l 1   :.B K M | l l ,.K h ......r } B h n n h F q q i   b #.] J q.,.| < 8 `.^ ",
"  6 c 4 4 3 4 K T Y e.Z 1 h h 3 9.a h h e e ....l l E   h B B r | | l ,.K h  .0 ..r } K i {.J k h i q h i h   n J F |.O.C 8 / 6 ",
"D.4   ^ I 7 4 q 1 Z e.q a h ` #.#.#.6 ^ h h ^ E l d.q.q 1 d.K e.R } 2 } l K  .J n l 1 E n h ..E {.j B   K m {.F B 1 _  +T q.n ^ ",
"  #.      3 0 h H .+/.G h 3 #.s.` i ^ e h h E l } l ,.E _ d.K 1 C r S r } d.      E E d.J k ,.E {.  J K h E Z.,.T } O.9 _.B     ",
"  6 M M.h #.0 3 B.1 G   3 3 s.^ a q.1 1 j h E E } | | _ R {.B G ].q B T } l ^ h F } } F F E l E m ^ ^ F ..l E | | : | |.2 2 h 7 ",
"  v.9 M q e   h q r #.4 i h {.| < C 1 1 d.T r | W A : Y _   a   G G M v W Y l d.d.| | T d.-._ l n       d.m Y ++v s s < H G   0 ",
"  & ++=.| D   j h   h j h h G =.[ [.| 1 } r | N b.L.y } } K h 4 i r | @+[ w } } | | } | l v.< D I 7 h ^ ^ Y v R.++=.V.#+e.1   h ",
"  C t V.s K   e   h h h L {._ !.4.w =.N ++*.Y N 3.6.u v ;.{.4 ` #.r } E.4.N | } } A A E.l _ Y M   #.0     | Y $+v w w x.K B L   ",
"  } w A Y q.k ^ L 3 4 h {.E _ R : } } : L.L.y =.2.b.A A R H B h i r l N O : N : N J.a.Y } | } K i 0   F B l N %+s A 9 B B j n d ",
"  G.w Y Y r E ^ L 3 h B d.E @.    q 9 9 ++Q.x =.++A N | M s e.M m.d.} _ !.h.K.U N t.A T d.} {.h i {.{.E E G.e.}.&.e.1 h i j 6 d ",
"  R V.y =.} | }   a a F   m K j i 2 < < A n.y x A G.| r B e.8 r q.} l ;.A J.6.U =.9 G.,.c.E {.h i ^ n D l ( C P &.^ {.3 h j e d ",
"  M x P.h.K.K.J.G.r B.i   k d.r :.q.q q O.s G.G.Y Y K q :.Y 8 e./.  q l | < h.v !.f.D 1 e #.` 3 4     h K l D | r i 0 #.{.1   h ",
"  _.: P.p.6.b.3.A S.M i 0 K d.1 2 a _.i O.Y R R } l K i a ^ (..+].  i e } v R A R D {.^ ^ 9.3 9.4 i i F h } l 1 {.3 3   /.l h j ",
"D.3 2 2 7.t.V.%+4.A O.` G ^ D 1 < ( a a B K l r K K B B i h F j a a a h K } | } 1 q i 4 ` 9.9.  4 a h 8 C K B a 3 0 3 h 1 1 Z (.",
"D.3 B q 1 < 9 =.w < 1 #.c n l 1 < Z h B i q ^ e i h h h i h B h h 3 3 ` K } } D 1 q i 3 0 3 3 h i B h Z C K h a 3 3 7 B } | C 5 ",
"  0 h   q l T S S q A.a B F d.l l l F F 1 ^ i #.3 4 /.1 ^ E E E ^   j ` q B B C 8 q B h 0 e E E l 1 r 2 B 1 {.a h #.G 1 Q L.Q Z ",
"D.  q h   ^ d.S K i A.A.B F @.l E l B h 1 ^ i i a ` ].1 E E m E E   h ` i q q y.Z q B q   E l l | Y D 2 K /.{.a i i   Y @+L.W l.",
"  E E E   F } Z ^ 9.f Y.g } l Z.l l E E K i a 3 #.&+^ d.F c.m k F   ^ #.3 .+f G 2 r 1 E ^ m.+.} Y X a.1 r a i 1 r m.K N y y N | ",
"  l }   J   } | {.,.w F.*+N E.w T.n.Y ^ 0 ).N.L h #.d E d.y.8 Y K I I z.I {.1 B.B.C Z r q T r f._ A < f.e.a ` z.L d.d.D n ] c L ",
"  } ,.M.k u.q B   D Y } @.l _ A H.6.s } ..7 D l q.q.l | M A [.t.| B.M.{./ K q.r 1 *.=+B F 1 1 < G.: Y R Z j 3 7 B } U ++Y E 0 ^.",
"  R 4.T L p 0 4   {.T T } Y D w j.3.}.T j i } } Y Y | O M w v w =.M M q G T &.Y v t.!.M T < 0.U.Y T r / ^ ` 4 q.|.0.t.: ,.K 0 j ",
"   +p.N d.j 7 0   l T S T l } s j. +2 j     l Y R -+E } } } : _ 9 e.l   S M Y 9 A N N : N I.I.w : P &.E /.I ` j r  +*.T h h 0 4 ",
";+< 4.y :   h h q 1 M ,.d.,.r s t 9 4 3 z.L J E D D k m -.D E E K d.J J e k K l l ,.q d.{.e.7.V.w T T r   3 9.4 0 f C r 3  .>+>+",
"  C x %+x : B q.h | | } S 2 Y t.o.o.a 7 c {.{.r ,.d.K l -._ } S m.,.J E d ).7 0   h h L L i P t.v : T r r ,+b 4 #.1 1 r 7 7 4 4 ",
"D.z.d.T 4.<.O.H #.h r {.d.n {.r 9 9 |.q B K | N : T _ | S T S T &.} N &.S r S M s w _ Y } ,.G r d.d.E i   6 I b B =.s !.| {.  i ",
"D.>+z.  ;.& / e p 7 L e ] ] z.  (.( d.e 7 7 E } l I % ].F h K e d.l l K m.r M s =.!.< Y } d.6   0 ] d 7  .>.c '+3 l e.R D ^ L #."};
