/* XPM */
static char * player_r_xpm[] = {
"64 64 366 2",
"  	c #4C532B",
". 	c #798366",
"+ 	c #6C7858",
"@ 	c #7B8363",
"# 	c #899071",
"$ 	c #858C69",
"% 	c #7B845C",
"& 	c #929C6A",
"* 	c #A6AD87",
"= 	c #656B54",
"- 	c #6A6C5A",
"; 	c #757D63",
"> 	c #757A63",
", 	c #7B875A",
"' 	c #6C7454",
") 	c #6A6B55",
"! 	c #3F681B",
"~ 	c #737B5B",
"{ 	c #707265",
"] 	c #6D745A",
"^ 	c #576243",
"/ 	c #5B643B",
"( 	c #636B42",
"_ 	c #7B8453",
": 	c #65733B",
"< 	c #546324",
"[ 	c #727D44",
"} 	c #94A263",
"| 	c #55632C",
"1 	c #59652C",
"2 	c #5A6434",
"3 	c #434C16",
"4 	c #434523",
"5 	c #44452A",
"6 	c #737B53",
"7 	c #5A5D3B",
"8 	c #3E4522",
"9 	c #797E4D",
"0 	c #69743C",
"a 	c #454B2A",
"b 	c #42451D",
"c 	c #3B3E1B",
"d 	c #5B6342",
"e 	c #555D3A",
"f 	c #72754B",
"g 	c #717544",
"h 	c #444B23",
"i 	c #494D24",
"j 	c #3D441C",
"k 	c #46522A",
"l 	c #556933",
"m 	c #566939",
"n 	c #56633A",
"o 	c #555B42",
"p 	c #4B4D33",
"q 	c #4A5325",
"r 	c #525C2C",
"s 	c #5B6A2C",
"t 	c #66762C",
"u 	c #6B7B35",
"v 	c #66793A",
"w 	c #647334",
"x 	c #5A6A25",
"y 	c #556925",
"z 	c #818E4C",
"A 	c #748244",
"B 	c #434B1D",
"C 	c #6B7443",
"D 	c #5D6A3A",
"E 	c #556333",
"F 	c #3D4A1C",
"G 	c #51552C",
"H 	c #595D2D",
"I 	c #52711B",
"J 	c #6B872F",
"K 	c #455223",
"L 	c #4D5432",
"M 	c #525C25",
"N 	c #4E5A32",
"O 	c #56692C",
"P 	c #4E6124",
"Q 	c #435315",
"R 	c #7D8B52",
"S 	c #74834B",
"T 	c #45521C",
"U 	c #4C5A24",
"V 	c #63722E",
"W 	c #6E813C",
"X 	c #76894C",
"Y 	c #8E9B62",
"Z 	c #5C6A33",
"` 	c #737C4B",
" .	c #4A462A",
"..	c #3E4329",
"+.	c #525533",
"@.	c #364A16",
"#.	c #4E612B",
"$.	c #4A4D2A",
"%.	c #5E6751",
"&.	c #39460C",
"*.	c #4B5A1D",
"=.	c #828D54",
"-.	c #596626",
";.	c #53553B",
">.	c #657342",
",.	c #667747",
"'.	c #958F45",
").	c #9DA441",
"!.	c #465924",
"~.	c #716F4D",
"{.	c #454C32",
"].	c #6C7B3C",
"^.	c #838C5B",
"/.	c #535C33",
"(.	c #61663B",
"_.	c #364419",
":.	c #595E34",
"<.	c #797E53",
"[.	c #4A4D1D",
"}.	c #414415",
"|.	c #86935A",
"1.	c #98A56A",
"2.	c #485617",
"3.	c #4A531D",
"4.	c #5A6E26",
"5.	c #656E18",
"6.	c #949A2F",
"7.	c #BC8843",
"8.	c #B4A23D",
"9.	c #8C9B54",
"0.	c #657934",
"a.	c #3E4A22",
"b.	c #616D2D",
"c.	c #93A15C",
"d.	c #4A4936",
"e.	c #7C8220",
"f.	c #878319",
"g.	c #E9DE3E",
"h.	c #8E8421",
"i.	c #E4C63A",
"j.	c #C7A63B",
"k.	c #474507",
"l.	c #879959",
"m.	c #929D5B",
"n.	c #47582B",
"o.	c #4D5A2B",
"p.	c #4A4524",
"q.	c #626C3B",
"r.	c #798444",
"s.	c #626D34",
"t.	c #3E492A",
"u.	c #89964B",
"v.	c #818945",
"w.	c #6D7B4A",
"x.	c #B2B722",
"y.	c #E1DD2F",
"z.	c #C1A420",
"A.	c #DBAD29",
"B.	c #F2D324",
"C.	c #CB9426",
"D.	c #3C4A15",
"E.	c #74823D",
"F.	c #515B1D",
"G.	c #7C8B45",
"H.	c #3C4415",
"I.	c #AFB526",
"J.	c #FBF524",
"K.	c #EBB728",
"L.	c #C16217",
"M.	c #FFE52A",
"N.	c #CD8B31",
"O.	c #413509",
"P.	c #768944",
"Q.	c #727D3D",
"R.	c #5E6A44",
"S.	c #7C8B77",
"T.	c #C3B930",
"U.	c #C9A941",
"V.	c #C7BC40",
"W.	c #354B2C",
"X.	c #758251",
"Y.	c #626542",
"Z.	c #595C25",
"`.	c #94A889",
" +	c #DDE4DC",
".+	c #D5CCBF",
"++	c #A29575",
"@+	c #989569",
"#+	c #8D9770",
"$+	c #799C81",
"%+	c #9DC1B2",
"&+	c #5E7134",
"*+	c #6E8143",
"=+	c #688557",
"-+	c #CBD9C3",
";+	c #F3F5EE",
">+	c #ECF9F9",
",+	c #FCEEF9",
"'+	c #F2FAEE",
")+	c #E5F4E6",
"!+	c #ECF5F1",
"~+	c #B1DFE1",
"{+	c #AFD9E5",
"]+	c #8BA599",
"^+	c #6D7B43",
"/+	c #919E55",
"(+	c #5B5D43",
"_+	c #8A955C",
":+	c #A2BA91",
"<+	c #E6EBDC",
"[+	c #FAF2F5",
"}+	c #F5F4FA",
"|+	c #D9DDE0",
"1+	c #9399B1",
"2+	c #666C87",
"3+	c #CDC7D8",
"4+	c #D1E9F0",
"5+	c #597B81",
"6+	c #385E3F",
"7+	c #849353",
"8+	c #D3DEDC",
"9+	c #ADB1AA",
"0+	c #5A585D",
"a+	c #232448",
"b+	c #2A356C",
"c+	c #5B5982",
"d+	c #8CB2BB",
"e+	c #93BCAC",
"f+	c #678F74",
"g+	c #3A5E44",
"h+	c #364314",
"i+	c #53694B",
"j+	c #FBF3FB",
"k+	c #E9F2ED",
"l+	c #606F72",
"m+	c #1D1F59",
"n+	c #21337A",
"o+	c #1E326C",
"p+	c #D0E3ED",
"q+	c #CAD7D6",
"r+	c #88A6A0",
"s+	c #506D65",
"t+	c #4A625D",
"u+	c #4A5636",
"v+	c #49461C",
"w+	c #616534",
"x+	c #EAECF1",
"y+	c #F4F5F5",
"z+	c #808C6A",
"A+	c #364468",
"B+	c #262F71",
"C+	c #172E70",
"D+	c #1E3E7B",
"E+	c #2D3764",
"F+	c #AEBDCC",
"G+	c #E6F4F3",
"H+	c #454C4F",
"I+	c #2B422D",
"J+	c #C1C6A9",
"K+	c #6A6D3C",
"L+	c #515425",
"M+	c #C4D1BD",
"N+	c #C6CCC7",
"O+	c #131B42",
"P+	c #2B3475",
"Q+	c #1B2768",
"R+	c #202B6B",
"S+	c #2A3D85",
"T+	c #BAB9B7",
"U+	c #8B8A88",
"V+	c #727872",
"W+	c #6A7534",
"X+	c #78863D",
"Y+	c #C5CCB8",
"Z+	c #9AA3B9",
"`+	c #515571",
" @	c #3B3E57",
".@	c #2A3B76",
"+@	c #2E3684",
"@@	c #263A83",
"#@	c #4B4F78",
"$@	c #93918B",
"%@	c #807D7B",
"&@	c #8EA15A",
"*@	c #6A7051",
"=@	c #687A56",
"-@	c #D5D6C5",
";@	c #9EA5AE",
">@	c #374074",
",@	c #2D357A",
"'@	c #18255B",
")@	c #2B3791",
"!@	c #2A3C8C",
"~@	c #9899A4",
"{@	c #CECDD4",
"]@	c #5A7C52",
"^@	c #86A289",
"/@	c #E9E5EA",
"(@	c #B6B9CE",
"_@	c #363F65",
":@	c #313C88",
"<@	c #283558",
"[@	c #263C92",
"}@	c #303779",
"|@	c #F6F8F6",
"1@	c #84934C",
"2@	c #989D98",
"3@	c #8E99A5",
"4@	c #213564",
"5@	c #4A5E94",
"6@	c #263E8D",
"7@	c #BCC2BB",
"8@	c #6C744B",
"9@	c #627864",
"0@	c #7E86A3",
"a@	c #2B3A93",
"b@	c #5D74A5",
"c@	c #97B0D9",
"d@	c #2C4179",
"e@	c #244185",
"f@	c #D3DAD6",
"g@	c #636B4B",
"h@	c #778389",
"i@	c #2C397D",
"j@	c #2C3798",
"k@	c #203474",
"l@	c #50669D",
"m@	c #213B6E",
"n@	c #1D2C62",
"o@	c #2A324B",
"p@	c #E1E9E1",
"q@	c #929D63",
"r@	c #6A6E44",
"s@	c #4E6333",
"t@	c #3A4857",
"u@	c #2B399A",
"v@	c #1D3453",
"w@	c #7C8B4C",
"x@	c #23408E",
"y@	c #262853",
"z@	c #948E9C",
"A@	c #91975C",
"B@	c #5E712D",
"C@	c #20343E",
"D@	c #2A2C6A",
"E@	c #53641E",
"F@	c #172748",
"G@	c #2935A3",
"H@	c #4A694A",
"I@	c #727A37",
"J@	c #61662D",
"K@	c #16304C",
"L@	c #99ACA1",
"M@	c #8C9B5C",
"N@	c #183747",
"O@	c #152E32",
"P@	c #7E9151",
"Q@	c #1D3A55",
"R@	c #4D5439",
"S@	c #153638",
"T@	c #7A854C",
"U@	c #192048",
"V@	c #1A1F49",
"W@	c #444532",
"X@	c #373E16",
"Y@	c #3B3E23",
"  . + @ . # $ % & * # @ @ @ . . = = - - ; @ # # > > = ; # , % ' ' - - ) ) - ! ! ; ; ~ - - { ] $ $ ' + = ] ; ~ ~ @ ; ; ; ] = { > ",
"  ^ / / ( _ : < [ } [ | 1 2 2 2 3 4 5 5 / / 6 6 / 7 8 2 9 0 2   a a 8 b c 5 ! ! d / e a 5 a   f g h i j k l 2 m m n / n a 8 o ^ ",
"  p q r | s t u v w x y u z A v < r h B C C D D 2 E F G H 1 2 q h h F   I I J J K | 1 r L   3 M M h k N N O P Q < R S | r r q   ",
"  8 B T U < V W D 1 P P X Y R S Z 2 3 3 S ` 1 1 2 r j  . .r /   ....8 +.I I J J @.#.1 Z E h b $.$.8 5 %.n l P &.*.} =.-.1 r B F ",
"  ;.  B h K r D >.,.Z | v S D U 2 2 h h K q l l l 2 j 5 5 $.L e I I e E '.'.).).N | #.!.B ( ~.$.i 7 o {.k l | < w X ].< [ ^.D /.",
"  / /.h a $.;./ : X w < w A -.T 2 (.  $.h F / / / / _.4 b B i :.I I D < '.'.).).m m | F F <.f [.}.2 E j @.O < | Z A ].-.|.1.>.e ",
"  / r j 4 5 5 h U O w ].s 2.3.[.B 4 4 8 h h m /.h i 4.4.4.4.5.5.6.6.5.5.7.7.8.8.E K B r 2 i q r V 9.z s Z ].0.l E 1 | < s Z C ` ",
"  n r b 5  .5 5 !.l ,.[ 1 3.i $.5 4 4 h a.h n E j B 4.4.4.4.5.5.6.6.5.5.7.7.8.8.E T 3 l / 5 h r b.c.9.< 2 S v E | | < s -.-.C ` ",
"  n l l +.i h b a.k /./ /.a a 5 d.  2 / l 2 j h e 2 e.e.6.6.f.f.g.g.h.h.i.i.j.j.k.k.l.D / 8 ..e s A [ 2 2 i i F F < w c.m.m.r j ",
"  e E m N n.U q   i L 7 L a $.$.i i l l U o. .p.q.D e.e.6.6.f.f.g.g.h.h.i.i.j.j.k.k.r.O l o.q Z s.].0 r r a a t.k O V u.v.v.G p.",
"  8 !.l E l E E   j 5   a h /./ h 8 n E F F $.$.<.w.x.x.y.y.z.z.A.A.z.z.B.B.C.C.k.k.-.< l w.9 ` 0 1 | D.B 8 $.n n | s E.F.3.p.5 ",
"  q.s.| <   +./ +.4 a a $.      q   d n     5  .(.1 x.x.y.y.z.z.A.A.z.z.B.B.C.C.k.k.w O #.Z q.2 2         h k o.o.l D 0 q b p. .",
"  Y G.-.U H.  /   4 4 4   /   B 2 E / l l E 4 b i T I.I.J.J.K.K.L.L.K.K.M.M.N.N.O.O.].O | !.B b h h h n n E N D.h l /./.i 4 4 p.",
"  _ E.x b.` (         i a i   q >.0 r.P.< 1 G +.5 h I.I.J.J.K.K.L.L.K.K.M.M.N.N.O.O.Q.Z l K i G L /.N a.k o.E U o.,.R.L $.a L +.",
"  9 u y A & w.F   / o.h h j +./ 9 Q.9.9.y | / 7 S.S.).).T.T.j.j.7.7.U.U.V.V.'.'.W.W.[ D E K q :.7 / N _.F E l Z Z X.( _.a $.7 Y.",
"  ( Z O : _ 0 o.| E E N   a.q   :.Z.r.P.< O   +.S.S.).).T.T.j.j.7.7.U.U.V.V.'.'.W.W.H G   h i e E | Z S ,.l l | Z Z q.l e +.    ",
"  n l l : S w | O l l E   b h i i [.[ A | l `.`. + +.+.+++++@+@+@+@+@+@+#+#+$+$+%+%+$+$+$.4 a./.| < s } l.| 1 | O | w S q.2 i j ",
"  $.!.n.o.Z &+v &+#.D ,.D e i h 4 p.Y.( k   `.`. + +.+.+++++@+@+@+@+@+@+#+#+$+$+%+%+$+$+$.+.n >.&+x x w 0.Z q.=.A O < F.1 2 E e ",
"  8 h q o.1 : *+w P : S 0 /   4 =+=+`.`.-+-+;+;+>+>+,+,+,+,+'+'+)+)+)+)+!+!+~+~+{+{+]+]+5 7 E C ^+| 1 | O | v /+G.1 r 3.E 2 E E ",
"  (+  h h K r O &+v w 2 r   $. .=+=+`.`.-+-+;+;+>+>+,+,+,+,+'+'+)+)+)+)+!+!+~+~+{+{+]+]+4 / o.2 E K r C : O &+E.s.K q h G | R _+",
"  d G h h h o.| : S 0 E r q :+:+<+<+;+;+[+[+;+;+>+>+}+}+,+,+|+|+1+1+2+2+3+3+4+4+{+{+5+5+6+6+l D /.h   _ ,.| &+r.0 i h B 1 s 7+Y ",
"  a   e +.4 i K o.l o.K h h :+:+<+<+;+;+[+[+;+;+>+>+}+}+,+,+|+|+1+1+2+2+3+3+4+4+{+{+5+5+6+6+B /.r j a.o.!.Z | [.h 8   / [ ^+s.Z ",
"  8 q 2 +.8 5 i o./ +.  =+=+-+-+}+}+,+,+,+,+;+;+>+>+8+8+9+9+0+0+a+a+b+b+c+c+3+3+{+{+d+d+e+e+f+f+g+g+a.k K E r B h j   / ^+S D E ",
"  n l l +.a 5 4 h   h 8 =+=+-+-+}+}+,+,+,+,+;+;+>+>+8+8+9+9+0+0+a+a+b+b+c+c+3+3+{+{+d+d+e+e+f+f+g+g+n F K E ( [ s.h+q l l l k t.",
"  / | U   +.$.4 h $.5 h i+i+-+-+j+j+,+,+j+j+[+[+k+k+8+8+l+l+a+a+m+m+n+n+o+o+2+2+p+p+4+4+q+q+r+r+s+s+t+t+  r 2 s.1 B !.U E l u+u+",
"  2 U h+!./   b v+i i   i+i+-+-+j+j+,+,+j+j+[+[+k+k+8+8+l+l+a+a+m+m+n+n+o+o+2+2+p+p+4+4+q+q+r+r+s+s+t+t+/.q i T !.D U D.!.1 n ^ ",
"  ` s.*.| >.E q r w+G h S.S.x+x+j+j+[+[+y+y+j+j+<+<+z+z+A+A+m+m+B+B+C+C+D+D+E+E+F+F+>+>+G+G+q+q+H+H+I+I+E B i /.N /.o.*.0.W Z m ",
"J+& R | q.X.>.Z K+_ 2 F S.S.x+x+j+j+[+[+y+y+j+j+<+<+z+z+A+A+m+m+B+B+C+C+D+D+E+E+F+F+>+>+G+G+q+q+H+H+I+I+/.b i / E B U -.7+} : l ",
"  , Q.O Z C E q L+:.=+=+M+M+j+j+}+}+y+y+'+'+x+x+N+N+H+H+O+O+P+P+Q+Q+R+R+S+S+o+o+1+1+G+G+T+T+U+U+V+V+i+i+  4 a 1 Z s W+r.Q.].D | ",
"  ` u < -.Z n.F }.b =+=+M+M+j+j+}+}+y+y+'+'+x+x+N+N+H+H+O+O+P+P+Q+Q+R+R+S+S+o+o+1+1+G+G+T+T+U+U+V+V+i+i+h 4 $.| w ].z m.W+M 2 | ",
"  [ X+G.].l E +.p 8   D Y+Y+j+j+}+}+'+'+k+k+Z+Z+`+`+ @ @m+m+.@.@Q+Q++@+@+@+@@@@@#@#@3+3+$@$@%@%@$@$@z+z+o.4 $.| &+].v 0.s -.1 l ",
"  A X+&@A | E / +.j r Z Y+Y+j+j+}+}+'+'+k+k+Z+Z+`+`+ @ @m+m+.@.@Q+Q++@+@+@+@@@@@#@#@3+3+$@$@%@%@$@$@z+z+E b $.Z w X 0.< < 1 l l ",
"*@D V X+0.Z o.F r r =@=@-@-@j+j+}+}+x+x+;@;@>@>@,@,@'@'@Q+Q+n+n+m+m+)@)@!@!@)@)@b+b+~@~@8+8+{@{@;+;+<+<+]@]@/ w.,.O Z | ,.` Z E ",
"*@l w A : l q D.U 1 =@=@-@-@j+j+}+}+x+x+;@;@>@>@,@,@'@'@Q+Q+n+n+m+m+)@)@!@!@)@)@b+b+~@~@8+8+{@{@;+;+<+<+]@]@(.9 C | l 1 ,.` D l ",
"  / | U r l D ,.A 7+^@^@y+y+/@/@(@(@2+2+_@_@,@,@:@:@<@<@Q+Q+.@.@'@'@!@!@S+S+[@[@}@}@`+`+8+8+|@|@[+[+ + +]@]@r G q B h B E (   h ",
"  d N k o.l : A 1@c.^@^@y+y+/@/@(@(@2+2+_@_@,@,@:@:@<@<@Q+Q+.@.@'@'@!@!@S+S+[@[@}@}@`+`+8+8+|@|@[+[+ + +]@]@r i h b h a././ 5 4 ",
"  5 a a a K U < O s 2@2@!+!+3@3@E+E+,@,@}@}@!@!@:@:@4@4@R+R+5@5@o+o+!@!@6@6@)@)@+@+@<@<@N+N+j+j+[+[+7@7@[ 3 3 b   7 +.i h h 5 p.",
"  8 4 8 4 $.r D | Z 2@2@!+!+3@3@E+E+,@,@}@}@!@!@:@:@4@4@R+R+5@5@o+o+!@!@6@6@)@)@+@+@<@<@N+N+j+j+[+[+7@7@8@i j 8 a ( r K 3 h+8 c ",
"  (++.4 a p.5 K U 1 9@9@q+q+0@0@P+P+:@:@a@a@a@a@!@!@o+o+b@b@c@c@d@d@@@@@e@e@[@[@)@)@E+E+r+r+f@f@j+j+2@2@  c $.^ N H.!.1 [ 9 g@/ ",
"  7 ;.5 5 4 5 K U Z 9@9@q+q+0@0@P+P+:@:@a@a@a@a@!@!@o+o+b@b@c@c@d@d@@@@@e@e@[@[@)@)@E+E+r+r+f@f@j+j+2@2@i h   n N F 3.w+C 9 ( 7 ",
"  5   / +.8 5 q 2 ` W.W.h@h@A+A+i@i@a@a@j@j@a@a@a@a@k@k@l@l@b@b@m@m@e@e@@@@@[@[@j@j@n@n@o@o@;@;@p@p@9+9+K m /.F B 2 : q@U H.n / ",
"  $.      4 a h H r@W.W.h@h@A+A+i@i@a@a@j@j@a@a@a@a@k@k@l@l@b@b@m@m@e@e@@@@@[@[@j@j@n@n@o@o@;@;@p@p@9+9+h E s@!.U | w+0 [.B     ",
"  7 M h+h $.a 4 L+2 G   t@t@.@.@e@e@!@!@a@a@)@)@[@[@S+S+n+n+k@k@d@d@!@!@!@!@[@[@u@u@S+S+v@v@ @ @~@~@f@f@]@]@E 1 1 < 1 3.3 3 h 8 ",
"  X.0 M q e   h q r $.5 t@t@.@.@e@e@!@!@a@a@)@)@[@[@S+S+n+n+k@k@d@d@!@!@!@!@[@[@u@u@S+S+v@v@ @ @~@~@f@f@]@]@Z w@v s s [ H G   a ",
"  & w@-.1 D   j h   h j <@<@x@x@x@x@x@x@j@j@a@a@[@[@!@!@!@!@!@!@!@!@:@:@a@a@a@a@u@u@6@6@.@.@y@y@z@z@<+<+]@]@v &@w@-.W+A@q.2   h ",
"*@C t W+s K   e   h h h <@<@x@x@x@x@x@x@j@j@a@a@[@[@!@!@!@!@!@!@!@!@:@:@a@a@a@a@u@u@6@6@.@.@y@y@z@z@<+<+]@]@Z B@v w w Z.K B L   ",
"*@| w A Z H.k / L 4 C@C@i@i@x@x@x@x@!@!@u@u@a@a@[@[@a@a@)@)@a@a@a@a@a@a@a@a@a@a@[@[@[@[@!@!@D@D@z@z@<+<+]@]@O E@s A 0 B B j n d ",
"  ^+w Z Z r E / L 4 C@C@i@i@x@x@x@x@!@!@u@u@a@a@[@[@a@a@)@)@a@a@a@a@a@a@a@a@a@a@[@[@[@[@!@!@D@D@z@z@<+<+]@]@q.2.*.q.2 h i j 7 d ",
"  S W+y -.| 1 |   b F@F@a@a@a@a@6@6@[@[@G@G@a@a@a@a@a@a@a@a@j@j@j@j@a@a@a@a@a@a@!@!@x@x@[@[@R+R+z@z@ + +H@H@C Q *./ /.4 h j e d ",
"*@M x I@r.1@1@7+^+r F@F@a@a@a@a@6@6@[@[@G@G@a@a@a@a@a@a@a@a@j@j@j@j@a@a@a@a@a@a@!@!@x@x@[@[@R+R+z@z@ + +H@H@D 1 r i a $./.2   h ",
"*@[.< I@G.c.m.9.A J@K@K@@@@@[@[@!@!@a@a@u@u@j@j@a@a@a@a@a@a@a@a@a@a@a@a@a@a@a@a@x@x@x@x@!@!@P+P+2+2+L@L@h | l 2 /.4 4   :.l h j ",
"  4 3 3 b.Q.W+E@0.A K@K@@@@@[@[@!@!@a@a@u@u@j@j@a@a@a@a@a@a@a@a@a@a@a@a@a@a@a@a@x@x@x@x@!@!@P+P+2+2+L@L@C K B b 4 a 4 h 2 2 ` <.",
"  4 B q 2 [ 0 -.w [ K@K@6@6@a@a@!@!@S+S+6@6@x@x@x@x@x@x@x@x@a@a@x@x@x@x@x@x@x@x@x@x@[@[@u@u@!@!@b+b+t+t+C K h b 4 4 8 B | 1 C 6 ",
"  a h   q l U T T q K@K@6@6@a@a@!@!@S+S+6@6@x@x@x@x@x@x@x@x@a@a@x@x@x@x@x@x@x@x@x@x@[@[@u@u@!@!@b+b+t+t+B 2 /.b h $.G 2 R M@R ` ",
"    q h   / o.T K i N@N@@@@@j@j@a@a@e@e@!@!@!@!@x@x@[@[@!@!@!@!@a@a@x@x@a@a@!@!@!@!@u@u@G@G@a@a@4@4@O@O@K :./.b i i   Z P@M@X w.",
"  E E E   F | ` / p.N@N@@@@@j@j@a@a@e@e@!@!@!@!@x@x@[@[@!@!@!@!@a@a@x@x@a@a@!@!@!@!@u@u@G@G@a@a@4@4@O@O@r b i 2 r D.K O y y O 1 ",
"  l |   N   | 1 /.!.w *+Q@Q@.@.@S+S+!@!@a@a@a@a@!@!@a@a@a@a@a@a@a@a@a@a@a@a@a@a@!@!@a@a@!@!@m@m@N@N@[ s.q.b  .R@L o.o.D n ^ ;.L ",
"  | !.h+k R.q B   D Z | Q@Q@.@.@S+S+!@!@a@a@a@a@!@!@a@a@a@a@a@a@a@a@a@a@a@a@a@a@!@!@a@a@!@!@m@m@N@N@Z S ` j 4 8 B | V w@Z E a _.",
"      U L p a 5   /.U U | Z S@S@Q@Q@d@d@i@i@+@+@i@i@i@i@i@i@i@i@i@i@i@i@+@+@}@}@.@.@4@4@N@N@S@S@Z U r ( /  .5 H.3.T@Q.< !.K a j ",
"  q@  O o.j 8 a   l U T U l S@S@Q@Q@d@d@i@i@+@+@i@i@i@i@i@i@i@i@i@i@i@i@+@+@}@}@.@.@4@4@N@N@S@S@< Q *.E :.+. .j r q@=.U h h a 5 ",
"      y <   h h q 2 M !.o.!.r s t 0 5 4 F@F@U@U@U@U@U@U@U@U@U@U@U@U@V@V@U@U@U@U@O@O@q o./.q.b.W+w U U r   4 p.5 a f C r 4 ..W@W@",
"    x E@x < B H.h 1 1 | T 3 Z Q.F.F.b 8 F@F@U@U@U@U@U@U@U@U@U@U@U@U@V@V@U@U@U@U@O@O@h L L i Q Q.v < U r r X@c 5 $.2 2 r 8 8 5 5 ",
"  R@o.U 0.|.w+H $.h r /.o.n /.r 0 0 3.q B K 1 O < U : 1 T U T U *.| O *.T r T M s w : Z | !.G r o.o.E i   7 +.c B -.s ].1 /.  i ",
"  W@R@  ,.& ( e p 8 L e ^ ^ R@  <._ o.e 8 8 E | l +.% (.F h K e o.l l K D.r M s -.].[ Z | o.7   a ^ d 8 ..(+;.Y@4 l q.S D / L $."};
