/* XPM */
static char * player_b_xpm[] = {
"64 64 334 2",
"  	c #4C532B",
". 	c #798366",
"+ 	c #6C7858",
"@ 	c #7B8363",
"# 	c #899071",
"$ 	c #858C69",
"% 	c #7B845C",
"& 	c #929C6A",
"* 	c #A6AD87",
"= 	c #656B54",
"- 	c #6A6C5A",
"; 	c #757D63",
"> 	c #757A63",
", 	c #7B875A",
"' 	c #6C7454",
") 	c #6A6B55",
"! 	c #737B5B",
"~ 	c #707265",
"{ 	c #6D745A",
"] 	c #576243",
"^ 	c #5B643B",
"/ 	c #636B42",
"( 	c #7B8453",
"_ 	c #65733B",
": 	c #546324",
"< 	c #727D44",
"[ 	c #94A263",
"} 	c #55632C",
"| 	c #59652C",
"1 	c #5A6434",
"2 	c #434C16",
"3 	c #434523",
"4 	c #44452A",
"5 	c #737B53",
"6 	c #5A5D3B",
"7 	c #3E4522",
"8 	c #797E4D",
"9 	c #69743C",
"0 	c #454B2A",
"a 	c #42451D",
"b 	c #3B3E1B",
"c 	c #53553B",
"d 	c #5B6342",
"e 	c #555D3A",
"f 	c #72754B",
"g 	c #717544",
"h 	c #444B23",
"i 	c #494D24",
"j 	c #3D441C",
"k 	c #46522A",
"l 	c #556933",
"m 	c #566939",
"n 	c #56633A",
"o 	c #555B42",
"p 	c #4B4D33",
"q 	c #4A5325",
"r 	c #525C2C",
"s 	c #5B6A2C",
"t 	c #66762C",
"u 	c #6B7B35",
"v 	c #66793A",
"w 	c #647334",
"x 	c #5A6A25",
"y 	c #556925",
"z 	c #818E4C",
"A 	c #748244",
"B 	c #434B1D",
"C 	c #6B7443",
"D 	c #5D6A3A",
"E 	c #556333",
"F 	c #3D4A1C",
"G 	c #51552C",
"H 	c #595D2D",
"I 	c #5F7323",
"J 	c #525533",
"K 	c #4E5A32",
"L 	c #455223",
"M 	c #4D5432",
"N 	c #525C25",
"O 	c #56692C",
"P 	c #4E6124",
"Q 	c #435315",
"R 	c #7D8B52",
"S 	c #74834B",
"T 	c #45521C",
"U 	c #4C5A24",
"V 	c #63722E",
"W 	c #6E813C",
"X 	c #76894C",
"Y 	c #8E9B62",
"Z 	c #5C6A33",
"` 	c #737C4B",
" .	c #4A462A",
"..	c #3E4329",
"+.	c #3E4A22",
"@.	c #364A16",
"#.	c #4E612B",
"$.	c #4A4D2A",
"%.	c #5E6751",
"&.	c #39460C",
"*.	c #4B5A1D",
"=.	c #828D54",
"-.	c #596626",
";.	c #657342",
">.	c #667747",
",.	c #768032",
"'.	c #586D25",
").	c #465924",
"!.	c #716F4D",
"~.	c #454C32",
"{.	c #6C7B3C",
"].	c #838C5B",
"^.	c #535C33",
"/.	c #61663B",
"(.	c #364419",
"_.	c #797E53",
":.	c #4A4D1D",
"<.	c #414415",
"[.	c #86935A",
"}.	c #98A56A",
"|.	c #485617",
"1.	c #4A531D",
"2.	c #566917",
"3.	c #C9C337",
"4.	c #929528",
"5.	c #768944",
"6.	c #8A9654",
"7.	c #8C9B54",
"8.	c #657934",
"9.	c #7E9249",
"0.	c #93A15C",
"a.	c #616D2D",
"b.	c #4A4936",
"c.	c #7E751A",
"d.	c #E2BE2C",
"e.	c #B69928",
"f.	c #574E1A",
"g.	c #6B7530",
"h.	c #879959",
"i.	c #929D5B",
"j.	c #47582B",
"k.	c #4D5A2B",
"l.	c #4A4524",
"m.	c #6C744B",
"n.	c #595E34",
"o.	c #798444",
"p.	c #626D34",
"q.	c #3E492A",
"r.	c #89964B",
"s.	c #818945",
"t.	c #837522",
"u.	c #93881C",
"v.	c #A57D2F",
"w.	c #D27028",
"x.	c #CA8923",
"y.	c #886926",
"z.	c #A9903F",
"A.	c #6D7B4A",
"B.	c #3C4A15",
"C.	c #74823D",
"D.	c #515B1D",
"E.	c #626C3B",
"F.	c #C9CFB2",
"G.	c #7C8B45",
"H.	c #3C4415",
"I.	c #5F2917",
"J.	c #9D5523",
"K.	c #D7B928",
"L.	c #D6A830",
"M.	c #D95A2C",
"N.	c #DA8626",
"O.	c #D8B731",
"P.	c #D18430",
"Q.	c #633C0F",
"R.	c #727D3D",
"S.	c #5E6A44",
"T.	c #5F4520",
"U.	c #A8703E",
"V.	c #D8AA42",
"W.	c #DDC73A",
"X.	c #D3933D",
"Y.	c #E0CF3F",
"Z.	c #73492B",
"`.	c #758251",
" +	c #626542",
".+	c #595C25",
"++	c #49461C",
"@+	c #515425",
"#+	c #5E7134",
"$+	c #1D3E26",
"%+	c #66826F",
"&+	c #B0BEA0",
"*+	c #999A70",
"=+	c #968C5A",
"-+	c #968E56",
";+	c #8F9357",
">+	c #91905B",
",+	c #B8B493",
"'+	c #96A389",
")+	c #395340",
"!+	c #6E8143",
"~+	c #6D7B43",
"{+	c #919E55",
"]+	c #5B5D43",
"^+	c #15352D",
"/+	c #304843",
"(+	c #ABBBBB",
"_+	c #F0F8F9",
":+	c #F8F3EC",
"<+	c #F4EEE5",
"[+	c #EBEEE5",
"}+	c #ECF2E7",
"|+	c #F2F5E4",
"1+	c #DEE5D3",
"2+	c #637275",
"3+	c #24304F",
"4+	c #1A323C",
"5+	c #8A955C",
"6+	c #849353",
"7+	c #143A2B",
"8+	c #17353C",
"9+	c #CED6D2",
"0+	c #FAF1F9",
"a+	c #FAEFF8",
"b+	c #F5F4FA",
"c+	c #ECF5EB",
"d+	c #F8F5F2",
"e+	c #97A09A",
"f+	c #24414A",
"g+	c #174137",
"h+	c #B6BCCD",
"i+	c #F4F4F4",
"j+	c #E8E9ED",
"k+	c #6F736A",
"l+	c #163F37",
"m+	c #364314",
"n+	c #6A6D3C",
"o+	c #4A5636",
"p+	c #1B3B43",
"q+	c #424749",
"r+	c #DCE1E4",
"s+	c #F3F8F3",
"t+	c #F4F6ED",
"u+	c #8C909C",
"v+	c #1B2724",
"w+	c #153B3A",
"x+	c #193B4B",
"y+	c #1A2E59",
"z+	c #484F6E",
"A+	c #E1E3DE",
"B+	c #FBEFF6",
"C+	c #193942",
"D+	c #6A7534",
"E+	c #15324D",
"F+	c #23396C",
"G+	c #46505E",
"H+	c #8489A0",
"I+	c #2D3758",
"J+	c #1D3957",
"K+	c #1B3734",
"L+	c #78863D",
"M+	c #143343",
"N+	c #1F3471",
"O+	c #263788",
"P+	c #374466",
"Q+	c #6C8C83",
"R+	c #99A1AB",
"S+	c #545D83",
"T+	c #263270",
"U+	c #293879",
"V+	c #152E4F",
"W+	c #4E611B",
"X+	c #2C3B8C",
"Y+	c #2B367A",
"Z+	c #999AA8",
"`+	c #D5D7E2",
" @	c #303E86",
".@	c #7A854C",
"+@	c #628970",
"@@	c #50746C",
"#@	c #84934C",
"$@	c #2B3C85",
"%@	c #4C5475",
"&@	c #C8CDD8",
"*@	c #29356C",
"=@	c #2B3684",
"-@	c #203B63",
";@	c #325159",
">@	c #628B6B",
",@	c #1C3460",
"'@	c #2B399A",
")@	c #4B547A",
"!@	c #949792",
"~@	c #263E8E",
"{@	c #263D92",
"]@	c #233973",
"^@	c #436A56",
"/@	c #6E9377",
"(@	c #636B4B",
"_@	c #2C3B93",
":@	c #2B379E",
"<@	c #293565",
"[@	c #C1C6D5",
"}@	c #797D8B",
"|@	c #2A3572",
"1@	c #616534",
"2@	c #929D63",
"3@	c #6A6E44",
"4@	c #2D3C7B",
"5@	c #57607B",
"6@	c #43487B",
"7@	c #4E6333",
"8@	c #2D36A1",
"9@	c #1E3257",
"0@	c #7C8B4C",
"a@	c #8EA15A",
"b@	c #91975C",
"c@	c #172E54",
"d@	c #5E712D",
"e@	c #53641E",
"f@	c #1A334C",
"g@	c #727A37",
"h@	c #61662D",
"i@	c #2B38A2",
"j@	c #8C9B5C",
"k@	c #2F36A9",
"l@	c #7E9151",
"m@	c #5E713A",
"n@	c #273E7F",
"o@	c #4D5439",
"p@	c #696E35",
"q@	c #444532",
"r@	c #373E16",
"s@	c #3B3E23",
"  . + @ . # $ % & * # @ @ @ . . = = - - ; @ # # > > = ; # , % ' ' - - ) ) - - > ; ; ! - - ~ { $ $ ' + = { ; ! ! @ ; ; ; { = ~ > ",
"  ] ^ ^ / ( _ : < [ < } | 1 1 1 2 3 4 4 ^ ^ 5 5 ^ 6 7 1 8 9 1   0 0 7 a b 4 4 c d ^ e 0 4 0   f g h i j k l 1 m m n ^ n 0 7 o ] ",
"  p q r } s t u v w x y u z A v : r h B C C D D 1 E F G H | I I h h F   r J K k L } | r M   2 N N h k K K O P Q : R S } r r q   ",
"  7 B T U : V W D | P P X Y R S Z 1 2 2 S ` | | 1 r j  . .r I I ....7 J l E m +.@.#.| Z E h a $.$.7 4 %.n l P &.*.[ =.-.| r B F ",
"  c   B h L r D ;.>.Z } v S D U 1 1 h h L q l l l 1 j 4 4 $.,.,.'.'.e E E q k K K } #.).B / !.$.i 6 o ~.k l } : w X {.: < ].D ^.",
"  ^ ^.h 0 $.c ^ _ X w : w A -.T 1 /.  $.h F ^ ^ ^ ^ (.3 a B ,.,.'.'.D : } B F   m m } F F _.f :.<.1 E j @.O : } Z A {.-.[.}.;.e ",
"  ^ r j 3 4 4 h U O w {.s |.1.:.B 3 3 7 h h m ^.h i ^ G 2.2.3.3.4.4.: 5.6._ E n E L B r 1 i q r V 7.z s Z {.8.l E | } : s Z C ` ",
"  n r a 4  .4 4 ).l >.< | 1.i $.4 3 3 h +.h n E j B /.J 2.2.3.3.4.4.: 9.0.v 1 l E T 2 l ^ 4 h r a.0.7.: 1 S v E } } : s -.-.C ` ",
"  n l l J i h a +.k ^.^ ^.0 0 4 b.  1 ^ l 1 j h I I 2.2.c.c.d.d.e.e.f.f.g.g.` D 1 =.h.D ^ 7 ..e s A < 1 1 i i F F : w 0.i.i.r j ",
"  e E m K j.U q   i M 6 M 0 $.$.i i l l U k. .l.I I 2.2.c.c.d.d.e.e.f.f.g.g.m.n.r A o.O l k.q Z p.{.9 r r 0 0 q.k O V r.s.s.G l.",
"  7 ).l E l E E   j 4   0 h ^.^ h 7 n E F F $.$.t.t.u.u.v.v.w.w.x.x.y.y.z.z.h a 2 N -.: l A.8 ` 9 | } B.B 7 $.n n } s C.D.1.l.4 ",
"  E.p.} :   J ^ J 3 0 0 $.      q   d n     4  .t.t.u.u.v.v.w.w.x.x.y.y.z.z.^ $.B p.w O #.Z E.1 1         h k k.k.l D 9 q a l. .",
"F.Y G.-.U H.  ^   3 3 3   ^   B 1 E ^ l l E I.I.J.J.K.K.L.L.M.M.N.N.O.O.P.P.Q.Q.:.9 {.O } ).B a h h h n n E K B.h l ^.^.i 3 3 l.",
"  ( C.x a.` /         i 0 i   q ;.9 o.5.: | I.I.J.J.K.K.L.L.M.M.N.N.O.O.P.P.Q.Q.i 9 R.Z l L i G M ^.K +.k k.E U k.>.S.M $.0 M J ",
"  8 u y A & A.F   ^ k.h h j J ^ 8 R.7.7.y } T.T.U.U.V.V.W.W.X.X.V.V.Y.Y.X.X.Z.Z.q 9 < D E L q n.6 ^ K (.F E l Z Z `./ (.0 $.6  +",
"  / Z O _ ( 9 k.} E E K   +.q   n..+o.5.: O T.T.U.U.V.V.W.W.X.X.V.V.Y.Y.X.X.Z.Z.++@+H G   h i e E } Z S >.l l } Z Z E.l e J     ",
"  n l l _ S w } O l l E   a h i i :.< A } l T.T.U.U.V.V.W.W.X.X.V.V.Y.Y.X.X.Z.Z.a :.:.L $.3 +.^.} : s [ h.} | } O } w S E.1 i j ",
"  $.).j.k.Z #+v #+#.D >.D e i h 3 l.$+$+%+%+&+&+*+*+=+=+-+-+;+;+;+;+>+>+=+=+,+,+'+'+)+)+$.J n ;.#+x x w 8.Z E.=.A O : D.| 1 E e ",
"  7 h q k.| _ !+w P _ S 9 ^   3 l.3 $+$+%+%+&+&+*+*+=+=+-+-+;+;+;+;+>+>+=+=+,+,+'+'+)+)+4 6 E C ~+} | } O } v {+G.| r 1.E 1 E E ",
"  ]+  h h L r O #+v w 1 r   $.^+^+^+/+/+(+(+_+_+:+:+<+<+<+<+[+[+}+}+}+}+|+|+|+|+1+1+2+2+3+3+4+4+E L r C _ O #+C.p.L q h G } R 5+",
"  d G h h h k.} _ S 9 E r q $.^+^+^+/+/+(+(+_+_+:+:+<+<+<+<+[+[+}+}+}+}+|+|+|+|+1+1+2+2+3+3+4+4+^.h   ( >.} #+o.9 i h B | s 6+Y ",
"  0   e J 3 i L k.l k.7+7+7+7+8+8+8+2+2+9+9+0+0+0+0+:+:+:+:+a+a+b+b+c+c+d+d+d+d+c+c+e+e+f+f+4+4+g+g+g+k.).Z } :.h 7   ^ < ~+p.Z ",
"  7 q 1 J 7 4 i k.^ J 7+7+7+7+8+8+8+2+2+9+9+0+0+0+0+:+:+:+:+a+a+b+b+c+c+d+d+d+d+c+c+e+e+f+f+4+4+g+g+g+k L E r B h j   ^ ~+S D E ",
"  n l l J 0 4 3 h g+g+g+g+j   E 1 1 T.T.h+h+_+_+i+i+b+b+0+0+b+b+b+b+b+b+b+b+b+b+j+j+k+k+-.>.A.^ l+l+l+l+l+E / < p.m+q l l l k q.",
"  ^ } U   J $.3 h g+g+g+g+k ^.l w n+T.T.h+h+_+_+i+i+b+b+0+0+b+b+b+b+b+b+b+b+b+b+j+j+k+k+Z _ ;.l l+l+l+l+l+r 1 p.| B ).U E l o+o+",
"  1 U m+).^   p+p+p+p+  J E l Z A ( q+q+r+r+d+d+s+s+t+t+d+d+b+b+b+b+0+0+d+d+i+i+b+b+u+u+v+v+1 l k.(.+.w+w+x+x+T ).D U B.).| n ] ",
"  ` p.*.} ;.E p+p+p+p+h K E E U #+;.q+q+r+r+d+d+s+s+t+t+d+d+b+b+b+b+0+0+d+d+i+i+b+b+u+u+v+v+} } } j.k w+w+x+x+^.K ^.k.*.8.W Z m ",
"  & R } E.^+^+x+x+( 1 F k.E k.y+y+y+z+z+A+A+B+B+d+d+|+|+t+t+0+0+0+0+d+d+:+:+i+i+_+_+u+u+3+3+4+4+l l D E ^.p+p+C+C+B U -.6+[ _ l ",
"  , R.O Z ^+^+x+x+n.r j.K E   y+y+y+z+z+A+A+B+B+d+d+|+|+t+t+0+0+0+0+d+d+:+:+i+i+_+_+u+u+3+3+4+4+k.D E ^.  p+p+C+C+s D+o.R.{.D } ",
"  ` u : -.w+w+F <.a   ^ E E+E+F+F+F+G+G+9+9+a+a+i+i+s+s+s+s+b+b+b+b+s+s+i+i+s+s+j+j+H+H+I+I+J+J+B l } L h 3 $.C+C+K+K+i.D+N 1 } ",
"  < L+G.{.w+w+J p 7   D } E+E+F+F+F+G+G+9+9+a+a+i+i+s+s+s+s+b+b+b+b+s+s+i+i+s+s+j+j+H+H+I+I+J+J+} R S r k.3 $.C+C+K+K+8.s -.| l ",
"  A L+M+M+M+M+^ J j r Z : N+N+O+O+O+P+P+Q+Q+A+A+b+b+b+b+_+_+i+i+b+b+_+_+_+_+s+s+R+R+S+S+T+T+U+U+V+V+V+1 E a $.Z w 8+8+: : | l l ",
"  D V M+M+M+M+F r r } W+5.N+N+O+O+O+P+P+Q+Q+A+A+b+b+b+b+_+_+i+i+b+b+_+_+_+_+s+s+R+R+S+S+T+T+U+U+V+V+V+N ).1 ^ A.>.8+8+} >.` Z E ",
"  l w f+f+l q B.U | -.y L+U+U+X+X+X+Y+Y+I+I+Z+Z+b+b+t+t+i+i+i+i+b+b+i+i+s+s+`+`+z+z+T+T+ @ @X+X+y+y+y+B.B Z /.8 C p+p+3+3+` D l ",
"  ^ } f+f+l D >.A 6+u x s U+U+X+X+X+Y+Y+I+I+Z+Z+b+b+t+t+i+i+i+i+b+b+i+i+s+s+`+`+z+z+T+T+ @ @X+X+y+y+y+6+.@1 r G q p+p+3+3+/   h ",
"  +@+@@@@@l _ A #@0.{.M+M+$@$@X+X+X+X+X+Y+Y+%@%@&@&@s+s+:+:+b+b+b+b+i+i+j+j+Q+Q+*@*@ @ @=@=@X+X+-@-@-@[ [.1 r i h ;@;@Q+Q+^ 4 3 ",
"  +@+@@@@@L U : O s | M+M+$@$@X+X+X+X+X+Y+Y+%@%@&@&@s+s+:+:+b+b+b+b+i+i+j+j+Q+Q+*@*@ @ @=@=@X+X+-@-@-@< < 2 2 a   ;@;@Q+Q+h 4 l.",
"  >@>@>@>@$.r D } Z | ,@,@X+X+X+X+X+'@'@'@'@Y+Y+)@)@R+R+j+j+i+i+a+a+a+a+!@!@*@*@X+X+X+X+~@~@{@{@]@]@]@( m.i j 7 0 ^@^@/@/@m+7 b ",
"  >@>@>@>@l.4 L U | _ ,@,@X+X+X+X+X+'@'@'@'@Y+Y+)@)@R+R+j+j+i+i+a+a+a+a+!@!@*@*@X+X+X+X+~@~@{@{@]@]@]@i   b $.] K ^@^@/@/@8 (@^ ",
"  6 c 4 4 3 4 L U Z E.]@]@X+X+_@_@_@'@'@:@:@_@_@U+U+<@<@%@%@h+h+[@[@`+`+}@}@|@|@'@'@{@{@~@~@'@'@$@$@$@8+8+h   n K F 1.1@C 8 / 6 ",
"  4   ^ J 7 4 q 1 ` E.]@]@X+X+_@_@_@'@'@:@:@_@_@U+U+<@<@%@%@h+h+[@[@`+`+}@}@|@|@'@'@{@{@~@~@'@'@$@$@$@8+8+m ^.F B 1 _ 2@U H.n ^ ",
"  $.      3 0 h H 3@n.]@]@_@_@_@_@_@_@_@_@_@'@'@'@'@_@_@4@4@%@%@5@5@S+S+6@6@ @ @_@_@{@{@X+X+_@_@~@~@~@E+E+E 7@).U } 1@9 :.B     ",
"  6 N m+h $.0 3 @+1 G ]@]@_@_@_@_@_@_@_@_@_@'@'@'@'@_@_@4@4@%@%@5@5@S+S+6@6@ @ @_@_@{@{@X+X+_@_@~@~@~@E+E+l E | | : | 1.2 2 h 7 ",
"  `.9 N q e   h q r $.]@]@'@'@_@_@_@{@{@~@~@{@{@8@8@8@8@ @ @|@|@*@*@T+T+=@=@_@_@X+X+_@_@_@_@_@_@$@$@$@9@9@m Z 0@v s s < H G   0 ",
"  & 0@-.| D   j h   h ]@]@'@'@_@_@_@{@{@~@~@{@{@8@8@8@8@ @ @|@|@*@*@T+T+=@=@_@_@X+X+_@_@_@_@_@_@$@$@$@9@9@Z v a@0@-.D+b@E.1   h ",
"  C t D+s L   e   h h |@|@_@_@~@~@~@~@~@~@~@{@{@_@_@:@:@_@_@X+X+$@$@X+X+{@{@$@$@_@_@'@'@'@'@_@_@4@4@4@c@c@| Z d@v w w .+L B M   ",
"  } w A Z H.k ^ M 3 4 |@|@_@_@~@~@~@~@~@~@~@{@{@_@_@:@:@_@_@X+X+$@$@X+X+{@{@$@$@_@_@'@'@'@'@_@_@4@4@4@c@c@l O e@s A 9 B B j n d ",
"  ~+w Z Z r E ^ M 3 h ]@]@_@_@~@~@~@~@~@~@~@X+X+_@_@_@_@_@_@_@_@'@'@_@_@{@{@$@$@X+X+:@:@'@'@_@_@4@4@4@f@f@~+E.|.*.E.1 h i j 6 d ",
"  S D+y -.} | }   a a ]@]@_@_@~@~@~@~@~@~@~@X+X+_@_@_@_@_@_@_@_@'@'@_@_@{@{@$@$@X+X+:@:@'@'@_@_@4@4@4@f@f@( C Q *.^ ^.3 h j e d ",
"  N x g@o.#@#@6+~+r @+]@]@_@_@~@~@~@~@~@~@~@X+X+_@_@_@_@_@_@_@_@'@'@_@_@{@{@$@$@X+X+:@:@'@'@_@_@4@4@4@f@f@l D | r i 0 $.^.1   h ",
"  :.: g@G.0.i.7.A h@N ]@]@i@i@_@_@_@$@$@$@$@X+X+_@_@_@_@_@_@_@_@_@_@_@_@_@_@X+X+_@_@'@'@X+X+X+X+$@$@$@E+E+} l 1 ^.3 3   n.l h j ",
"  3 2 2 a.R.D+e@8.A 1@]@]@i@i@_@_@_@$@$@$@$@X+X+_@_@_@_@_@_@_@_@_@_@_@_@_@_@X+X+_@_@'@'@X+X+X+X+$@$@$@E+E+L B a 3 0 3 h 1 1 ` _.",
"  3 B q 1 < 9 -.w < 1 ,@,@:@:@'@'@'@X+X+{@{@{@{@~@~@~@~@~@~@{@{@~@~@~@~@~@~@$@$@X+X+_@_@_@_@_@_@X+X+X+E+E+L h a 3 3 7 B } | C 5 ",
"  0 h   q l U T T q ++,@,@:@:@'@'@'@X+X+{@{@{@{@~@~@~@~@~@~@{@{@~@~@~@~@~@~@$@$@X+X+_@_@_@_@_@_@X+X+X+E+E+1 ^.a h $.G 1 R j@R ` ",
"    q h   ^ k.T L i ++J+J+P+P+_@_@_@'@'@'@'@{@{@~@~@{@{@{@{@X+X+{@{@{@{@_@_@=@=@_@_@k@k@8@8@{@{@-@-@-@2 L n.^.a i i   Z l@j@X A.",
"  E E E   F } ` ^ l.f J+J+P+P+_@_@_@'@'@'@'@{@{@~@~@{@{@{@{@X+X+{@{@{@{@_@_@=@=@_@_@k@k@8@8@{@{@-@-@-@1 r a i 1 r B.L O y y O | ",
"  l }   K   } | ^.).w !+m@E+E+-@-@-@n@n@X+X+$@$@X+X+X+X+_@_@_@_@_@_@_@_@:@:@ @ @X+X+8@8@O+O+J+J+7+7+7+p.E.a  .o@M k.k.D n ] c M ",
"  } ).m+k S.q B   D Z } #.E+E+-@-@-@n@n@X+X+$@$@X+X+X+X+_@_@_@_@_@_@_@_@:@:@ @ @X+X+8@8@O+O+J+J+7+7+7+S ` j 3 7 B } V 0@Z E 0 (.",
"  S 8.U M p 0 4   ^.U U } Z D w r.7.M+M+9@9@*@*@*@*@*@*@|@|@|@|@|@|@|@|@|@|@*@*@,@,@c@c@M+M+.@p@Z U r / ^  .4 H.1..@R.: ).L 0 j ",
"  2@G.O k.j 7 0   l U T U l } s r.2@M+M+9@9@*@*@*@*@*@*@|@|@|@|@|@|@|@|@|@|@*@*@,@,@c@c@M+M+5+w : Q *.E n.J  .j r 2@=.U h h 0 4 ",
"  < 8.y :   h h q 1 N ).k.).r s t 9 4 3 o@M K E D D k m ;.D E E L k.K K e k L l l ).q k.^.E.a.D+w U U r   3 l.4 0 f C r 3 ..q@q@",
"  C x e@x : B H.h | | } T 2 Z R.D.D.a 7 c ^.^.r ).k.L l ;._ } T B.).K E d ~.7 0   h h M M i Q R.v : U r r r@b 4 $.1 1 r 7 7 4 4 ",
"  o@k.U 8.[.1@H $.h r ^.k.n ^.r 9 9 1.q B L | O : U _ | T U T U *.} O *.T r T N s w _ Z } ).G r k.k.E i   6 J b B -.s {.| ^.  i ",
"  q@o@  >.& / e p 7 M e ] ] o@  _.( k.e 7 7 E } l J % /.F h L e k.l l L B.r N s -.{.< Z } k.6   0 ] d 7 ..]+c s@3 l E.S D ^ M $."};
