/* XPM */
static char *player_f[] = {
/* columns rows colors chars-per-pixel */
"31 32 183 2 ",
"   c #1A301F",
".  c #0E2F2C",
"X  c #142C28",
"o  c #13312A",
"O  c #173126",
"+  c #112B36",
"@  c #122B3B",
"#  c #1A293B",
"$  c #1D3332",
"%  c #16333B",
"&  c #19323F",
"*  c #163A3F",
"=  c #1B3C3B",
"-  c #1F3A34",
";  c #203939",
":  c #632F0E",
">  c #2D443B",
",  c #52591A",
"<  c #644E2D",
"1  c #567130",
"2  c #6C7D2C",
"3  c #767925",
"4  c #142341",
"5  c #1D2F45",
"6  c #153542",
"7  c #1C3646",
"8  c #15334D",
"9  c #1E364C",
"0  c #183B43",
"q  c #1E2C59",
"w  c #1D395D",
"e  c #1A3657",
"r  c #253841",
"t  c #22325C",
"y  c #263451",
"u  c #1F2D60",
"i  c #1D3865",
"p  c #212D62",
"a  c #262C6E",
"s  c #2A3268",
"d  c #2B3668",
"f  c #32346E",
"g  c #232C73",
"h  c #243673",
"j  c #253C74",
"k  c #2A3975",
"l  c #2A3A7B",
"z  c #253B7B",
"x  c #32377B",
"c  c #39404B",
"v  c #2C4354",
"b  c #3D4357",
"n  c #264B45",
"m  c #3C6347",
"M  c #34466E",
"N  c #3C4364",
"B  c #40435C",
"V  c #4D5A5A",
"C  c #406958",
"Z  c #454C65",
"A  c #54567F",
"S  c #49556C",
"D  c #5E6765",
"F  c #55657D",
"G  c #516675",
"H  c #537071",
"J  c #567D79",
"K  c #6B6D69",
"L  c #6A7C63",
"P  c #657267",
"I  c #696D78",
"U  c #6A757D",
"Y  c #75787B",
"T  c #B7721F",
"R  c #907E3D",
"E  c #BF7F35",
"W  c #DD5D1A",
"Q  c #C2671D",
"!  c #D2661A",
"~  c #847E79",
"^  c #7E8519",
"/  c #55845D",
"(  c #6B8B5F",
")  c #7C8F62",
"_  c #7B916A",
"`  c #628F7D",
"'  c #639277",
"]  c #7A8276",
"[  c #808E2B",
"{  c #998823",
"}  c #B88839",
"|  c #AC842D",
" . c #C69230",
".. c #E39F2C",
"X. c #CFB439",
"o. c #E6B32D",
"O. c #E0A038",
"+. c #D1C33F",
"@. c #DDD338",
"#. c #E0C332",
"$. c #8A956D",
"%. c #809271",
"&. c #C8B847",
"*. c #D8C145",
"=. c #2C3782",
"-. c #253C84",
";. c #2B3C83",
":. c #2C3C8C",
">. c #213F8D",
",. c #263D92",
"<. c #293C93",
"1. c #263C99",
"2. c #2A3A9A",
"3. c #303A91",
"4. c #2E38A7",
"5. c #636686",
"6. c #6F7A8D",
"7. c #78798B",
"8. c #747994",
"9. c #588385",
"0. c #68808D",
"q. c #7B8283",
"w. c #7E9985",
"e. c #6B99A7",
"r. c #79A4AA",
"t. c #64A2B1",
"y. c #7BB2C3",
"u. c #888B86",
"i. c #91958C",
"p. c #889597",
"a. c #90929A",
"s. c #8992A0",
"d. c #9496A5",
"f. c #9097A9",
"g. c #A6ABAE",
"h. c #ADAEBA",
"j. c #ACB5B8",
"k. c #B9B8B3",
"l. c #B3B5BB",
"z. c #B5B7B7",
"x. c #A3C0BF",
"c. c #B6C7B5",
"v. c #C2C8B9",
"b. c #96BED2",
"n. c #8BC8CF",
"m. c #9BCDCC",
"M. c #9CCCC4",
"N. c #99C9D5",
"B. c #93D2DB",
"V. c #A1C5C9",
"C. c #A2D5DF",
"Z. c #B3DEDB",
"A. c #9ADBE6",
"S. c #A7D0E3",
"D. c #BBDCE6",
"F. c #BBD6E8",
"G. c #C3C4C7",
"H. c #C8C9CA",
"J. c #D0D4CF",
"K. c #D3CFD2",
"L. c #CAD5D6",
"P. c #DADBDE",
"I. c #D9DCE2",
"U. c #D7ECED",
"Y. c #CCECF4",
"T. c #C3ECF6",
"R. c #DEECF0",
"E. c #E6E6EB",
"W. c #E4E8EB",
"Q. c #ECEDED",
"!. c #ECE9E8",
"~. c #EFF7E9",
"^. c #F2F3EC",
"/. c #F4F5E4",
"(. c #EAECF0",
"). c #E4EDF3",
"_. c #ECF5F4",
"`. c #EAF4F8",
"'. c #F5F4F4",
"]. c #F8F4F1",
"[. c #F4F5F9",
"{. c #F5F9FA",
"}. c None",
/* pixels */
"}.}.}.}.}.}.}.}.}.}.}.}.}.}.}.}.}.}.}.}.}.}.}.}.}.}.}.}.}.}.}.",
"}.}.}.}.}.}.}.}.}.}.}.}.}.}.}.1 }.}.}.}.}.}.}.}.}.}.}.}.}.}.}.",
"}.}.}.}.}.}.}.}.}.}.}.}.}.}.}.[ }.}.}.}.}.}.}.}.}.}.}.}.}.}.}.",
"}.}.}.}.}.}.}.}.}.}.}.}.}.}.^ @.^ }.}.}.}.}.}.}.}.}.}.}.}.}.}.",
"}.}.}.}.}.}.}.}.}.}.}.}.2 , | o.{ , 2 }.}.}.}.}.}.}.}.}.}.}.}.",
"}.}.}.}.}.}.}.}.}.}.}.}.{ { E ! | R | }.}.}.}.}.}.}.}.}.}.}.}.",
"}.}.}.}.}.}.}.}.}.}.}.: T @...W O.*.! : }.}.}.}.}.}.}.}.}.}.}.",
"}.}.}.}.}.}.}.}.}.}.}.< } X.X. .&.&. .< }.}.}.}.}.}.}.}.}.}.}.",
"}.}.}.}.}.}.}.}.}.> p.c.%.$.) ( _ $._ c.i.r }.}.}.}.}.}.}.}.}.",
"}.}.}.}.}.}.}.# $ V L.U.V.x.Z.A.D.x.m.Y.L.V $ O }.}.}.}.}.}.}.",
"}.}.}.}.}.}.; y y j._.D.r.9.n.A.b.6.r.D.`.g.r ; r }.}.}.}.}.}.",
"}.}.}.}.}.6 v P i.E.R.F.S.y.t.B.e.y.A.F.W.!.a.P r * }.}.}.}.}.",
"}.}.}.}.0 0 }.L v./.R.).Y.B.9.M.J N.T.).!.'.V.L }.= = }.}.}.}.",
"}.}.}.% * }.}.X u./._.'.L.p.H m.H p.L.^.].[.u.  }.}.6 8 }.}.}.",
"}.}.7 9 }.}.}.# 7./.^.z.~ K G N.F K ] k.^.'.U X }.}.}.7 - }.}.",
"}.}.& & }.}.}.p 7./.].z.u.h.p.6.s.j.u.k.]._.6.7 }.}.}.o 7 }.}.",
"}.n = }.}.}.& g 8.^.'.'.(.{.g.D g.{.Q.^.].'.8.p # }.}.}.y - }.",
"}.` C }.}.}.7 =.A I.'.'.'.{.H.Y H.{.].^.].I.S l 9 }.}.}.v }.}.",
"}.' / }.}.}.w :.f l.Q.'.'.'.Q.z.Q.'.^.].!.l.d =.t }.}.}.m }.}.",
"}.}.}.}.}.}.k 3.a U J.{.].'.'.].^.].].{.K.I t :.k o }.}.}.}.}.",
"}.}.}.}.}.+ ;.:.g b a.Q.'.'.].'.].[.'.E.a.N h <.l + }.}.}.}.}.",
"}.}.}.}.}.@ ;.:.3.q B U.{.'.'.'.{.[.[.P.Z u -.2.=.4 }.}.}.}.}.",
"}.}.}.}.}.@ l :.<.;.d f.).[.'.].'.[.).d.s ;.>.<.=.4 }.}.}.}.}.",
"}.}.}.}.}.# l <.1.2.;.N l.W.(.].Q.E.h.B x <.,.1.=.# }.}.}.}.}.",
"}.}.}.}.}.o l 2.2.:.:.s 5.d.G.G.G.d.5.s <.<.,.<.l @ }.}.}.}.}.",
"}.}.}.}.}.. l 4.2.;.:.;.j M F G F M l :.<.:.:.2.z @ }.}.}.}.}.",
"}.}.}.}.}.}.i 2.2.<.2.1.,.-.k h k -.,.1.<.<.<.:.w }.}.}.}.}.}.",
"}.}.}.}.}.}.}.i j >.2.1.<.<.:.:.:.<.<.1.<.<.-.w }.}.}.}.}.}.}.",
"}.}.}.}.}.}.}.}.% 0 i k l l l l k k k k w 8 8 }.}.}.}.}.}.}.}.",
"}.}.}.}.}.}.}.}.}.}.}.}.}.}.}.}.}.}.}.}.}.}.}.}.}.}.}.}.}.}.}.",
"}.}.}.}.}.}.}.}.}.}.}.}.}.}.}.}.}.}.}.}.}.}.}.}.}.}.}.}.}.}.}.",
"}.}.}.}.}.}.}.}.}.}.}.}.}.}.}.}.}.}.}.}.}.}.}.}.}.}.}.}.}.}.}."
};
