/* XPM */
static char *player_r[] = {
/* columns rows colors chars-per-pixel */
"26 32 197 2 ",
"   c #153638",
".  c #152E32",
"X  c #20343E",
"o  c #413509",
"O  c #3F681B",
"+  c #2B422D",
"@  c #385E3F",
"#  c #354B2C",
"$  c #474507",
"%  c #52711B",
"&  c #656E18",
"*  c #404727",
"=  c #5A6E26",
"-  c #1A1F49",
";  c #131B42",
":  c #1D1F59",
">  c #192048",
",  c #172748",
"<  c #16304C",
"1  c #183747",
"2  c #1B235D",
"3  c #18255B",
"4  c #1D3453",
"5  c #1D3A55",
"6  c #232448",
"7  c #2A324B",
"8  c #283558",
"9  c #3B3E57",
"0  c #262853",
"q  c #1D2C62",
"w  c #1B2768",
"e  c #1E326C",
"r  c #1F3066",
"t  c #172E70",
"y  c #1E3E7B",
"u  c #202B6B",
"i  c #2A2C6A",
"p  c #213564",
"a  c #2D3764",
"s  c #2A356C",
"d  c #213B6E",
"f  c #243968",
"g  c #363F65",
"h  c #262F71",
"j  c #203474",
"k  c #2B3475",
"l  c #253B74",
"z  c #2A3B76",
"x  c #21337A",
"c  c #2D357A",
"v  c #2C397D",
"b  c #303779",
"n  c #3A5E44",
"m  c #3A4857",
"M  c #364468",
"N  c #2C4179",
"B  c #374074",
"V  c #454C4F",
"C  c #5A585D",
"Z  c #4A694A",
"A  c #53694B",
"S  c #5A7C4E",
"D  c #4A625D",
"F  c #5A7C52",
"G  c #687A56",
"H  c #4B4F78",
"J  c #515571",
"K  c #506D65",
"L  c #606F72",
"P  c #727872",
"I  c #627864",
"U  c #C16217",
"Y  c #807D7B",
"T  c #6B872F",
"R  c #7C8220",
"E  c #688557",
"W  c #678F74",
"Q  c #7C8B77",
"!  c #878319",
"~  c #8E8421",
"^  c #949A2F",
"/  c #B29E3F",
"(  c #AFB526",
")  c #B2B722",
"_  c #B4A23D",
"`  c #C0A31F",
"'  c #CD8B31",
"]  c #C59F34",
"[  c #CB9426",
"{  c #C1A420",
"}  c #DBAD29",
"|  c #C3B930",
" . c #C7A63B",
".. c #EBB728",
"X. c #E1DD2F",
"o. c #F2D324",
"O. c #E9DE3E",
"+. c #E4C63A",
"@. c #FFE52A",
"#. c #FBF524",
"$. c #958F45",
"%. c #BC8843",
"&. c #9DA441",
"*. c #808C6A",
"=. c #989569",
"-. c #8D9770",
";. c #A29575",
":. c #C7BC40",
">. c #C9A941",
",. c #263A83",
"<. c #2A3D85",
"1. c #263E8D",
"2. c #2A3C8C",
"3. c #2E3684",
"4. c #313C88",
"5. c #313B87",
"6. c #2B3791",
"7. c #263C92",
"8. c #2B3A93",
"9. c #2B399A",
"0. c #2C3798",
"q. c #2935A3",
"w. c #244185",
"e. c #23408E",
"r. c #4A5E94",
"t. c #5B5982",
"y. c #597B81",
"u. c #50669D",
"i. c #666C87",
"p. c #5D74A5",
"a. c #799C81",
"s. c #778389",
"d. c #7E86A3",
"f. c #8B8A88",
"g. c #93918B",
"h. c #948E9C",
"j. c #989D98",
"k. c #86A289",
"l. c #94A889",
"z. c #8BA599",
"x. c #A2BA91",
"c. c #928FA2",
"v. c #8E99A5",
"b. c #9899A4",
"n. c #9399B1",
"m. c #88A6A0",
"M. c #9EA5AE",
"N. c #99ACA1",
"B. c #93BCAC",
"V. c #8CB2BB",
"C. c #9AA3B9",
"Z. c #ADB1AA",
"A. c #BAB9B7",
"S. c #9DC1B2",
"D. c #BCC2BB",
"F. c #D5CCBF",
"G. c #C4D1BD",
"H. c #C5CCB8",
"J. c #97B0D9",
"K. c #AEBDCC",
"L. c #A0BFD7",
"P. c #B6B9CE",
"I. c #AFD9E5",
"U. c #B1DFE1",
"Y. c #C6CCC7",
"T. c #CBD9C3",
"R. c #CECDD4",
"E. c #CDC7D8",
"W. c #CAD7D6",
"Q. c #D3DEDC",
"!. c #D3DAD6",
"~. c #D5D6C5",
"^. c #C1E0DD",
"/. c #DDE4DC",
"(. c #E6EBDC",
"). c #D9DDE0",
"_. c #C1D7E9",
"`. c #D0E3ED",
"'. c #D1E9F0",
"]. c #E1E9E1",
"[. c #E9E5EA",
"{. c #E9F2ED",
"}. c #E5F4E6",
"|. c #F3F5EE",
" X c #F2FAEE",
".X c #EAECF1",
"XX c #F3EFF1",
"oX c #FCEEF9",
"OX c #ECF5F1",
"+X c #ECF9F9",
"@X c #E6F4F3",
"#X c #F4F5F5",
"$X c #FAF2F5",
"%X c #F5F4FA",
"&X c #FBF3FB",
"*X c #F6F8F6",
"=X c None",
/* pixels */
"=X=X=X=X=X=X=X=X=X=X=X=X=X=X=X=XO =X=X=X=X=X=X=X=X=X",
"=X=X=X=X=X=X=X=X=X=X=X=X=X=X=X% T =X=X=X=X=X=X=X=X=X",
"=X=X=X=X=X=X=X=X=X=X=X=X=X% =X$.&.=X=X=X=X=X=X=X=X=X",
"=X=X=X=X=X=X=X=X=X=X= = & ^ & %._ =X=X=X=X=X=X=X=X=X",
"=X=X=X=X=X=X=X=X=X=XR ^ ! O.~ +. .$ =X=X=X=X=X=X=X=X",
"=X=X=X=X=X=X=X=X=X=X) X.{ } { o.[ $ =X=X=X=X=X=X=X=X",
"=X=X=X=X=X=X=X=X=X=X( #...U ..@.' o =X=X=X=X=X=X=X=X",
"=X=X=X=X=X=X=X=X=XQ &.|  .%.>.:.$.# =X=X=X=X=X=X=X=X",
"=X=X=X=X=X=X=X=Xl./.F.;.=.=.=.-.a.S.a.=X=X=X=X=X=X=X",
"=X=X=X=X=XE l.T.|.+XoXoX X}.}.OXU.I.z.=X=X=X=X=X=X=X",
"=X=X=X=Xx.(.|.$X|.+X%XoX).n.i.E.'.I.y.@ =X=X=X=X=X=X",
"=X=X=XE T.%XoXoX|.+XQ.Z.C 6 s t.E.I.V.B.W n =X=X=X=X",
"=X=X=XA T.&XoX&X$X{.Q.L 6 : x e i.`.'.W.m.K D =X=X=X",
"=X=X=XQ .X&X$X#X&X(.*.M : h t y a K.+X@XW.V + =X=X=X",
"=X=XE G.&X%X#X X.XY.V ; k w u <.e n.@XA.f.P A =X=X=X",
"=X=X=XH.&X%X X{.C.J 9 : z w 3.3.,.H E.g.Y g.*.=X=X=X",
"=X=XG ~.&X%X.XM.B c 3 w x : 6.2.6.s b.Q.R.|.(.F =X=X",
"=X=Xk.#X[.P.i.g c 4.8 w z 3 2.<.7.b J Q.*X$X/.F =X=X",
"=X=Xj.OXv.a c b 2.4.p u r.e 2.1.6.3.8 Y.&X$XD.=X=X=X",
"=X=XI W.d.k 4.8.8.2.e p.J.N ,.w.7.6.a m.!.&Xj.=X=X=X",
"=X=X# s.M v 8.0.8.8.j u.p.d w.,.7.0.q 7 M.].Z.=X=X=X",
"=X=X=Xm z w.2.8.6.7.<.x j N 2.2.7.9.<.4 9 b.!.F =X=X",
"=X=X=X8 e.e.e.0.8.7.2.2.2.2.4.8.8.9.1.z 0 h.(.F =X=X",
"=X=XX v e.e.2.9.8.7.8.6.8.8.8.8.8.7.7.2.i h.(.F =X=X",
"=X=X, 8.8.1.7.q.8.8.8.8.0.0.8.8.8.2.e.7.u h./.Z =X=X",
"=X=X< ,.7.2.8.9.0.8.8.8.8.8.8.8.8.e.e.2.k i.N.=X=X=X",
"=X=X< 1.8.2.<.1.e.e.e.e.8.e.e.e.e.e.7.9.2.s D =X=X=X",
"=X=X1 ,.0.8.w.2.2.e.7.2.2.8.e.8.2.2.9.q.8.p . =X=X=X",
"=X=X=X5 z <.2.8.8.2.8.8.8.8.8.8.8.2.8.2.d 1 =X=X=X=X",
"=X=X=X=X  5 N v 3.v v v v v v 3.b z p 1   =X=X=X=X=X",
"=X=X=X=X=X=X=X, > > > > > > - > > . =X=X=X=X=X=X=X=X",
"=X=X=X=X=X=X=X=X=X=X=X=X=X=X=X=X=X=X=X=X=X=X=X=X=X=X"
};
