/* XPM */
static char *player_b[] = {
/* columns rows colors chars-per-pixel */
"32 31 155 2 ",
"   c #1B2724",
".  c #15352D",
"X  c #143A2B",
"o  c #1D3E26",
"O  c #163F37",
"+  c #17353C",
"@  c #1A323C",
"#  c #153B3A",
"$  c #1B3734",
"%  c #5F2917",
"&  c #633C0F",
"*  c #174137",
"=  c #574E1A",
"-  c #566917",
";  c #7E751A",
":  c #5F4520",
">  c #73492B",
",  c #586D25",
"<  c #5F7323",
"1  c #6B7530",
"2  c #152E4F",
"3  c #143343",
"4  c #1B3B43",
"5  c #15324D",
"6  c #1A334C",
"7  c #193B4B",
"8  c #193942",
"9  c #172E54",
"0  c #1A2E59",
"q  c #1D3957",
"w  c #1E3257",
"e  c #24304F",
"r  c #2D3758",
"t  c #182F60",
"y  c #1C3460",
"u  c #1F3471",
"i  c #203B63",
"p  c #29356C",
"a  c #23396C",
"s  c #293565",
"d  c #263270",
"f  c #2A3572",
"g  c #233973",
"h  c #2B367A",
"j  c #273E7F",
"k  c #2D3C7B",
"l  c #293879",
"z  c #24414A",
"x  c #304843",
"c  c #395340",
"v  c #325159",
"b  c #374466",
"n  c #424749",
"m  c #46505E",
"M  c #436A56",
"N  c #484F6E",
"B  c #464B65",
"V  c #43487B",
"C  c #4C5475",
"Z  c #4B547A",
"A  c #50746C",
"S  c #57607B",
"D  c #6F736A",
"F  c #637275",
"G  c #9D5523",
"H  c #886926",
"J  c #837522",
"K  c #A57D2F",
"L  c #A8703E",
"P  c #D95A2C",
"I  c #D27028",
"U  c #768032",
"Y  c #628B6B",
"T  c #66826F",
"R  c #628970",
"E  c #6E9377",
"W  c #93881C",
"Q  c #929528",
"!  c #B69928",
"~  c #A9903F",
"^  c #CA8923",
"/  c #DA8626",
"(  c #D18430",
")  c #D3933D",
"_  c #D7B928",
"`  c #D6A830",
"'  c #D8B731",
"]  c #E2BE2C",
"[  c #C9C337",
"{  c #DDC73A",
"}  c #E0CF3F",
"|  c #968C5A",
" . c #968E56",
".. c #8F9357",
"X. c #8C9359",
"o. c #91905B",
"O. c #999A70",
"+. c #D8AA42",
"@. c #DBC244",
"#. c #2B3684",
"$. c #2B3C85",
"%. c #263788",
"&. c #263E8E",
"*. c #2C3B8C",
"=. c #303E86",
"-. c #263D92",
";. c #2C3B93",
":. c #2B399A",
">. c #2B379E",
",. c #2D36A1",
"<. c #2B38A2",
"1. c #2F36A9",
"2. c #585E80",
"3. c #545D83",
"4. c #797D8B",
"5. c #6C8C83",
"6. c #878B99",
"7. c #8C909C",
"8. c #949792",
"9. c #96A389",
"0. c #97A09A",
"q. c #B8B493",
"w. c #8489A0",
"e. c #999AA8",
"r. c #99A1AB",
"t. c #B0BEA0",
"y. c #ABBBBB",
"u. c #B5B9BF",
"i. c #B6BCCD",
"p. c #C8CDD8",
"a. c #C1C6D5",
"s. c #CED6D2",
"d. c #D7D8DB",
"f. c #DEE5D3",
"g. c #E1E3DE",
"h. c #D5D7E2",
"j. c #DCE1E4",
"k. c #EBEEE5",
"l. c #E8E9ED",
"z. c #F4EEE5",
"x. c #ECF2E7",
"c. c #ECF5EB",
"v. c #F2F5E4",
"b. c #F4F6ED",
"n. c #F8F3EC",
"m. c #F2F9EC",
"M. c #FBEFF6",
"N. c #FAEFF8",
"B. c #F4F4F4",
"V. c #F8F5F2",
"C. c #F3F8F3",
"Z. c #F5F4FA",
"A. c #FAF1F9",
"S. c #F0F8F9",
"D. c None",
/* pixels */
"D.D.D.D.D.D.D.D.D.D.D.D.D.D.D.D.D.D.D.D.D.D.D.D.D.D.D.D.D.D.D.D.",
"D.D.D.D.D.D.D.D.D.D.D.D.D.D.D.< D.D.D.D.D.D.D.D.D.D.D.D.D.D.D.D.",
"D.D.D.D.D.D.D.D.D.D.D.D.D.D.D.U , D.D.D.D.D.D.D.D.D.D.D.D.D.D.D.",
"D.D.D.D.D.D.D.D.D.D.D.D.D.D.- [ Q D.D.D.D.D.D.D.D.D.D.D.D.D.D.D.",
"D.D.D.D.D.D.D.D.D.D.D.D.< - ; ] ! = 1 D.D.D.D.D.D.D.D.D.D.D.D.D.",
"D.D.D.D.D.D.D.D.D.D.D.D.J W K I ^ H ~ D.D.D.D.D.D.D.D.D.D.D.D.D.",
"D.D.D.D.D.D.D.D.D.D.D.% G _ ` P / ' ( & D.D.D.D.D.D.D.D.D.D.D.D.",
"D.D.D.D.D.D.D.D.D.D.D.: L +.{ ) +.} ) > D.D.D.D.D.D.D.D.D.D.D.D.",
"D.D.D.D.D.D.D.D.D.o T t.O.|  .....o.| q.9.c D.D.D.D.D.D.D.D.D.D.",
"D.D.D.D.D.D.D.D.. x y.S.n.z.z.k.x.x.v.v.f.F e @ D.D.D.D.D.D.D.D.",
"D.D.D.D.D.D.X X + F s.A.A.n.n.N.Z.c.V.V.c.0.z @ * D.D.D.D.D.D.D.",
"D.D.D.D.D.* * D.D.: i.S.B.Z.A.Z.Z.Z.Z.Z.l.D D.D.O O D.D.D.D.D.D.",
"D.D.D.D.4 4 D.D.D.n j.V.C.b.V.Z.Z.A.V.B.Z.7.  D.D.# 7 D.D.D.D.D.",
"D.D.D.. 7 D.D.D.0 N g.M.V.v.b.A.A.V.n.B.S.7.e @ D.D.4 8 D.D.D.D.",
"D.D.D.# D.D.D.5 a m s.N.B.C.C.Z.Z.C.B.C.l.w.r q D.D.D.8 $ D.D.D.",
"D.D.3 3 D.D.D.u %.b 5.g.Z.Z.S.B.Z.S.S.C.r.3.d l 2 D.D.D.+ D.D.D.",
"D.D.z D.D.D.D.l *.h r e.Z.b.B.B.Z.B.C.h.N d =.*.0 D.D.D.4 e D.D.",
"D.R A D.D.D.3 $.*.*.h C p.C.n.Z.Z.B.l.5.p =.#.*.i D.D.D.v 5.D.D.",
"D.Y Y D.D.D.y *.*.:.:.h Z r.l.B.N.N.8.p *.*.&.-.g D.D.D.M E D.D.",
"D.D.D.D.D.D.g *.;.:.>.;.l s C i.a.h.4.f :.-.&.:.$.+ D.D.D.D.D.D.",
"D.D.D.D.D.D.g ;.;.;.;.:.:.;.k C S 3.V =.;.-.*.;.&.5 D.D.D.D.D.D.",
"D.D.D.D.D.D.g :.;.-.&.-.,.,.=.f p d #.;.*.;.;.;.$.w D.D.D.D.D.D.",
"D.D.D.D.D.D.f ;.&.&.&.-.;.>.;.*.$.*.-.$.;.:.:.;.k 9 D.D.D.D.D.D.",
"D.D.D.D.D.D.g ;.&.&.&.*.;.;.;.;.:.;.-.$.*.>.:.;.k 6 D.D.D.D.D.D.",
"D.D.D.D.D.D.g <.;.$.$.*.;.;.;.;.;.;.;.*.;.:.*.*.$.5 D.D.D.D.D.D.",
"D.D.D.D.D.D.y >.:.*.-.-.&.&.&.-.&.&.&.$.*.;.;.;.*.5 D.D.D.D.D.D.",
"D.D.D.D.D.D.q b ;.:.:.-.&.-.-.*.-.-.;.#.;.1.,.-.i D.D.D.D.D.D.D.",
"D.D.D.D.D.D.D.5 i j *.$.*.*.;.;.;.;.>.=.*.,.%.q X D.D.D.D.D.D.D.",
"D.D.D.D.D.D.D.D.D.3 w p p p f f f f f p y 9 3 D.D.D.D.D.D.D.D.D.",
"D.D.D.D.D.D.D.D.D.D.D.D.D.D.D.D.D.D.D.D.D.D.D.D.D.D.D.D.D.D.D.D.",
"D.D.D.D.D.D.D.D.D.D.D.D.D.D.D.D.D.D.D.D.D.D.D.D.D.D.D.D.D.D.D.D."
};
