/* XPM */
static char *player_l[] = {
/* columns rows colors chars-per-pixel */
"24 32 177 2 ",
"   c #1A3C17",
".  c #181C34",
"X  c #142D3D",
"o  c #153339",
"O  c #283C2F",
"+  c #54220C",
"@  c #402110",
"#  c #4A6C1B",
"$  c #59651E",
"%  c #767F1B",
"&  c #587A20",
"*  c #677E20",
"=  c #151F4B",
"-  c #181F54",
";  c #1F204B",
":  c #1B3743",
">  c #19334F",
",  c #19255B",
"<  c #1B2B5B",
"1  c #192A57",
"2  c #173252",
"3  c #1C3758",
"4  c #33314C",
"5  c #202D5B",
"6  c #203155",
"7  c #283A53",
"8  c #172862",
"9  c #1F326C",
"0  c #1F2B74",
"q  c #2D2E60",
"w  c #2B366C",
"e  c #243D6A",
"r  c #2A396C",
"t  c #283560",
"y  c #373E6D",
"u  c #202C74",
"i  c #233472",
"p  c #2A3374",
"a  c #233B76",
"s  c #2A3A74",
"d  c #27377B",
"f  c #2B337D",
"g  c #233B7D",
"h  c #2D387D",
"j  c #303A7F",
"k  c #3C4457",
"l  c #3C486C",
"z  c #2D4372",
"x  c #31487B",
"c  c #50534B",
"v  c #424C57",
"b  c #5B635C",
"n  c #56715A",
"m  c #446846",
"M  c #65785B",
"N  c #43496A",
"B  c #4B516F",
"V  c #4A5077",
"C  c #555F77",
"Z  c #566562",
"A  c #5C776E",
"S  c #5E6F7A",
"D  c #646672",
"F  c #757C72",
"G  c #A27D2F",
"H  c #BB7C28",
"J  c #CD7E31",
"K  c #6B801D",
"L  c #75831D",
"P  c #6D8628",
"I  c #6B8B5D",
"U  c #718768",
"Y  c #67897E",
"T  c #7A8C79",
"R  c #7E8676",
"E  c #919F1D",
"W  c #A5961D",
"Q  c #BFBD1F",
"!  c #8D8C27",
"~  c #928A20",
"^  c #929720",
"/  c #878937",
"(  c #96863F",
")  c #B78A22",
"_  c #A9B235",
"`  c #BDB830",
"'  c #C78616",
"]  c #DBB725",
"[  c #E9BB3A",
"{  c #ECCA3A",
"}  c #E6D839",
"|  c #F8DB3C",
" . c #F5E439",
".. c #8D8645",
"X. c #949449",
"o. c #809479",
"O. c #8CA777",
"+. c #243785",
"@. c #2C3C84",
"#. c #263E8D",
"$. c #2B3C8C",
"%. c #293788",
"&. c #303984",
"*. c #313889",
"=. c #2A3796",
"-. c #253D93",
";. c #2A3B93",
":. c #2B399B",
">. c #284084",
",. c #385081",
"<. c #435886",
"1. c #4A6299",
"2. c #53699D",
"3. c #626A8A",
"4. c #7D7D84",
"5. c #747688",
"6. c #707194",
"7. c #7E8F82",
"8. c #799B96",
"9. c #7B8498",
"0. c #888888",
"q. c #8F978D",
"w. c #909C8C",
"e. c #899596",
"r. c #959998",
"t. c #89A28B",
"y. c #96A08E",
"u. c #92B084",
"i. c #9195AB",
"p. c #A2A6A8",
"a. c #ADB8B7",
"s. c #B6C490",
"d. c #BDC9B6",
"f. c #C4D5BB",
"g. c #99B5C4",
"h. c #B4BDC6",
"j. c #9BB5E5",
"k. c #C0BBC0",
"l. c #AAC8C9",
"z. c #BFCBC8",
"x. c #A6D2DC",
"c. c #AED7E4",
"v. c #BDDEE5",
"b. c #C6C5CE",
"n. c #CAD2C9",
"m. c #D4D9CD",
"M. c #CBD2D2",
"N. c #DADCD3",
"B. c #D3DBDD",
"V. c #D6D5D8",
"C. c #E5DCDD",
"Z. c #D3E3CD",
"A. c #DEE1CE",
"S. c #DFE0D9",
"D. c #D9DBE4",
"F. c #E0DFE3",
"G. c #C8E5ED",
"H. c #DAE2E6",
"J. c #DEEFF2",
"K. c #E1E1E0",
"L. c #E5ECE3",
"P. c #E3EDEE",
"I. c #ECEBEC",
"U. c #E2E2EC",
"Y. c #F5F4ED",
"T. c #F2FAEC",
"R. c #F9EFF5",
"E. c #F6EFF8",
"W. c #EFF3F4",
"Q. c #ECF7F7",
"!. c #F5F6F0",
"~. c #FAF5F4",
"^. c #F5F8F3",
"/. c #F7F5FA",
"(. c #FAF3FA",
"). c #EAF4E6",
"_. c None",
/* pixels */
"_._._._._._._._._._._._._._._._._._._._._._._._.",
"_._._._._._._._.# _._._._._._._._._._._._._._._.",
"_._._._._._._._.P K _._._._._._._._._._._._._._.",
"_._._._._._._._.^ E _.& _._._._._._._._._._._._.",
"_._._._._._._._.W Q % _ $ * _._._._._._._._._._.",
"_._._._._._._._.) } W } ~ ` % _._._._._._._._._.",
"_._._._._._._.+ H | [ ' ]  .! _._._._._._._._._.",
"_._._._._._._.@ G | [ ) { } / _._._._._._._._._.",
"_._._._._._._.Y U / ( ....X.s.O._._._._._._._._.",
"_._._._._._.7.c.x.m.N.Z.N.C.Y.L.d.o._._._._._._.",
"_._._._._._.Z g.G.U.p.M.R.(.R.(./.L.f.u._._._._.",
"_._._._._.8.8.l.H.9.7 k r.M.I././.^.T.Z.I _._._.",
"_._._.m U l.v.G.i.t 9 , 4 e.J.Q.^.Y.^.m.M _._._.",
"_._.  O e.J.Q.B.B f 0 p ; D a.W.^.Y.~.I.T _._._.",
"_._._.b 4.p.I.h.7 $.0 0 9 . 0.C.~.~.~.(.n._._._.",
"_._.M 0.0.5.b.5.p -.%.8 g = N 6.D.~.~.(.n._._._.",
"_._.w.Y.D.V.h.y h ;.%.1 s , f &.3.B.(.~.B.U _._.",
"_._.w.Y.^.!.5.w &.-.%.1 s , f $.s V i.V.!.t._._.",
"_._.F N.T.P.C p @.;.+.z 2.9 d >.*.f q 4.P.t._._.",
"_._.c n.).r.l d ;.>.+.x j.<.+.>.;.=.p 3.h.n _._.",
"_._.R m.a.k , $.;.>.>.+.1.x g -.#.;.=.w D _._._.",
"_._.y.S.v 5 @.$.;.:.>.>.g +.>.-.#.$.:.@.7 _._._.",
"_._.w.K.N h ;.;.>.:.:.>.#.>.-.-.#.#.:.*.s X _._.",
"_._.q.F.N *.:.;.:.;.:.>.;.-.:.:.$.$.:.;.$.> _._.",
"_._.T b.l @.;.;.:.:.;.;.;.;.:.:.$.$.:.:.:.2 _._.",
"_._._.A r *.;.$.-.-.;.#.;.$.-.:.>.@.*.:.;.2 _._.",
"_._._.: @.:.;.>.>.>.-.-.>.>.-.:.$.$.;.;.@.: _._.",
"_._._.o e -.:.;.$.;.;.;.:.:.:.-.$.:.:.>.e _._._.",
"_._._._._.3 i j &.&.&.&.*.*.$.$.@.$.a 7 o _._._.",
"_._._._._._._.6 6 6 6 5 5 5 < < > > _._._._._._.",
"_._._._._._._._._._._._._._._._._._._._._._._._.",
"_._._._._._._._._._._._._._._._._._._._._._._._."
};
