/* XPM */
static char * player_f_xpm[] = {
"64 64 360 2",
"  	c #4C532B",
". 	c #798366",
"+ 	c #6C7858",
"@ 	c #7B8363",
"# 	c #899071",
"$ 	c #858C69",
"% 	c #7B845C",
"& 	c #929C6A",
"* 	c #A6AD87",
"= 	c #656B54",
"- 	c #6A6C5A",
"; 	c #757D63",
"> 	c #757A63",
", 	c #7B875A",
"' 	c #6C7454",
") 	c #6A6B55",
"! 	c #737B5B",
"~ 	c #707265",
"{ 	c #6D745A",
"] 	c #576243",
"^ 	c #5B643B",
"/ 	c #636B42",
"( 	c #7B8453",
"_ 	c #65733B",
": 	c #546324",
"< 	c #727D44",
"[ 	c #94A263",
"} 	c #55632C",
"| 	c #59652C",
"1 	c #5A6434",
"2 	c #434C16",
"3 	c #434523",
"4 	c #44452A",
"5 	c #737B53",
"6 	c #5A5D3B",
"7 	c #3E4522",
"8 	c #797E4D",
"9 	c #69743C",
"0 	c #454B2A",
"a 	c #42451D",
"b 	c #3B3E1B",
"c 	c #53553B",
"d 	c #5B6342",
"e 	c #555D3A",
"f 	c #72754B",
"g 	c #717544",
"h 	c #444B23",
"i 	c #494D24",
"j 	c #3D441C",
"k 	c #46522A",
"l 	c #556933",
"m 	c #566939",
"n 	c #56633A",
"o 	c #555B42",
"p 	c #4B4D33",
"q 	c #4A5325",
"r 	c #525C2C",
"s 	c #5B6A2C",
"t 	c #66762C",
"u 	c #6B7B35",
"v 	c #66793A",
"w 	c #647334",
"x 	c #5A6A25",
"y 	c #556925",
"z 	c #818E4C",
"A 	c #748244",
"B 	c #434B1D",
"C 	c #6B7443",
"D 	c #5D6A3A",
"E 	c #556333",
"F 	c #3D4A1C",
"G 	c #51552C",
"H 	c #595D2D",
"I 	c #567130",
"J 	c #525533",
"K 	c #4E5A32",
"L 	c #455223",
"M 	c #4D5432",
"N 	c #525C25",
"O 	c #56692C",
"P 	c #4E6124",
"Q 	c #435315",
"R 	c #7D8B52",
"S 	c #74834B",
"T 	c #45521C",
"U 	c #4C5A24",
"V 	c #63722E",
"W 	c #6E813C",
"X 	c #76894C",
"Y 	c #8E9B62",
"Z 	c #5C6A33",
"` 	c #737C4B",
" .	c #4A462A",
"..	c #3E4329",
"+.	c #3E4A22",
"@.	c #364A16",
"#.	c #4E612B",
"$.	c #4A4D2A",
"%.	c #5E6751",
"&.	c #39460C",
"*.	c #4B5A1D",
"=.	c #828D54",
"-.	c #596626",
";.	c #657342",
">.	c #667747",
",.	c #808E2B",
"'.	c #465924",
").	c #716F4D",
"!.	c #454C32",
"~.	c #6C7B3C",
"{.	c #838C5B",
"].	c #535C33",
"^.	c #61663B",
"/.	c #364419",
"(.	c #797E53",
"_.	c #4A4D1D",
":.	c #414415",
"<.	c #86935A",
"[.	c #98A56A",
"}.	c #485617",
"|.	c #4A531D",
"1.	c #7E8519",
"2.	c #DDD338",
"3.	c #768944",
"4.	c #8A9654",
"5.	c #8C9B54",
"6.	c #657934",
"7.	c #7E9249",
"8.	c #93A15C",
"9.	c #616D2D",
"0.	c #4A4936",
"a.	c #6C7D2C",
"b.	c #52591A",
"c.	c #AC842D",
"d.	c #E6B32D",
"e.	c #998823",
"f.	c #879959",
"g.	c #929D5B",
"h.	c #47582B",
"i.	c #4D5A2B",
"j.	c #4A4524",
"k.	c #626C3B",
"l.	c #595E34",
"m.	c #798444",
"n.	c #626D34",
"o.	c #3E492A",
"p.	c #89964B",
"q.	c #818945",
"r.	c #BF7F35",
"s.	c #D2661A",
"t.	c #907E3D",
"u.	c #6D7B4A",
"v.	c #3C4A15",
"w.	c #74823D",
"x.	c #515B1D",
"y.	c #7C8B45",
"z.	c #3C4415",
"A.	c #632F0E",
"B.	c #B7721F",
"C.	c #E39F2C",
"D.	c #DD5D1A",
"E.	c #E0A038",
"F.	c #D8C145",
"G.	c #727D3D",
"H.	c #5E6A44",
"I.	c #644E2D",
"J.	c #B88839",
"K.	c #CFB439",
"L.	c #C69230",
"M.	c #C8B847",
"N.	c #758251",
"O.	c #626542",
"P.	c #595C25",
"Q.	c #515425",
"R.	c #2D443B",
"S.	c #889597",
"T.	c #B6C7B5",
"U.	c #809271",
"V.	c #8A956D",
"W.	c #7C8F62",
"X.	c #6B8B5F",
"Y.	c #7B916A",
"Z.	c #91958C",
"`.	c #253841",
" +	c #5E7134",
".+	c #6E8143",
"++	c #1A293B",
"@+	c #1D3332",
"#+	c #4D5A5A",
"$+	c #CAD5D6",
"%+	c #D7ECED",
"&+	c #A1C5C9",
"*+	c #A3C0BF",
"=+	c #B3DEDB",
"-+	c #9ADBE6",
";+	c #BBDCE6",
">+	c #9BCDCC",
",+	c #CCECF4",
"'+	c #173126",
")+	c #919E55",
"!+	c #5B5D43",
"~+	c #8A955C",
"{+	c #203939",
"]+	c #263451",
"^+	c #ACB5B8",
"/+	c #ECF5F4",
"(+	c #79A4AA",
"_+	c #588385",
":+	c #8BC8CF",
"<+	c #96BED2",
"[+	c #6F7A8D",
"}+	c #EAF4F8",
"|+	c #A6ABAE",
"1+	c #849353",
"2+	c #6D7B43",
"3+	c #153542",
"4+	c #2C4354",
"5+	c #657267",
"6+	c #E6E6EB",
"7+	c #DEECF0",
"8+	c #BBD6E8",
"9+	c #A7D0E3",
"0+	c #7BB2C3",
"a+	c #64A2B1",
"b+	c #93D2DB",
"c+	c #6B99A7",
"d+	c #E4E8EB",
"e+	c #ECE9E8",
"f+	c #90929A",
"g+	c #163A3F",
"h+	c #364314",
"i+	c #183B43",
"j+	c #6A7C63",
"k+	c #C2C8B9",
"l+	c #F4F5E4",
"m+	c #E4EDF3",
"n+	c #9CCCC4",
"o+	c #567D79",
"p+	c #99C9D5",
"q+	c #C3ECF6",
"r+	c #F5F4F4",
"s+	c #1B3C3B",
"t+	c #4A5636",
"u+	c #49461C",
"v+	c #16333B",
"w+	c #142C28",
"x+	c #888B86",
"y+	c #537071",
"z+	c #F2F3EC",
"A+	c #F8F4F1",
"B+	c #F4F5F9",
"C+	c #1A301F",
"D+	c #15334D",
"E+	c #1C3646",
"F+	c #1E364C",
"G+	c #78798B",
"H+	c #B5B7B7",
"I+	c #847E79",
"J+	c #6B6D69",
"K+	c #516675",
"L+	c #55657D",
"M+	c #7A8276",
"N+	c #B9B8B3",
"O+	c #6A757D",
"P+	c #1F3A34",
"Q+	c #6A7534",
"R+	c #78863D",
"S+	c #19323F",
"T+	c #212D62",
"U+	c #ADAEBA",
"V+	c #8992A0",
"W+	c #13312A",
"X+	c #8EA15A",
"Y+	c #264B45",
"Z+	c #4E611B",
"`+	c #232C73",
" @	c #747994",
".@	c #EAECF0",
"+@	c #F5F9FA",
"@@	c #5E6765",
"#@	c #ECEDED",
"$@	c #628F7D",
"%@	c #406958",
"&@	c #2C3782",
"*@	c #54567F",
"=@	c #D9DCE2",
"-@	c #C8C9CA",
";@	c #75787B",
">@	c #49556C",
",@	c #2A3A7B",
"'@	c #7A854C",
")@	c #84934C",
"!@	c #639277",
"~@	c #55845D",
"{@	c #1D395D",
"]@	c #2C3C8C",
"^@	c #32346E",
"/@	c #B3B5BB",
"(@	c #2B3668",
"_@	c #22325C",
":@	c #3C6347",
"<@	c #6C744B",
"[@	c #2A3975",
"}@	c #303A91",
"|@	c #262C6E",
"1@	c #D0D4CF",
"2@	c #D3CFD2",
"3@	c #696D78",
"4@	c #636B4B",
"5@	c #616534",
"6@	c #112B36",
"7@	c #2B3C83",
"8@	c #3D4357",
"9@	c #3C4364",
"0@	c #243673",
"a@	c #293C93",
"b@	c #929D63",
"c@	c #6A6E44",
"d@	c #4E6333",
"e@	c #122B3B",
"f@	c #1E2C59",
"g@	c #40435C",
"h@	c #DADBDE",
"i@	c #454C65",
"j@	c #1F2D60",
"k@	c #253C84",
"l@	c #2A3A9A",
"m@	c #142341",
"n@	c #7C8B4C",
"o@	c #9097A9",
"p@	c #9496A5",
"q@	c #2A3268",
"r@	c #213F8D",
"s@	c #91975C",
"t@	c #5E712D",
"u@	c #263C99",
"v@	c #32377B",
"w@	c #263D92",
"x@	c #53641E",
"y@	c #636686",
"z@	c #C3C4C7",
"A@	c #727A37",
"B@	c #61662D",
"C@	c #0E2F2C",
"D@	c #2E38A7",
"E@	c #253C74",
"F@	c #34466E",
"G@	c #253B7B",
"H@	c #1D3865",
"I@	c #8C9B5C",
"J@	c #7E9151",
"K@	c #969766",
"L@	c #5E713A",
"M@	c #6D8137",
"N@	c #4D5439",
"O@	c #696E35",
"P@	c #6E814A",
"Q@	c #444532",
"R@	c #373E16",
"S@	c #3B3E23",
"  . + @ . # $ % & * # @ @ @ . . = = - - ; @ # # > > = ; # , % ' ' - - ) ) - - > ; ; ! - - ~ { $ $ ' + = { ; ! ! @ ; ; ; { = ~ > ",
"  ] ^ ^ / ( _ : < [ < } | 1 1 1 2 3 4 4 ^ ^ 5 5 ^ 6 7 1 8 9 1   0 0 7 a b 4 4 c d ^ e 0 4 0   f g h i j k l 1 m m n ^ n 0 7 o ] ",
"  p q r } s t u v w x y u z A v : r h B C C D D 1 E F G H | 1 I I h F   r J K k L } | r M   2 N N h k K K O P Q : R S } r r q   ",
"  7 B T U : V W D | P P X Y R S Z 1 2 2 S ` | | 1 r j  . .r ^ I I ..7 J l E m +.@.#.| Z E h a $.$.7 4 %.n l P &.*.[ =.-.| r B F ",
"  c   B h L r D ;.>.Z } v S D U 1 1 h h L q l l l 1 j 4 4 $.M ,.,.c e E E q k K K } #.'.B / ).$.i 6 o !.k l } : w X ~.: < {.D ].",
"  ^ ].h 0 $.c ^ _ X w : w A -.T 1 ^.  $.h F ^ ^ ^ ^ /.3 a B i ,.,.1 D : } B F   m m } F F (.f _.:.1 E j @.O : } Z A ~.-.<.[.;.e ",
"  ^ r j 3 4 4 h U O w ~.s }.|._.B 3 3 7 h h m ].h i ^ G B 1.1.2.2.1.1.3.4._ E n E L B r 1 i q r V 5.z s Z ~.6.l E | } : s Z C ` ",
"  n r a 4  .4 4 '.l >.< | |.i $.4 3 3 h +.h n E j B ^.J 3 1.1.2.2.1.1.7.8.v 1 l E T 2 l ^ 4 h r 9.8.5.: 1 S v E } } : s -.-.C ` ",
"  n l l J i h a +.k ].^ ].0 0 4 0.  1 ^ l 1 j h e a.a.b.b.c.c.d.d.e.e.b.b.a.a.D 1 =.f.D ^ 7 ..e s A < 1 1 i i F F : w 8.g.g.r j ",
"  e E m K h.U q   i M 6 M 0 $.$.i i l l U i. .j.k.a.a.b.b.c.c.d.d.e.e.b.b.a.a.l.r A m.O l i.q Z n.~.9 r r 0 0 o.k O V p.q.q.G j.",
"  7 '.l E l E E   j 4   0 h ].^ h 7 n E F F $.$.(.e.e.e.e.r.r.s.s.c.c.t.t.c.c.a 2 N -.: l u.8 ` 9 | } v.B 7 $.n n } s w.x.|.j.4 ",
"  k.n.} :   J ^ J 3 0 0 $.      q   d n     4  .^.e.e.e.e.r.r.s.s.c.c.t.t.c.c.$.B n.w O #.Z k.1 1         h k i.i.l D 9 q a j. .",
"  Y y.-.U z.  ^   3 3 3   ^   B 1 E ^ l l E 3 A.A.B.B.2.2.C.C.D.D.E.E.F.F.s.s.A.A.9 ~.O } '.B a h h h n n E K v.h l ].].i 3 3 j.",
"  ( w.x 9.` /         i 0 i   q ;.9 m.3.: | G A.A.B.B.2.2.C.C.D.D.E.E.F.F.s.s.A.A.9 G.Z l L i G M ].K +.k i.E U i.>.H.M $.0 M J ",
"  8 u y A & u.F   ^ i.h h j J ^ 8 G.5.5.y } ^ I.I.J.J.K.K.K.K.L.L.M.M.M.M.L.L.I.I.9 < D E L q l.6 ^ K /.F E l Z Z N./ /.0 $.6 O.",
"  / Z O _ ( 9 i.} E E K   +.q   l.P.m.3.: O   I.I.J.J.K.K.K.K.L.L.M.M.M.M.L.L.I.I.Q.H G   h i e E } Z S >.l l } Z Z k.l e J     ",
"  n l l _ S w } O l l E   a h i i _.< R.R.S.S.T.T.U.U.V.V.W.W.X.X.Y.Y.V.V.Y.Y.T.T.Z.Z.`.`.3 +.].} : s [ f.} | } O } w S k.1 i j ",
"  $.'.h.i.Z  +v  +#.D >.D e i h 3 j.O.R.R.S.S.T.T.U.U.V.V.W.W.X.X.Y.Y.V.V.Y.Y.T.T.Z.Z.`.`.J n ;. +x x w 6.Z k.=.A O : x.| 1 E e ",
"  7 h q i.| _ .+w P _ S 9 ^   ++++@+@+#+#+$+$+%+%+&+&+*+*+=+=+-+-+;+;+*+*+>+>+,+,+$+$+#+#+@+@+'+'+} | } O } v )+y.| r |.E 1 E E ",
"  !+  h h L r O  +v w 1 r   $.++++@+@+#+#+$+$+%+%+&+&+*+*+=+=+-+-+;+;+*+*+>+>+,+,+$+$+#+#+@+@+'+'+L r C _ O  +w.n.L q h G } R ~+",
"  d G h h h i.} _ S 9 E r {+{+]+]+]+]+^+^+/+/+;+;+(+(+_+_+:+:+-+-+<+<+[+[+(+(+;+;+}+}+|+|+`.`.{+{+`.`.( >.}  +m.9 i h B | s 1+Y ",
"  0   e J 3 i L i.l i.L h {+{+]+]+]+]+^+^+/+/+;+;+(+(+_+_+:+:+-+-+<+<+[+[+(+(+;+;+}+}+|+|+`.`.{+{+`.`.i.'.Z } _.h 7   ^ < 2+n.Z ",
"  7 q 1 J 7 4 i i.^ J 3+3+4+4+5+5+Z.Z.6+6+7+7+8+8+9+9+0+0+a+a+b+b+c+c+0+0+-+-+8+8+d+d+e+e+f+f+5+5+`.`.g+g+E r B h j   ^ 2+S D E ",
"  n l l J 0 4 3 h   h 3+3+4+4+5+5+Z.Z.6+6+7+7+8+8+9+9+0+0+a+a+b+b+c+c+0+0+-+-+8+8+d+d+e+e+f+f+5+5+`.`.g+g+E / < n.h+q l l l k o.",
"  ^ } U   J $.3 h i+i+i+i+k ].j+j+k+k+l+l+7+7+m+m+,+,+b+b+_+_+n+n+o+o+p+p+q+q+m+m+e+e+r+r+&+&+j+j+K K s+s+s+s+n.| B '.U E l t+t+",
"  1 U h+'.^   a u+i+i+i+i+E l j+j+k+k+l+l+7+7+m+m+,+,+b+b+_+_+n+n+o+o+p+p+q+q+m+m+e+e+r+r+&+&+j+j+/.+.s+s+s+s+T '.D U v.'.| n ] ",
"  ` n.*.} ;.E v+v+g+g+h K E E w+w+x+x+l+l+/+/+r+r+$+$+S.S.y+y+>+>+y+y+S.S.$+$+z+z+A+A+B+B+x+x+C+C+h.k E E 3+3+D+D+].i.*.6.W Z m ",
"  & R } k.N.;.v+v+g+g+F i.E i.w+w+x+x+l+l+/+/+r+r+$+$+S.S.y+y+>+>+y+y+S.S.$+$+z+z+A+A+B+B+x+x+C+C+l D E ].3+3+D+D+B U -.1+[ _ l ",
"  , G.O Z E+E+F+F+l.r h.K E   ++++G+G+l+l+z+z+H+H+I+I+J+J+K+K+p+p+L+L+J+J+M+M+N+N+z+z+r+r+O+O+w+w+D E ].  3 0 E+E+P+P+m.G.~.D } ",
"  ` u : -.E+E+F+F+a   ^ E E L ++++G+G+l+l+z+z+H+H+I+I+J+J+K+K+p+p+L+L+J+J+M+M+N+N+z+z+r+r+O+O+w+w+l } L h 3 $.E+E+P+P+g.Q+N 1 } ",
"  < R+y.~.S+S+S+S+7   D } l ].T+T+G+G+l+l+A+A+H+H+x+x+U+U+S.S.[+[+V+V+^+^+x+x+N+N+A+A+/+/+[+[+E+E+R S r i.3 $.W+W+E+E+6.s -.| l ",
"  A R+X+A S+S+S+S+j r Z : l l T+T+G+G+l+l+A+A+H+H+x+x+U+U+S.S.[+[+V+V+^+^+x+x+N+N+A+A+/+/+[+[+E+E+Y f.1 E a $.W+W+E+E+: : | l l ",
"  D V Y+Y+s+s+F r r } Z+3.S+S+`+`+ @ @z+z+r+r+r+r+.@.@+@+@|+|+@@@@|+|++@+@#@#@z+z+A+A+r+r+ @ @T+T+++++N '.1 ^ u.>.]+]+P+P+` Z E ",
"  l w Y+Y+s+s+v.U | -.y R+S+S+`+`+ @ @z+z+r+r+r+r+.@.@+@+@|+|+@@@@|+|++@+@#@#@z+z+A+A+r+r+ @ @T+T+++++v.B Z ^.8 C ]+]+P+P+` D l ",
"  ^ } $@$@%@%@>.A 1+u x s E+E+&@&@*@*@=@=@r+r+r+r+r+r++@+@-@-@;@;@-@-@+@+@A+A+z+z+A+A+=@=@>@>@,@,@F+F+1+'@1 r G q 4+4+B E /   h ",
"  d K $@$@%@%@A )@8.~.} | E+E+&@&@*@*@=@=@r+r+r+r+r+r++@+@-@-@;@;@-@-@+@+@A+A+z+z+A+A+=@=@>@>@,@,@F+F+[ <.1 r i h 4+4++.].^ 4 3 ",
"  4 0 !@!@~@~@: O s | l / {@{@]@]@^@^@/@/@#@#@r+r+r+r+r+r+#@#@H+H+#@#@r+r+z+z+A+A+e+e+/@/@(@(@&@&@_@_@< < 2 2 a   :@:@i h h 4 j.",
"  7 3 !@!@~@~@D } Z | } C {@{@]@]@^@^@/@/@#@#@r+r+r+r+r+r+#@#@H+H+#@#@r+r+z+z+A+A+e+e+/@/@(@(@&@&@_@_@( <@i j 7 0 :@:@L 2 h+7 b ",
"  !+J 3 0 j.4 L U | _ S 1 [@[@}@}@|@|@O+O+1@1@+@+@A+A+r+r+r+r+A+A+z+z+A+A+A+A++@+@2@2@3@3@_@_@]@]@[@[@W+W+b $.] K z.'.| < 8 4@^ ",
"  6 c 4 4 3 4 L U Z k.` 1 [@[@}@}@|@|@O+O+1@1@+@+@A+A+r+r+r+r+A+A+z+z+A+A+A+A++@+@2@2@3@3@_@_@]@]@[@[@W+W+h   n K F |.5@C 8 / 6 ",
"  4   ^ J 7 4 q 1 ` k.6@6@7@7@]@]@`+`+8@8@f+f+#@#@r+r+r+r+A+A+r+r+A+A+B+B+r+r+6+6+f+f+9@9@0@0@a@a@,@,@6@6@m ].F B 1 _ b@U z.n ^ ",
"  $.      3 0 h H c@l.6@6@7@7@]@]@`+`+8@8@f+f+#@#@r+r+r+r+A+A+r+r+A+A+B+B+r+r+6+6+f+f+9@9@0@0@a@a@,@,@6@6@E d@'.U } 5@9 _.B     ",
"  6 N h+h $.0 3 Q.1 G e@e@7@7@]@]@}@}@f@f@g@g@%+%++@+@r+r+r+r+r+r++@+@B+B+B+B+h@h@i@i@j@j@k@k@l@l@&@&@m@m@l E | | : | |.2 2 h 7 ",
"  N.9 N q e   h q r $.e@e@7@7@]@]@}@}@f@f@g@g@%+%++@+@r+r+r+r+r+r++@+@B+B+B+B+h@h@i@i@j@j@k@k@l@l@&@&@m@m@m Z n@v s s < H G   0 ",
"  & n@-.| D   j h   h e@e@,@,@]@]@a@a@7@7@(@(@o@o@m+m+B+B+r+r+A+A+r+r+B+B+m+m+p@p@q@q@7@7@r@r@a@a@&@&@m@m@Z v X+n@-.Q+s@k.1   h ",
"  C t Q+s L   e   h h e@e@,@,@]@]@a@a@7@7@(@(@o@o@m+m+B+B+r+r+A+A+r+r+B+B+m+m+p@p@q@q@7@7@r@r@a@a@&@&@m@m@| Z t@v w w P.L B M   ",
"  } w A Z z.k ^ M 3 4 ++++,@,@a@a@u@u@l@l@7@7@9@9@/@/@d+d+.@.@A+A+#@#@6+6+U+U+g@g@v@v@a@a@w@w@u@u@&@&@++++l O x@s A 9 B B j n d ",
"  2+w Z Z r E ^ M 3 h ++++,@,@a@a@u@u@l@l@7@7@9@9@/@/@d+d+.@.@A+A+#@#@6+6+U+U+g@g@v@v@a@a@w@w@u@u@&@&@++++2+k.}.*.k.1 h i j 6 d ",
"  S Q+y -.} | }   a a W+W+,@,@l@l@l@l@]@]@]@]@q@q@y@y@p@p@z@z@z@z@z@z@p@p@y@y@q@q@a@a@a@a@w@w@a@a@,@,@e@e@( C Q *.^ ].3 h j e d ",
"  N x A@m.)@)@1+2+r Q.W+W+,@,@l@l@l@l@]@]@]@]@q@q@y@y@p@p@z@z@z@z@z@z@p@p@y@y@q@q@a@a@a@a@w@w@a@a@,@,@e@e@l D | r i 0 $.].1   h ",
"  _.: A@y.8.g.5.A B@N C@C@,@,@D@D@l@l@7@7@]@]@7@7@E@E@F@F@L+L+K+K+L+L+F@F@,@,@]@]@a@a@]@]@]@]@l@l@G@G@e@e@} l 1 ].3 3   l.l h j ",
"  3 2 2 9.G.Q+x@6.A 5@C@C@,@,@D@D@l@l@7@7@]@]@7@7@E@E@F@F@L+L+K+K+L+L+F@F@,@,@]@]@a@a@]@]@]@]@l@l@G@G@e@e@L B a 3 0 3 h 1 1 ` (.",
"  3 B q 1 < 9 -.w < 1 $.c H@H@l@l@l@l@a@a@l@l@u@u@w@w@k@k@[@[@0@0@[@[@k@k@w@w@u@u@a@a@a@a@a@a@]@]@{@{@` C L h a 3 3 7 B } | C 5 ",
"  0 h   q l U T T q u+a B H@H@l@l@l@l@a@a@l@l@u@u@w@w@k@k@[@[@0@0@[@[@k@k@w@w@u@u@a@a@a@a@a@a@]@]@{@{@2 B 1 ].a h $.G 1 R I@R ` ",
"    q h   ^ i.T L i u+u+B F #.H@H@E@E@r@r@l@l@u@u@a@a@a@a@]@]@]@]@]@]@a@a@a@a@u@u@a@a@a@a@k@k@{@{@Z D 2 L l.].a i i   Z J@I@X u.",
"  E E E   F } ` ^ j.f K@g } l H@H@E@E@r@r@l@l@u@u@a@a@a@a@]@]@]@]@]@]@a@a@a@a@u@u@a@a@a@a@k@k@{@{@Y f.1 r a i 1 r v.L O y y O | ",
"  l }   K   } | ].'.w .+L@O  +w M@v+v+i+i+H@H@[@[@,@,@,@,@,@,@,@,@[@[@[@[@[@[@[@[@{@{@D+D+D+D+n._ A < n.k.a  .N@M i.i.D n ] c M ",
"  } '.h+k H.q B   D Z } #.l _ A )+v+v+i+i+H@H@[@[@,@,@,@,@,@,@,@,@[@[@[@[@[@[@[@[@{@{@D+D+D+D+< 2+: Z S ` j 3 7 B } V n@Z E 0 /.",
"  S 6.U M p 0 4   ].U U } Z D w p.5.}.U j i } } Z Z | P N w v w -.N N q G U *.Z v G.~.N U < '@O@Z U r / ^  .4 z.|.'@G.: '.L 0 j ",
"  b@y.O i.j 7 0   l U T U l } s p.b@2 j     l Z S P@E } } } : _ 9 k.l   T N Z 9 A O O : O ~+~+w : Q *.E l.J  .j r b@=.U h h 0 4 ",
"  < 6.y :   h h q 1 N '.i.'.r s t 9 4 3 N@M K E D D k m ;.D E E L i.K K e k L l l '.q i.].k.9.Q+w U U r   3 j.4 0 f C r 3 ..Q@Q@",
"  C x x@x : B z.h | | } T 2 Z G.x.x.a 7 c ].].r '.i.L l ;._ } T v.'.K E d !.7 0   h h M M i Q G.v : U r r R@b 4 $.1 1 r 7 7 4 4 ",
"  N@i.U 6.<.5@H $.h r ].i.n ].r 9 9 |.q B L | O : U _ | T U T U *.} O *.T r T N s w _ Z } '.G r i.i.E i   6 J b B -.s ~.| ].  i ",
"  Q@N@  >.& / e p 7 M e ] ] N@  (.( i.e 7 7 E } l J % ^.F h L e i.l l L v.r N s -.~.< Z } i.6   0 ] d 7 ..!+c S@3 l k.S D ^ M $."};
