/* XPM */
static char * wall_xpm[] = {
"64 64 112 2",
"  	c #4C4632",
". 	c #9E9988",
"+ 	c #706B5D",
"@ 	c #928D82",
"# 	c #827E71",
"$ 	c #8B8679",
"% 	c #7A7666",
"& 	c #979288",
"* 	c #939083",
"= 	c #767059",
"- 	c #7C735A",
"; 	c #857C62",
"> 	c #71664E",
", 	c #92896E",
"' 	c #7B6E59",
") 	c #645D49",
"! 	c #413D25",
"~ 	c #3A361E",
"{ 	c #5A553B",
"] 	c #746B52",
"^ 	c #7A7256",
"/ 	c #82795E",
"( 	c #7E7B5A",
"_ 	c #90876C",
": 	c #81765D",
"< 	c #4D4738",
"[ 	c #423D2B",
"} 	c #B1AC9E",
"| 	c #8D846A",
"1 	c #86806A",
"2 	c #786F54",
"3 	c #6F6650",
"4 	c #6D6A4A",
"5 	c #726751",
"6 	c #67644A",
"7 	c #615C42",
"8 	c #49442D",
"9 	c #726A4E",
"0 	c #6C644B",
"a 	c #696446",
"b 	c #6B5F4A",
"c 	c #554E3A",
"d 	c #474331",
"e 	c #C1BDAC",
"f 	c #8A8265",
"g 	c #666943",
"h 	c #6B6C45",
"i 	c #4E4B32",
"j 	c #514D33",
"k 	c #656443",
"l 	c #717645",
"m 	c #7D804C",
"n 	c #74734B",
"o 	c #5E5B41",
"p 	c #5E633A",
"q 	c #7B7952",
"r 	c #62653D",
"s 	c #545434",
"t 	c #3E3B23",
"u 	c #434325",
"v 	c #696D3F",
"w 	c #7A7C4C",
"x 	c #5C5C3B",
"y 	c #646B3C",
"z 	c #5B6335",
"A 	c #878476",
"B 	c #4E522C",
"C 	c #636B34",
"D 	c #6C7141",
"E 	c #51552D",
"F 	c #4D5829",
"G 	c #464A24",
"H 	c #3D4120",
"I 	c #4B5127",
"J 	c #555238",
"K 	c #504F2D",
"L 	c #4B4B2C",
"M 	c #555B33",
"N 	c #474A2C",
"O 	c #525A2D",
"P 	c #3C3C1D",
"Q 	c #3B3621",
"R 	c #484527",
"S 	c #45422B",
"T 	c #887F65",
"U 	c #5D5642",
"V 	c #757253",
"W 	c #484C25",
"X 	c #556031",
"Y 	c #777264",
"Z 	c #41431F",
"` 	c #6F7349",
" .	c #5C6935",
"..	c #5C622E",
"+.	c #565A39",
"@.	c #3F3E28",
"#.	c #ABA695",
"$.	c #85815B",
"%.	c #B9B4A3",
"&.	c #5D6040",
"*.	c #595C35",
"=.	c #69703E",
"-.	c #616637",
";.	c #4E5132",
">.	c #827E6A",
",.	c #605642",
"'.	c #8E8867",
").	c #6B6852",
"!.	c #605B4A",
"~.	c #686550",
"{.	c #3E411D",
"].	c #8C8879",
"                                . .         + + + +     @ @ # # @ @                                 $ $         $ $ % % & & @ @ ",
"                                . .         + + + +     @ @ # # @ @                                 $ $         $ $ % % & & @ @ ",
"* * = = - - ; ; - - > > ; ; , , - - ; ; , , ' ' > > ) ) ! ! ~ ~ { { ] ] = = ^ ^ / / - - ^ ^ ( ( = = - - - - ^ ^ _ _ : : < < [ [ ",
"* * = = - - ; ; - - > > ; ; , , - - ; ; , , ' ' > > ) ) ! ! ~ ~ { { ] ] = = ^ ^ / / - - ^ ^ ( ( = = - - - - ^ ^ _ _ : : < < [ [ ",
"} } | | 1 1 2 2 3 3 4 4 ' ' - - ] ] 5 5 ' ' 5 5 6 6 7 7     8 8 9 9 ^ ^ 0 0 5 5 ] ] 4 4 a a 4 4 6 6 b b 5 5 ] ] 2 2 b b c c d d ",
"} } | | 1 1 2 2 3 3 4 4 ' ' - - ] ] 5 5 ' ' 5 5 6 6 7 7     8 8 9 9 ^ ^ 0 0 5 5 ] ] 4 4 a a 4 4 6 6 b b 5 5 ] ] 2 2 b b c c d d ",
"e e f f ^ ^ 4 4 4 4 6 6 0 0 3 3 > > b b 5 5 4 4 g g h h i i j j f f - - 6 6 4 4 a a > > 4 4 9 9 9 9 a a > > k k 7 7 7 7 { { < < ",
"e e f f ^ ^ 4 4 4 4 6 6 0 0 3 3 > > b b 5 5 4 4 g g h h i i j j f f - - 6 6 4 4 a a > > 4 4 9 9 9 9 a a > > k k 7 7 7 7 { { < < ",
"    l l m m n n h h 4 4 o o p p m m q q 9 9 r r k k s s t t u u r r p p v v w w x x x x g g v v h h n n y y z z y y z z y y p p ",
"    l l m m n n h h 4 4 o o p p m m q q 9 9 r r k k s s t t u u r r p p v v w w x x x x g g v v h h n n y y z z y y z z y y p p ",
"A A B B C C p p D D y y E E F F C C y y D D x x s s G G H H B B I I z z r r x x J J K K p p h h r r r r s s L L M M M M G G N N ",
"A A B B C C p p D D y y E E F F C C y y D D x x s s G G H H B B I I z z r r x x J J K K p p h h r r r r s s L L M M M M G G N N ",
"A A t t 8 8 M M O O E E B B r r E E I I M M s s s s P P t t P P P P P P u u t t ! ! ~ ~ G G { { { { L L [ [ t t t t t t Q Q [ [ ",
"A A t t 8 8 M M O O E E B B r r E E I I M M s s s s P P t t P P P P P P u u t t ! ! ~ ~ G G { { { { L L [ [ t t t t t t Q Q [ [ ",
"@ @ d d     L L G G R R < < L L t t ! ! j j ! ! ! ! j j { {         S S ! ! 8 8     ! ! R R R R R R R R [ [         8 8 < < c c ",
"@ @ d d     L L G G R R < < L L t t ! ! j j ! ! ! ! j j { {         S S ! ! 8 8     ! ! R R R R R R R R [ [         8 8 < < c c ",
"    ] ] ; ; ; ; 9 9 ' ' 1 1 : : K K t t t t ! ! { { f f ( ( ; ; _ _ ' ' ] ] : : - - ) ) S S u u u u k k / / / / f f T T f f f f ",
"    ] ] ; ; ; ; 9 9 ' ' 1 1 : : K K t t t t ! ! { { f f ( ( ; ; _ _ ' ' ] ] : : - - ) ) S S u u u u k k / / / / f f T T f f f f ",
"    ] ] ] ] ] ] 9 9 ] ] 2 2 5 5 b b c c [ [ ] ] T T / / ] ] ^ ^ : : 9 9 - - : : ] ] 3 3 U U j j i i : : f f - - 2 2 / / ' ' - - ",
"    ] ] ] ] ] ] 9 9 ] ] 2 2 5 5 b b c c [ [ ] ] T T / / ] ] ^ ^ : : 9 9 - - : : ] ] 3 3 U U j j i i : : f f - - 2 2 / / ' ' - - ",
"    9 9 > > 5 5 > > > > ] ] 9 9 7 7 { { K K T T f f 9 9 4 4 5 5 9 9 9 9 5 5 > > 5 5 6 6 { { i i 4 4 1 1 - - 9 9 9 9 > > > > = = ",
"    9 9 > > 5 5 > > > > ] ] 9 9 7 7 { { K K T T f f 9 9 4 4 5 5 9 9 9 9 5 5 > > 5 5 6 6 { { i i 4 4 1 1 - - 9 9 9 9 > > > > = = ",
"    h h > > 5 5 5 5 > > a a k k { { { { R R k k V V 3 3 a a 4 4 4 4 > > > > 0 0 4 4 6 6 x x { { V V q q 9 9 9 9 9 9 7 7 h h ] ] ",
"    h h > > 5 5 5 5 > > a a k k { { { { R R k k V V 3 3 a a 4 4 4 4 > > > > 0 0 4 4 6 6 x x { { V V q q 9 9 9 9 9 9 7 7 h h ] ] ",
"    h h g g 0 0 - - 4 4 z z v v E E P P G G E E M M 6 6 h h g g v v a a > > > > 6 6 s s s s W W E E X X h h w w 4 4 0 0 k k 6 6 ",
"    h h g g 0 0 - - 4 4 z z v v E E P P G G E E M M 6 6 h h g g v v a a > > > > 6 6 s s s s W W E E X X h h w w 4 4 0 0 k k 6 6 ",
"Y Y k k x x x x k k g g z z r r Z Z P P u u u u x x M M n n g g v v ` ` h h l l r r x x L L L L p p y y  . .m m y y g g g g k k ",
"Y Y k k x x x x k k g g z z r r Z Z P P u u u u x x M M n n g g v v ` ` h h l l r r x x L L L L p p y y  . .m m y y g g g g k k ",
"    r r p p M M O O M M L L S S W W P P ~ ~ ! ! L L O O C C x x M M ....E E O O O O O O u u u u s s M M s s E E F F F F X X +.+.",
"    r r p p M M O O M M L L S S W W P P ~ ~ ! ! L L O O C C x x M M ....E E O O O O O O u u u u s s M M s s E E F F F F X X +.+.",
"    E E E E E E W W P P     8 8 8 8 ! ! t t ! ! P P u u G G u u u u P P S S H H @.@.! ! u u S S t t [ [ 8 8 P P P P u u P P N N ",
"    E E E E E E W W P P     8 8 8 8 ! ! t t ! ! P P u u G G u u u u P P S S H H @.@.! ! u u S S t t [ [ 8 8 P P P P u u P P N N ",
"    ! ! G G > > ^ ^ 9 9 f f ^ ^ ] ] / / ' ' ] ] - - 5 5 7 7 u u R R t t     7 7 a a a a 4 4 ' ' - - ^ ^ ] ] - - ' ' 3 3 ! ! S S ",
"    ! ! G G > > ^ ^ 9 9 f f ^ ^ ] ] / / ' ' ] ] - - 5 5 7 7 u u R R t t     7 7 a a a a 4 4 ' ' - - ^ ^ ] ] - - ' ' 3 3 ! ! S S ",
"Y Y ^ ^ - - T T ; ; ; ; ( ( ^ ^ - - | | ^ ^ ^ ^ / / - - 5 5 j j J J ] ] f f / / : : ] ] ] ] - - T T ; ; ^ ^ : : - - 5 5 [ [ S S ",
"Y Y ^ ^ - - T T ; ; ; ; ( ( ^ ^ - - | | ^ ^ ^ ^ / / - - 5 5 j j J J ] ] f f / / : : ] ] ] ] - - T T ; ; ^ ^ : : - - 5 5 [ [ S S ",
"#.#.T T / / 2 2 ] ] ] ] n n 9 9 5 5 ] ] > > > > > > 0 0 U U < < { { f f $.$.2 2 ] ] b b a a 9 9 ] ] ] ] 5 5 5 5 5 5 ) ) [ [ [ [ ",
"#.#.T T / / 2 2 ] ] ] ] n n 9 9 5 5 ] ] > > > > > > 0 0 U U < < { { f f $.$.2 2 ] ] b b a a 9 9 ] ] ] ] 5 5 5 5 5 5 ) ) [ [ [ [ ",
"%.%.| | ^ ^ 6 6 6 6 4 4 h h 3 3 5 5 4 4 b b a a { { 6 6 ) ) j j ! ! v v n n 9 9 5 5 b b a a 0 0 0 0 n n 9 9 4 4 9 9 = = { { d d ",
"%.%.| | ^ ^ 6 6 6 6 4 4 h h 3 3 5 5 4 4 b b a a { { 6 6 ) ) j j ! ! v v n n 9 9 5 5 b b a a 0 0 0 0 n n 9 9 4 4 9 9 = = { { d d ",
"    r r n n y y M M p p p p y y g g &.&.] ] p p O O *.*.+.+.u u G G r r ` ` k k g g p p y y p p x x v v y y *.*.=.=.p p +.+.N N ",
"    r r n n y y M M p p p p y y g g &.&.] ] p p O O *.*.+.+.u u G G r r ` ` k k g g p p y y p p x x v v y y *.*.=.=.p p +.+.N N ",
"    -.-.=.=.l l  . .g g z z y y  . .s s L L E E *.*.E E R R u u x x r r K K E E M M M M  . .z z M M g g p p y y z z F F N N N N ",
"    -.-.=.=.l l  . .g g z z y y  . .s s L L E E *.*.E E R R u u x x r r K K E E M M M M  . .z z M M g g p p y y z z F F N N N N ",
"    u u W W G G L L B B s s *.*.W W Q Q P P u u ! ! t t ~ ~ u u L L ~ ~ ~ ~ ~ ~ u u R R G G W W I I s s W W -.-.;.;.t t P P J J ",
"    u u W W G G L L B B s s *.*.W W Q Q P P u u ! ! t t ~ ~ u u L L ~ ~ ~ ~ ~ ~ u u R R G G W W I I s s W W -.-.;.;.t t P P J J ",
"    j j j j J J J J j j [ [ t t H H t t U U c c { { 7 7 { { 7 7 j j j j { { { { J J 8 8 Q Q ! ! u u t t J J +.+.o o J J U U o o ",
"    j j j j J J J J j j [ [ t t H H t t U U c c { { 7 7 { { 7 7 j j j j { { { { J J 8 8 Q Q ! ! u u t t J J +.+.o o J J U U o o ",
">.>.2 2 : : T T / / : : b b ! ! +.+.a a T T - - ; ; 1 1 / / ^ ^ 5 5 9 9 ; ; _ _ : : > > ,.,.    S S 7 7 f f _ _ f f : : f f | | ",
">.>.2 2 : : T T / / : : b b ! ! +.+.a a T T - - ; ; 1 1 / / ^ ^ 5 5 9 9 ; ; _ _ : : > > ,.,.    S S 7 7 f f _ _ f f : : f f | | ",
"    > > 5 5 / / : : 9 9 : : J J i i ( ( ; ; - - ] ] ] ] 9 9 > > 9 9 > > ' ' ^ ^ 5 5 ' ' ; ; 7 7 8 8 ^ ^ , , / / 2 2 9 9 : : - - ",
"    > > 5 5 / / : : 9 9 : : J J i i ( ( ; ; - - ] ] ] ] 9 9 > > 9 9 > > ' ' ^ ^ 5 5 ' ' ; ; 7 7 8 8 ^ ^ , , / / 2 2 9 9 : : - - ",
">.>.w w k k 0 0 n n 9 9 b b { { u u p p ^ ^ 9 9 ] ] 9 9 9 9 2 2 9 9 9 9 5 5 9 9 9 9 9 9 6 6 U U i i ^ ^ $.$.9 9 6 6 0 0 > > - - ",
">.>.w w k k 0 0 n n 9 9 b b { { u u p p ^ ^ 9 9 ] ] 9 9 9 9 2 2 9 9 9 9 5 5 9 9 9 9 9 9 6 6 U U i i ^ ^ $.$.9 9 6 6 0 0 > > - - ",
"    / / w w h h 4 4 k k 0 0 { { H H M M -.-.r r 9 9 9 9 > > h h l l 9 9 a a a a 4 4 9 9 V V ) )     V V '.'.V V 7 7 a a k k = = ",
"    / / w w h h 4 4 k k 0 0 { { H H M M -.-.r r 9 9 9 9 > > h h l l 9 9 a a a a 4 4 9 9 V V ) )     V V '.'.V V 7 7 a a k k = = ",
"    =.=.l l 9 9 a a 4 4 v v E E G G B B y y w w 4 4 r r h h 4 4 h h h h 4 4 ] ] g g h h h h U U S S r r ^ ^ 6 6 x x p p ` ` ).).",
"    =.=.l l 9 9 a a 4 4 v v E E G G B B y y w w 4 4 r r h h 4 4 h h h h 4 4 ] ] g g h h h h U U S S r r ^ ^ 6 6 x x p p ` ` ).).",
"!.!.r r  . .D D r r x x s s u u H H W W O O h h h h M M O O y y g g +.+.&.&.&.&.x x y y y y L L P P O O z z y y h h C C C C V V ",
"!.!.r r  . .D D r r x x s s u u H H W W O O h h h h M M O O y y g g +.+.&.&.&.&.x x y y y y L L P P O O z z y y h h C C C C V V ",
"~.~.J J y y y y *.*.L L L L B B B B ! ! P P H H E E W W S S J J { { L L ;.;.N N S S s s M M 8 8 8 8 G G {.{.u u M M l l O O p p ",
"~.~.J J y y y y *.*.L L L L B B B B ! ! P P H H E E W W S S J J { { L L ;.;.N N S S s s M M 8 8 8 8 G G {.{.u u M M l l O O p p ",
"].].S S N N W W S S u u u u u u S S [ [ [ [ @.@.u u [ [ [ [ d d S S [ [ [ [ @.@.[ [ [ [ S S [ [ d d [ [ Q Q @.@.S S i i S S < < ",
"].].S S N N W W S S u u u u u u S S [ [ [ [ @.@.u u [ [ [ [ d d S S [ [ [ [ @.@.[ [ [ [ S S [ [ d d [ [ Q Q @.@.S S i i S S < < "};
