/* XPM */
static char *wall[] = {
/* columns rows colors chars-per-pixel */
"32 32 126 2 ",
"   c #3A361E",
".  c #3C3C1D",
"X  c #3B3621",
"o  c #3E3B23",
"O  c #3F3E28",
"+  c #413D25",
"@  c #423D2B",
"#  c #3E411D",
"$  c #3D4120",
"%  c #41431F",
"&  c #434325",
"*  c #484527",
"=  c #464A24",
"-  c #484C25",
";  c #45422B",
":  c #49442D",
">  c #474A2C",
",  c #4B4B2C",
"<  c #504F2D",
"1  c #4B5127",
"2  c #4E522C",
"3  c #4D5829",
"4  c #51552D",
"5  c #525A2D",
"6  c #474331",
"7  c #4C4632",
"8  c #4E4B32",
"9  c #4D4738",
"0  c #514D33",
"q  c #554E3A",
"w  c #4E5132",
"e  c #545434",
"r  c #555B33",
"t  c #595C35",
"y  c #555238",
"u  c #5A553B",
"i  c #565A39",
"p  c #5C5C3B",
"a  c #5C622E",
"s  c #556031",
"d  c #5B6335",
"f  c #5C6935",
"g  c #5E633A",
"h  c #616637",
"j  c #636B34",
"k  c #62653D",
"l  c #646B3C",
"z  c #696D3F",
"x  c #69703E",
"c  c #5D5642",
"v  c #5E5B41",
"b  c #605642",
"n  c #615C42",
"m  c #645D49",
"M  c #6B5F4A",
"N  c #5D6040",
"B  c #656443",
"V  c #696446",
"C  c #666943",
"Z  c #6B6C45",
"A  c #67644A",
"S  c #6C644B",
"D  c #6D6A4A",
"F  c #71664E",
"G  c #726A4E",
"H  c #6C7141",
"J  c #6F7349",
"K  c #717645",
"L  c #74734B",
"P  c #7A7C4C",
"I  c #6F6650",
"U  c #6B6852",
"Y  c #726751",
"T  c #746B52",
"R  c #786F54",
"E  c #7B6E59",
"W  c #757253",
"Q  c #7A7256",
"!  c #7B7952",
"~  c #767059",
"^  c #7C735A",
"/  c #7E7B5A",
"(  c #81765D",
")  c #82795E",
"_  c #857C62",
"`  c #887F65",
"'  c #827E71",
"]  c #7D804C",
"[  c #85815B",
"{  c #8A8265",
"}  c #8E8867",
"|  c #86806A",
" . c #8D846A",
".. c #90876C",
"X. c #92896E",
"o. c #878476",
"O. c #898479",
"+. c #8C8879",
"@. c #918C7F",
"#. c #928D82",
"$. c #939083",
"%. c #999683",
"&. c #9A9980",
"*. c #979288",
"=. c #989488",
"-. c #A19C8E",
";. c #A49E92",
":. c #A0A085",
">. c #A7AA85",
",. c #A2A38C",
"<. c #A6A193",
"1. c #ABA695",
"2. c #AAA990",
"3. c #ABA699",
"4. c #AFAA9B",
"5. c #B2AF97",
"6. c #B1AC9E",
"7. c #B2ADA0",
"8. c #B6B1A2",
"9. c #B9B4A3",
"0. c #BCB8A7",
"q. c #BAB6AA",
"w. c #BEB9AB",
"e. c #C1BDAC",
"r. c #C2BDB0",
"t. c #C5C1B1",
/* pixels */
"q.<.8.8.<.;.q.e.1.0.t.3.3.7.#.' #.6.0.8.8.0.3.3.7.r.9.6.r.e.*.#.",
"$.~ ^ _ ^ F _ X.^ _ X.E F m +   u T ~ Q ) ^ Q / ~ ^ ^ Q ..( 9 @ ",
"6. .| R I D E ^ T Y E Y A n 7 : G Q S Y T D V D A M Y T R M q 6 ",
"e.{ Q D D A S I F M Y D C Z 8 0 { ^ A D V F D G G V F B n n u 9 ",
",.K ] L Z D v g ] ! G k B e o & k g z P p p C z Z L l d l d l g ",
"o.2 j g H l 4 3 j l H p e = $ 2 1 d k p y < g Z k k e , r r = > ",
"o.o : r 5 4 2 k 4 1 r e e . o . . . & o +   = u u , @ o o o X @ ",
"#.6 7 , = * 9 , o + 0 + + 0 u 7 7 ; + : 7 + * * * * @ 7 7 : 9 q ",
"6.T _ _ G E | ( < o o + u { / _ ..E T ( ^ m ; & & B ) ) { ` { { ",
"1.T T T G T R Y M q @ T ` ) T Q ( G ^ ( T I c 0 8 ( { ^ R ) E ^ ",
"2.G F Y F F T G n u < ` { G D Y G G Y F Y A u 8 D | ^ G G F F ~ ",
"2.Z F Y Y F V B u u * B W I V D D F F S D A p u W ! G G G n Z T ",
"1.Z C S ^ D d z 4 . = 4 r A Z C z V F F A e e - 4 s Z P D S B A ",
"-.B p p B C d k % . & & p r L C z J Z K k p , , g l f ] l C C B ",
"%.k g r 5 r , ; - .   + , 5 j p r a 4 5 5 5 & & e r e 4 3 3 s i ",
"+.4 4 4 - . 7 : : + o + . & = & & . ; $ O + & ; o @ : . . & . > ",
"O.+ = F Q G { Q T ) E T ^ Y n & * o 7 n V V D E ^ Q T ^ E I + ; ",
"-.Q ^ ` _ _ / Q ^  .Q Q ) ^ Y 0 y T { ) ( T T ^ ` _ Q ( ^ Y @ ; ",
"1.` ) R T T L G Y T F F F S c 9 u { [ R T M V G T T Y Y Y m @ @ ",
"9. .Q A A D Z I Y D M V u A m 0 + z L G Y M V S S L G D G ~ u 6 ",
"%.k L l r g g l C N T g 5 t i & = k J B C g l g p z l t x g i > ",
"-.h x K f C d l f e , 4 t 4 * & p k < 4 r r f d r C g l d 3 > > ",
"+.& - = , 2 e t - X . & + o   & ,       & * = - 1 e - h w o . y ",
"*.0 0 y y 0 @ o $ o c q u n u n 0 0 u u y : X + & o y i v y c v ",
"5.R ( ` ) ( M + i V ` ^ _ | ) Q Y G _ ..( F b 7 ; n { ..{ ( {  .",
";.F Y ) ( G ( y 8 / _ ^ T T G F G F E Q Y E _ n : Q X.) R G ( ^ ",
"5.P B S L G M u & g Q G T G G R G G Y G G G A c 8 Q [ G A S F ^ ",
">.) P Z D B S u $ r h k G G F Z K G V V D G W m 7 W } W n V B ~ ",
",.x K G V D z 4 = 2 l P D k Z D Z Z D T C Z Z c ; k Q A p g J U ",
"1.k f H k p e & $ - 5 Z Z r 5 l C i N N p l l , . 5 d l Z j j W ",
"&.y l l t , , 2 2 + . $ 4 - ; y u , w > ; e r : : = # & r K 5 g ",
"+.; > - ; & & & ; @ @ O & @ @ 6 ; @ @ O @ @ ; @ 6 @ X O ; 8 ; 9 "
};
