/* XPM */
static char *bf26193bd25443e0f26ebb7b50a52bd9MnfEyDGvcmkVBtjK[] = {
/* columns rows colors chars-per-pixel */
"64 64 252 2 ",
"   c #0C0B0B",
".  c #0A0806",
"X  c #140B0B",
"o  c #14120B",
"O  c #181714",
"+  c #120F11",
"@  c #251B18",
"#  c #2D160D",
"$  c #28221B",
"%  c #3C221D",
"&  c #262725",
"*  c #382924",
"=  c #373736",
"-  c #1E201F",
";  c #45291D",
":  c #442C26",
">  c #543528",
",  c #4C3731",
"<  c #663B2E",
"1  c #753618",
"2  c #55423B",
"3  c #72493B",
"4  c #4B3E45",
"5  c #474846",
"6  c #595956",
"7  c #564E4B",
"8  c #775448",
"9  c #7A5953",
"0  c #6A504D",
"q  c #5E615D",
"w  c #7A6958",
"e  c #6C6C6A",
"r  c #686864",
"t  c #73726D",
"y  c #7F7969",
"u  c #747473",
"i  c #7B7A75",
"p  c #7C7B79",
"a  c #787778",
"s  c #716D69",
"d  c #5D6162",
"f  c #8A4F32",
"g  c #99653B",
"h  c #88594A",
"j  c #905B4F",
"k  c #AD5C54",
"l  c #886455",
"z  c #996657",
"x  c #926A54",
"c  c #A56A57",
"v  c #B16F55",
"b  c #9A7469",
"n  c #8C736E",
"m  c #A87567",
"M  c #B67B68",
"N  c #AA7C74",
"B  c #AC7068",
"V  c #C4725C",
"C  c #C57867",
"Z  c #D07B71",
"A  c #C55957",
"S  c #7B8176",
"D  c #D39D37",
"F  c #D9A23D",
"G  c #82837E",
"H  c #828977",
"J  c #95836F",
"K  c #B98369",
"L  c #AA8478",
"P  c #B98677",
"I  c #B29171",
"U  c #CD9350",
"Y  c #DEA947",
"T  c #D5A958",
"R  c #E5AB46",
"E  c #E9B44B",
"W  c #F3B74C",
"Q  c #E6AE58",
"!  c #ECB955",
"~  c #EBB55A",
"^  c #EDBB5B",
"/  c #E8B456",
"(  c #F3BC55",
")  c #F3BD5C",
"_  c #F7BA56",
"`  c #C9886A",
"'  c #D38C6E",
"]  c #CC8C73",
"[  c #C68777",
"{  c #D58C7C",
"}  c #D58877",
"|  c #C99277",
" . c #D39374",
".. c #DB937C",
"X. c #DC9B7C",
"o. c #D79777",
"O. c #D6966E",
"+. c #E2987C",
"@. c #D8AB6B",
"#. c #D9B678",
"$. c #D2A871",
"%. c #E3AB69",
"&. c #E9B868",
"*. c #F3BD63",
"=. c #F5BB67",
"-. c #E1A27C",
";. c #E8B778",
":. c #F0B872",
">. c #F6C54C",
",. c #F5C25B",
"<. c #FBC45C",
"1. c #F6CA5C",
"2. c #FCCA5D",
"3. c #F6C355",
"4. c #FAD35C",
"5. c #F5C364",
"6. c #FCC562",
"7. c #F5CB63",
"8. c #FCCC63",
"9. c #FBCB6B",
"0. c #F7C76C",
"q. c #FBD265",
"w. c #F6D16D",
"e. c #FBD46B",
"r. c #FBD768",
"t. c #EBC477",
"y. c #F5CC73",
"u. c #F7C875",
"i. c #FBD473",
"p. c #FED971",
"a. c #F9D478",
"s. c #EFC161",
"d. c #7D7D85",
"f. c #778383",
"g. c #858583",
"h. c #8A8A85",
"j. c #8C8C8A",
"k. c #878885",
"l. c #928E8A",
"z. c #8D948C",
"x. c #93928D",
"c. c #949387",
"v. c #949492",
"b. c #999693",
"n. c #9A9A95",
"m. c #9D9D9A",
"M. c #969996",
"N. c #8C9392",
"B. c #A19E9B",
"V. c #A89E95",
"C. c #B09186",
"Z. c #9EA19C",
"A. c #9FA196",
"S. c #A3A39D",
"D. c #A9A79C",
"F. c #B8AB97",
"G. c #9D9FA1",
"H. c #A59EA2",
"J. c #9EA2A4",
"K. c #9FB0A8",
"L. c #A5A5A2",
"P. c #A7A9A3",
"I. c #ABABA5",
"U. c #ADACAA",
"Y. c #A9A6A5",
"T. c #B0AEAB",
"R. c #B3AAA5",
"E. c #AFB1AB",
"W. c #AFB4A7",
"Q. c #B3B2AD",
"!. c #B9B6AB",
"~. c #AEB4B3",
"^. c #B5B5B2",
"/. c #BAB6B2",
"(. c #B6BAB4",
"). c #BBBBB5",
"_. c #BCBCBA",
"`. c #B7BBBA",
"'. c #AFAFB1",
"]. c #C89688",
"[. c #DC9C83",
"{. c #DC9C8B",
"}. c #D69686",
"|. c #C59793",
" X c #D8978B",
".X c #E49B83",
"XX c #E39A8B",
"oX c #E59D93",
"OX c #DDA284",
"+X c #D9A58C",
"@X c #C9A496",
"#X c #DAA395",
"$X c #C6B497",
"%X c #D0B38C",
"&X c #E4A285",
"*X c #E2A48B",
"=X c #E9A989",
"-X c #E6A393",
";X c #E9A897",
":X c #EFAE93",
">X c #C8B9A5",
",X c #C1BEBB",
"<X c #C4BCB4",
"1X c #CCB6A5",
"2X c #E8B4A6",
"3X c #F2B4A7",
"4X c #BEC1BC",
"5X c #BBC6B4",
"6X c #BBC0AA",
"7X c #D9C497",
"8X c #E7C484",
"9X c #F1CD8D",
"0X c #DACAAB",
"qX c #C2C2BD",
"wX c #CBC5BC",
"eX c #C6C7B9",
"rX c #D3C9BB",
"tX c #CECBA9",
"yX c #E1D9B5",
"uX c #BBBDC3",
"iX c #C4BDC4",
"pX c #BFC6C0",
"aX c #C5C5C2",
"sX c #C9C6C3",
"dX c #C6CAC3",
"fX c #CBCBC5",
"gX c #CDCDCA",
"hX c #C8C8CA",
"jX c #D1CDCB",
"kX c #D1CCC4",
"lX c #CDD1CC",
"zX c #CBD1C6",
"xX c #D3D3C6",
"cX c #D3D3CD",
"vX c #D8D7CB",
"bX c #CDD6D4",
"nX c #D4D5D2",
"mX c #D8D6D3",
"MX c #D5DAD4",
"NX c #DADAD5",
"BX c #D6DCD9",
"VX c #DBDDDA",
"CX c #D6D6D9",
"ZX c #CECED3",
"AX c #E0DDD8",
"SX c #E2D4C9",
"DX c #DDE2DB",
"FX c #D5E1D5",
"GX c #E2E2DB",
"HX c #DBE4E5",
"JX c #E2E6E2",
"KX c #D4DBE1",
/* pixels */
"t B._.nXhXe L.Y.sX^.sX_.CXZXa a U.U.mX^.s U.c.i sXD.dXMXG I.Y.k.g.r /.jX,X4XnXVXgXL.qXY.(.mXMXBXvXb.b.l.a sXcXcXh.I.x.L.Q.Q.dXlX",
"U.fX).mX_.g.Y.^.mXsXgX).).^.sXsXQ.m.cX_.P.B.).qXmX).mXMXm.G sX(.pXS.qXQ.Y.).4XVX).).sX^.qXDXmXMXsXm.p l.p cXcX_.g.P.a x.a L.qXlX",
").fX_.mXaXj.a /.mXgXaX'.k.^.).B.sXsXAXqXS.b.!.).mXQ.MXNX^.G sXmXMXa S.m.fXnXMXVXgXn.Y.).mXmXCXDXcXS.S.^.i mXVXmXmX).h.^.h.D.^.sX",
"gXcX/.mXgX^.nXNXmXmXmXgXn.aXn.Q.gXcXcXqXG m.b.b.cX_.cXlXn.m.cXNXBXZ._.).gXDXnXVXgXk.j.e ).DXVXMX(.a Q.S.t gXgXmXgX4Xx.gXa Y.Q.gX",
"cXmXgXNX,Xm.).mXGXgXnXsXk.S./.Q.4XqXVXcXY._.Q.h.GX(.lXnXn.).cXmXMXk.L.gXNXDXgX_.a = U.G ^.mXNX(.7 = k.g.x.VXmXDXmXgXt n.L.qXmX,X",
"mXcXcXVXNX^.g.mXmXmXaXI.U.gXgX!.mXsXNXcX).U.gXc.mX(.nXVXL.b.cXcX/.S.L.P.VXBXMXhXk.6 gXv.dXVXmX4Xg.e b._.sXmXmX(.j.qXG qXqXn.Q.qX",
"mXVXnXCX^.m.b.mXNXgXjX,X^.cXQ.I.dXL.gXGXqXl.D.k.gXcXlXVX^.p Q.6 = , 6 m.lXlXDXVX^.5 b.n.cXmXmXnXZ.r n.eXgXmXmXn.).^.Q.fXcXm.Q.).",
"MXMXCXVX_.m.j.sXmXgXVX,XS.gXqX).gXI.DXcX^.b.Q.I.mXP.4Xz.2 O O O O $ 7 n.lX~.HXCXY.u U.^.mXNXNXnXm.u cX_.qXGXlXY.jXp qXNXgXqXqXlX",
"hXnXJXVXnX/.B.aXNX^.gXsXj.sXmX/.sXz.5XvXU.qXjX_./.e & O     o   . O @ 7 6 q 4X4Xx.G ^.gXlXJXDX_.s = b.sX).mXVXb.U.j.b.cXmXdXmXcX",
"_.JXMXVXMX).,XmXaXaX_.qXv.sXU.n.Y.G m.NXS.gXL.$ o . . +   . . . . . o . o O & L.cXfXsXVXDXMXVXBXQ.e n.sXNXmXmX).Y.Y.h._.mX^.Q.cX",
"U.U.gXmXn.Y.B.,X/.U.m.nXqXcXS.B.S.i n.Q.n l.6 . o . .   . . +     X + X X @ @ 4 Z.Z.Y.qXqXmXqXgXlXn.b.n.n.mX^.DXmXY./.gXsXL.^.mX",
"b._.sXVXsXg.j.j.NXS.T.cXjXQ./.S.Q.6 c.,XT.u O O . . + + X X O O O . O @ O O @ @ = k.m.Y.E.NXQ.P.P.x.qXS.n.NX^.NXgX_.mXgXgXqXnXgX",
"b.R./.NXqXT.h.l.MX_.,XsXg.U.sXY.qXD.wX_.^.d + o +     X % > ; # @ X $ @ @ $ & O O 7 ).sX_.DXcX4Xn.e Y._.L.lXdXDXgXI.k.sXgX).mX4X",
"B./.).nXfXgXT.I.fX^.jX,Xn.Q.gX^.dXk.wX).(.5   X . o # ; h M M j < h 3 h l > # : @ * sXqXlXmX).Z.u & t qXL.dXZ.m.u m.n.^.sXqXlX^.",
"jXmXqXmXL.sX_.,XgXb.,XgX).T.m.B._.r qX,XZ.& X # > h m P ` } ' C } } } } ..}.B j @ $ R.Q._.MXgX6 U.7 k.S.m.cXQ.P._.k.U.gXmX(._.).",
"T.cXgXmXmXgXb.U.NXx.sXNXmXsXU.).).I.D._.^.O # l C ` } +.+.o.'  . .'  .X.X.[.{.{.7 @ c.^.qXDX_.r ^.b.n.Y.x.cX).S.qXI.gXgXgXcXmXcX",
"Q./.jXmXfXI.b.v.cXY._.cXS.b.D.h.,XS W.sX'.o > C C ..XX{ ....+.o.....} XXXXXX-X{.b # a gXgXNX).e _.r n.sXP.sXqXG j.).m.).fX_._.cX",
",XY.sXGXT.h.qXm.cXp L.mXh.^.cXgXcXi G jXu @ 8 C '  .| ] ] X.[.{.[.} X.`  .OX+X;XL , G dX).jXQ.M.r r u p l./.x.fXaXU.r j._.L.).gX",
",Xn.jXcX^.l.n.Q.mXgXcXsX^.m.sXsXqXQ.xXsXp # h ' o.` o.+.=X.X[.+X+X[..X+..XXX#X2X#Xl c.Z.(.mXlXI.Q.k.x.r m.mXqXGXcXY.Y.x.qXS.sXcX",
"n.S.cXNXlXsXmXcXNXsXsX).I.U.S.k.dXY.sXsXD.: c  .` | #X#X X-X{.;X#X XC.|.|.|.|.2X3XL 6 (.dXDXQ.cX).a ^.n.sXmX4XlXgXY.I.z.lXcXcXcX",
"mXmXqXmXsXQ.qXP.mXgX/.aX^.).b.U.(.^.qXmX).2 P ` B 9 0 7 0 l N  XP z 9 , * , 2 L 2X|.s 4XpXDXmXgXQ.n.).h.x.nXgXNXgXcX^.r qXsXGXcX",
"gXcXgXVXcXx.e m.cXb._.gXb.b.L.T.I.s Y._.I.9 P M > : 0 8 l x m P P m z l N L b n 2X|.n Q.4XDXGX/.P.n.^.n.j.NXnXVXJXgX^.L.).qXcXmX",
"gX)._.gXcXQ.b.I.mX_.S.gX_.T.cXgXFXjXY.`.D.9 P z l P P M c `  .OX{.}.c k z B C.|.@X@Xn l.fXDX).U.6 t ).S.n.fX4XnXgXU.sXsX_.qXmXcX",
"/.S.fXcXaXP.h.b.mXL.U.sXx.j.nXVXmXb.k.`.D.b P P [ z 8 % 9 j  XoXXX[ 8 0 , 9 b #X2X|.F.<XmXDXqXaXx.r ^.qXI.sX(.NXgX).m.4X4X).mXcX",
"mXL.gXgX_.n.^.qXCXgXMXgX/.)._.4XMX4XsXkX>Xb K { ] M B h h M ...X-X{.c z B [ +X X;X|...[ ,XBXwXW.p r L.4XY.aX(.VXMXaXb.U.nXlXnXMX",
"/.v.aXgXm.j.sXjXgX_.VXnXaX_.U.Q./._.fX<Xb P M }.}.{.#X[ [ }..X+.;X3X X}.Z { XX-X2X#X:X[ jXHXsXdXv.n.b.U.eXgX(.DXBX^.b.m.lXdXMXlX",
"sXAXmXcXgX).Y.Y.MXsXhXgXv.k.Y.I.R.S.5X1X X..M } -X-XXXXXXXXX[..X-X;X3X{ ..}.{.3X2X#XC [ AXBXgXJ.r = m.n.sXGXhXBXMX_.x.k.lXdXlXlX",
",XCX_.CXCXH.m.L.gXm.k.^.5 G _.U.gXg.z.$XZ C K [.-X;XXXXX.X....;X;X3X{.] { -X;X2X2X XV { sXHXlX'.v.g.x.a S.nXMXVXZXY.u j.aXdXBXhX",
").^.aXhXaXL.v.n.aX'._.Y.n._.jXlXhXj.P.C.} Z K { XX3X:X-X.X{ }.3X-X XoXC ..XX;X3X;X}.V [ R.bX_._.^.r t e a _.~.aX_.L.6 a _.aXZXlX",
"M.gXM.aXL.Y.gX`.ZXn.m.hXhXnXaX/.4XN.f.wXM v ` ].*X;X;X;X{.[ M [ {.P B }.{.[.;X3X;X[ }.P /.BXE.aXnXY.^.j.x.aX~.'.L.aXuX_.uX^.HXhX",
"v.gXa 4XMX_.aXgXgX).'.).v.J.).j.4XY.hX_.L } C M *X.X;X-X].M z j N 3 8 b ].+X+X;X}.P @XF.iXZXdX_.L.J.)./.m.aX^.aXG.aXaXJ.U.Y.aX~.",
"r e e d.v.6 j.k.v.e e a & 5 a e S q a h.J } } h o.[.;XB j m N b B B N N h M }.=X[ 3 C.n d.J.N.e = & k.v.a N.J.J.a d.M.m.m.v.G.m.",
").aXaX/.gXQ.n.m.fXgXsXaX6 g.4XY.Y.dXqXcX!.!.<Xw K [.{.h M } Z C A k C [ z c }.o.J R.^.hXjXMXlXm.).v.L.nX).aXaX`.u aXaX4XgXpXMXlX",
"aXCXgXaXsX^.gXL.lXsXL.gXgXU.mXlXlXL.h._.qX!.kXD.z ] ] K K C Z } } Z { ;X}.P ].M J <Xm.JXgXJXlXv.aXY.p qXqXgX4XnXlX^.L.S.aX_.VXlX",
"aXMXgXsXmX/.).m.mXQ.Q.Q.I.4X).gXsXP.cXZ.Q.S.xX!.3 v ..] *X-XoX XM Z oX3X2X].M z V.I.P.CXmXBXBXu Q.L.b.L.qXmXnXVXMXMXaXG dXsXCXlX",
"Q.E.S._.NXcXmXgXVXY.Y.Q.I.P.sX_.cXU.qX)._.U.<XD.l c ] ] X.=X{.z < h ].;X X[ K h V.i k.gXCXNXDXY.t 5 (.Q.).mXMXVXMXVXMXk.).Q.MXMX",
"E.mXS.).VXsXcXcXcXmXY.fXS.i Q.).).sXI.xXS.c./.D.L f ] K X.OX].h , h @X#X#X| m P rXeXZ.qXCXJXMXVXmX).E.Q.4XfXMXlX(.4X(.n.sX_.NXcX",
"4XqXS.qXmXjX).L.eXcXjXfX,Xc.qXW.S.xXgXcXQ.A.qXc.P M c K P P N 0 7 9 L C.P m c +XSXGXZ.Q.mXDXDXMXDXL.z.S.I.mXmX4Xm.U.b.M.(.qXVXmX",
"(.sXqX_.cXQ.k.).).xXsXgXB.k.qXeXwXQ.fXcXqX/.!.wX| [ c f l l 2 * * , , l 8 j +X*XrX/.S ,XmXDXFXDXcXI.L.qX_.cXlXDXL.^.Q.nXqXqXlXlX",
"eXDXgX).VXm.t S.!.gX_.).x.D._.eX!.S.vXcX).Q.W.xX+X .| x > > * $ @ * * * 3 ].| =X$XD.G S.,XmXlXDXcX(.Y.U.x.lX4XlXZ.mX).sXgXsXE.nX",
"Q.xXcX!.cXsXkX<XcXmXfXVX_.S.eXwXbXrXrXkXkXH !.vX+X|  .` z < # @ O # # h | | [.&X!.J H.jXkXcXxXZXm.q (.qXP.eX<XwXn.sXlXmX4XQ.E.cX",
"/.mXsXqXgX/.kXcXmXgXcXgXb.W.!.xXAXvXwXsXqXH vXNX}.] ' ` ` K x 8 8 l b | [.o.X.=X[ 3 F.mXFX5XI.B.wXS.r S.wXxXnXKXMX_.Z.L.sXlXmXmX",
"P.gXmXmXcXqXQ.NXNXxXD.qXV.c.eXGXxX/.mXxXeXw 9 b M ] &XX.' ] ] ` ` ` ]  .o.X.-.&X}.1 #.7XtXtX(.P.NXP.t l.n.^.lXBXNX_.Q.k.qXU.I.lX",
"^.mXfXvXcXW.I.xXvXxXD.).W.Q.4XdXqXgXrX0X%X# f v v ] &X.X . .' ` ' ` ' +.&X=X=XOX@Xg a.u.;.9X0XF.nXQ.c.Z.M.).fXvXmXNXcXP.NXQ.4X).",
"u dXNXxXgXqXfXzXvXfXcXmXsX(.dXlX!.F.$.T :.1 k v C ' +.&X&XX.o.' ` '  .&XOX[.*X*X| T i.^ %.;.u.@.7XJ <X^.bX(.eXeXL.4XmXI.mXsX_.qX",
"(.(.mXmXmXD.W.vXeXeX_.lXx.y tX0X#.@./ R 0.U f M `  .X.&X*X[.[.[.X.OXX.[.OX+X;X*X` 9.) ! 5.u.,.=.Q ;.%XC.!.bXbX~.lXS.S.Q.(.).mXsX",
"A.Q.xXcX_.t S.).rXxXm.).w I $.@.Q / ( W _ ^ f c ` o.X.X.OX[.X.o. .] |  .OX*X .` %.i.E <.6.5.0.t._ R 9.#.I >X!.5XxXn.).vXeXeXQ.xX",
"i x.eXqXgX_.eXm.eXrXD.eX$X$.Q W ( ) *.=.R >.Q f M &X=X&X-.X.X.o.o.' X.X.OXX.` o.q.,.E a.u.0.9X&.! ^ *.0.t.%X>X!.P.b.qXxXI.(.D.cX",
"N.D.!._.gX!.kXP.uXxXI T T ~ ~ ~ ,.) ) ) _ _ W W g [ -.=XX.-X{.O.O.o.X.-XX.` U u.,.,.6.8.9.9.u.0.( ) ~ *.0.t.8X8XwXsXMXeXcXhXCXFX",
"S.Y.T.).).c.).,X$X7X$.%.~ *.) ) 6.6.6.<.<.<._ _ ) %.$.O.X.*X-X&XoX*X;X-.O.%.u.9.<.6.8.9.9.i.9.5.( <._ ,.6.0.t.8X7X0X_.M.dXeXeXZX",
"wX_.~.D.W.H R.0X@.%.*.) ,.6.6.,.8.8.8.8.8.8.2.<.3.8.9X9.:.@.X.&XoX&X=X:.:.9.9.^ 8.8.8.9.9.e.9.5.3.8.<.<.<.5.u.t.t.8X$Xv.lX5X6XhX",
"Y.fXFXeXcXwX0X@.~ ! 6.<.<.6.<.,.8.8.8.8.8.8.8.8.7.1.u.3.2.6.=.:.%.:.5.5.<.*.,.9.q.9.9.9.e.q.8.) <.8.<.<.<.<.9.u.u.&.8X$XmXlXzXwX",
"dXvXxX4XwX%X%.^ ) 6.6.6.6.8.<.2.8.8.8.8.q.q.q.q.q.q.9Xu.4.1.>.^ >.1.>.) 8.9.7.q.e.e.q.q.q.q.8.) 2.6.,.<.<.<.9.9.0.=.0.t.0XCXCXdX",
"k.W.)./.7X&._ ,.*.9.,.8.9.8.6.2.q.q.q.q.q.q.r.r.q.7.w.y.4.q.4.i.1.1.i.e.u.0.i.q.r.q.q.q.q.q.8.,.8.6.<.2.2.<.8.5.^ =.=.0.8X1X).bX",
"D._./.$X#.E ( ) 5.6.,.8.8.8.8.<.q.q.q.q.q.r.r.r.r.r.q.i.w.4.7.i.p.7.0.9.y.e.p.q.r.q.q.q.e.q.8.<.8.8.8.2.2.2.6./ ! ^ =.0.t.#.F.CX",
"n U.F.;.^ ,.<._ 6.) 2.8.8.q.q.1.q.q.r.q.q.q.r.r.r.r.7.a.9Xr.e.4.7.p.r.7.q.p.r.r.r.q.q.q.e.q.7.6.2.8.8.<.3.2.<.Y ! ) s.&.0.9X0XnX",
"H ^.%X) 2.<._ 3.<.<.,.8.8.q.7.7.q.r.r.q.q.e.r.r.e.r.q.w.a.a.a.p.i.y.w.e.r.r.e.i.w.e.q.q.q.e.7.7.7.8.8.8.2.1.2.D E ! ^ ^ =.t.7XyX",
"J.>X@.<.3.8._ <.3.<.3.8.8.q.q.8.q.r.r.q.q.e.r.r.e.r.q.r.y.y.y.w.y.w.w.e.p.e.e.e.w.e.q.q.q.q.q.7.8.8.8.8.1.1.2.F E ( ^ ^ ) &.8X7X",
"_.#.( _ <.1.1._ ( <.3.2.8.q.q.q.q.r.r.r.r.r.r.r.r.q.q.r.a.a.y.y.y.w.e.p.p.r.r.e.e.e.e.e.q.q.q.q.7.8.8.8.1.1.8.Y R ( ! ! ! ~ :.t.",
"1XQ >.( <.1.7._ ( <.<.<.8.q.q.q.q.q.r.r.r.r.r.r.e.q.r.r.p.a.a.y.i.i.p.e.r.e.e.e.e.e.e.e.q.q.e.e.7.7.8.8.1.1.8.E R ( ! ^ ! ~ *.Q ",
"%.E ( 6.W <.7.>.( <.<.<.q.8.q.q.8.q.r.r.r.r.r.q.i.e.r.r.r.e.i.a.i.e.p.e.r.r.e.e.e.w.e.e.e.e.e.e.e.7.9.8.8.1.8.! R ! E ! ~ ~ *.Y ",
"W ( 5.5.W _ 6.>.( 2.<.3.q.8.8.q.8.q.r.r.r.r.e.q.i.i.p.r.r.r.e.p.e.e.p.p.e.e.w.w.i.w.e.e.e.e.e.e.e.9.9.8.8.1.8.) R E E / / ~ ~ Y ",
"W ^ 5.,.8.E <.<.( 2.<.3.q.1.8.q.8.q.r.r.r.e.e.e.r.e.e.r.e.r.e.e.e.e.e.e.i.i.i.w.i.w.e.e.e.e.e.w.e.0.9.7.8.7.8.,.Y R E E / / Q D ",
"W *.W 2.7.E W =.! <.3.( q.1.8.q.8.q.r.r.r.e.e.e.q.r.r.e.r.e.i.i.e.e.w.w.w.i.i.i.i.e.w.e.e.e.e.w.e.7.9.7.8.7.7.5.Y R E W E / Y D "
};
