/* XPM */
static char * exit_o_xpm[] = {
"64 64 137 2",
"  	c #D2D4C3",
". 	c #798366",
"+ 	c #6C7858",
"@ 	c #7B8363",
"# 	c #222222",
"$ 	c #AA8D7A",
"% 	c #D3BFA9",
"& 	c #6D745A",
"* 	c #656B54",
"= 	c #707265",
"- 	c #757A63",
"; 	c #CED3C4",
"> 	c #576243",
", 	c #5B643B",
"' 	c #454B2A",
") 	c #3E4522",
"! 	c #555B42",
"~ 	c #CCCDC2",
"{ 	c #4B4D33",
"] 	c #775C55",
"^ 	c #4A5325",
"/ 	c #4C532B",
"( 	c #C7CBB7",
"_ 	c #434B1D",
": 	c #3D4A1C",
"< 	c #483B3A",
"[ 	c #5A6434",
"} 	c #556933",
"| 	c #3D441C",
"1 	c #444B23",
"2 	c #555D3A",
"3 	c #525533",
"4 	c #44452A",
"5 	c #4A4524",
"6 	c #6B7443",
"7 	c #7A854C",
"8 	c #5C6A33",
"9 	c #000000",
"0 	c #566030",
"a 	c #737C4B",
"b 	c #828D54",
"c 	c #879959",
"d 	c #434523",
"e 	c #242A12",
"f 	c #6C744B",
"g 	c #748244",
"h 	c #798444",
"i 	c #111111",
"j 	c #535C33",
"k 	c #3E441F",
"l 	c #797E53",
"m 	c #6D7B4A",
"n 	c #181C08",
"o 	c #42451D",
"p 	c #797E4D",
"q 	c #181C05",
"r 	c #69743C",
"s 	c #59652C",
"t 	c #55632C",
"u 	c #3C4A15",
"v 	c #494F29",
"w 	c #586040",
"x 	c #191C0B",
"y 	c #62232F",
"z 	c #161906",
"A 	c #22290A",
"B 	c #56633A",
"C 	c #556333",
"D 	c #3E4A22",
"E 	c #46522A",
"F 	c #4D5A2B",
"G 	c #8F4029",
"H 	c #22290E",
"I 	c #364419",
"J 	c #5F6235",
"K 	c #74834B",
"L 	c #181D0D",
"M 	c #7B8453",
"N 	c #94A263",
"O 	c #3D461C",
"P 	c #4A5A25",
"Q 	c #3C4415",
"R 	c #4B5A29",
"S 	c #919E55",
"T 	c #474A23",
"U 	c #74823D",
"V 	c #6D7B43",
"W 	c #494D24",
"X 	c #484A1C",
"Y 	c #434C16",
"Z 	c #6C7B3C",
"` 	c #84934C",
" .	c #8C9B5C",
"..	c #727D44",
"+.	c #364314",
"@.	c #929D5B",
"#.	c #72D6CE",
"$.	c #727A37",
"%.	c #78863D",
"&.	c #818945",
"*.	c #FDF7ED",
"=.	c #6D8137",
"-.	c #72754B",
";.	c #484A28",
">.	c #737B53",
",.	c #76894C",
"'.	c #717544",
").	c #849353",
"!.	c #838C5B",
"~.	c #93A15C",
"{.	c #86875A",
"].	c #969766",
"^.	c #383E23",
"/.	c #4A462A",
"(.	c #606840",
"_.	c #5E6A44",
":.	c #414415",
"<.	c #7C8B4C",
"[.	c #98A56A",
"}.	c #7E9151",
"|.	c #758251",
"1.	c #8EA15A",
"2.	c #6B7B35",
"3.	c #707D44",
"4.	c #727D3D",
"5.	c #404D14",
"6.	c #435315",
"7.	c #423F25",
"8.	c #34361C",
"9.	c #3D3E25",
"0.	c #4E612B",
"a.	c #4E6333",
"b.	c #3F3C20",
"c.	c #364A16",
"d.	c #8E9B62",
"e.	c #333333",
"f.	c #2A2A3A",
"  . + @ # # $ $ $ $ # # % % % % % % # # # # # # # # # # # # # # # # # # # # # # # # # # # # % % % % # # $ $ $ $ $ $ # # & * = - ",
"; > , , # # $ $ $ $ # # % % % % % % # # # # # # # # # # # # # # # # # # # # # # # # # # # # % % % % # # $ $ $ $ $ $ # # ' ) ! > ",
"~ { # # $ $ $ $ % % % % # # # # # # ] ] ] ] # # ] ] ] ] ] ] # # ] ] ] ] ] ] # # ] ] ] ] ] ] # # # # # # % % % % $ $ $ $ # # ^ / ",
"( ) # # $ $ $ $ % % % % # # # # # # ] ] ] ] # # ] ] ] ] ] ] # # ] ] ] ] ] ] # # ] ] ] ] ] ] # # # # # # % % % % $ $ $ $ # # _ : ",
"# # $ $ $ $ % % # # # # ] ] ] ] ] ] < < < < # # < < < < < < # # < < < < < < # # < < < < < < # # ] ] ] ] # # # # % % $ $ # # # # ",
"# # $ $ $ $ % % # # # # ] ] ] ] ] ] < < < < # # < < < < < < # # < < < < < < # # < < < < < < # # ] ] ] ] # # # # % % $ $ # # # # ",
"$ $ # # % % # # ] ] ] ] # # < < < < # # # # # # # # # # # # # # # # # # # # # # # # # # # # ] ] < < < < ] ] ] ] # # # # $ $ $ $ ",
"$ $ # # % % # # ] ] ] ] # # < < < < # # # # # # # # # # # # # # # # # # # # # # # # # # # # ] ] < < < < ] ] ] ] # # # # $ $ $ $ ",
"$ $ % % # # < < < < < < # # # # # # [ , } [ | 1 2 [ , 3 4 4 5 3 , 6 7 8 9 0 a 9 9 b c 9 9 ) # # # # # # < < < < < < # # % % $ $ ",
"$ $ % % # # < < < < < < # # # # # # 9 9 9 9 9 9 9 9 9 9 5 ' d 9 9 9 e 9 9 9 f 9 9 g h 9 9 9 # # # # # # < < < < < < # # % % $ $ ",
"% % # # # # < < < < # # i i j , k 9 9 9 9 9 9 9 l m 9 n o d o 9 p 9 q 9 9 9 9 9 9 9 9 9 9 m p a r s t u # # # # # # # # # # % % ",
"% % # # # # < < < < # # i i / v 9 9 w 9 9 9 9 9 9 9 9 9 9 9 x 9 9 9 9 9 9 9 9 9 9 9 9 9 9 9 9 9 9 / / / # # # # # # # # # # % % ",
"% % # # ] ] # # # # y y i i / z 9 9 9 9 9 9 9 9 9 A 9 9 9 9 9 9 9 9 9 9 9 9 9 9 9 9 9 9 9 9 9 9 9 9 1 B B C # # ] ] ] ] # # # # ",
"% % # # ] ] # # # # y y i i / 9 9 9 9 9 9 9 9 9 9 9 9 9 9 9 9 9 9 9 9 9 9 9 9 9 9 9 9 9 9 9 9 9 9 9 9 D E F # # ] ] ] ] # # # # ",
"# # < < < < ] ] # # G G i i 3 9 9 9 9 9 9 9 9 9 9 9 H 9 9 x 9 9 9 9 9 9 9 9 9 9 9 9 9 9 9 9 9 9 9 9 9 I : C # # # # < < < < # # ",
"# # < < < < ] ] # # G G i i n x 9 9 9 9 9 9 x 9 9 9 J 9 9 x 9 9 9 9 9 9 9 9 9 9 9 9 9 9 9 9 9 9 9 9 9 K L 9 # # # # < < < < # # ",
"# # < < < < # # i i G G i i 9 9 9 9 9 9 9 9 9 9 9 9 M 9 9 9 9 9 9 9 9 9 9 9 9 9 9 9 9 9 9 9 9 9 9 9 9 N c 9 O t # # < < < < # # ",
"# # < < < < # # i i G G i i 9 9 9 9 9 9 9 9 9 9 9 9 9 9 9 9 9 9 1 9 9 9 9 9 9 9 9 9 9 9 9 9 9 9 9 9 9 9 P 9 9 b # # < < < < # # ",
"< < < < < < # # G G G G i i x 9 9 9 9 9 9 9 9 9 9 9 9 9 9 9 9 9 Q 9 9 9 ) 9 9 9 9 9 9 9 9 9 9 9 9 9 9 9 9 9 R S # # # # # # # # ",
"< < < < < < # # G G G G i i 9 9 9 9 x x 9 9 9 9 9 9 9 9 9 9 9 9 9 9 9 9 T 9 9 9 9 9 9 9 9 9 9 9 9 9 9 9 9 9 9 U # # # # # # # # ",
"# # # # # # i i G G y y i i 9 9 9 9 9 9 9 9 9 9 9 9 9 9 9 9 9 V K 9 9 9 9 1 | 9 9 9 9 9 9 9 9 9 9 9 9 9 L 9 9 h 9 W # # ] ] ] ] ",
"# # # # # # i i G G y y i i 9 9 9 9 9 9 9 9 9 9 9 9 9 9 9 9 V 9 9 9 9 9 9 q _ 9 9 9 9 9 9 9 9 9 9 9 9 9 9 9 9 X 1 ) # # ] ] ] ] ",
"] ] ] ] # # G G G G y y i i 9 9 9 9 9 9 9 9 9 9 9 9 9 9 9 9 K 9 9 9 9 9 9 Y u 9 9 9 9 9 9 9 9 9 9 9 9 9 9 9 9 _ 1 | # # < < < < ",
"] ] ] ] # # G G G G y y i i 9 9 9 9 9 9 a m 9 9 9 9 9 9 9 9 9 9 9 9 Z `  .9 9 9 9 9 9 9 9 9 9 9 9 9 9 : 9 9 9 ..9 +.# # < < < < ",
"< < # # # # # # G G y y i i 9 9 9 9 9 9 9 9 9 9 9 9 9 9 9 9 9 9 9 9 9 ..7 P 9 9 9 9 9 9 9 9 9 9 9 9 9 9 9 9 9 9 9 _ # # < < < < ",
"< < # # # # # # G G y y i i 9 9 g M 9 9 9 9 9 9 @.@.9 P K 9 9 9 | _ _ 9 9 R K 9 9 9 9 9 9 9 9 9 9 9 9 9 9 9 T A 9 9 # # < < < < ",
"< < # # #.#.# # # # y y i i 9 9 9 9 9 9 9 P $.%.` &.9 9 9 9 9 ' 9 4 1 9 9 9 9 P Z 9 9 9 9 9 9 9 9 9 9 9 9 _ T 9 9 9 # # < < < < ",
"< < # # #.#.# # # # y y i i 9 A 9 9 9 9 9 9 9 9 U $.h 9 9 9 9 9 9 9 d 4 _ 9 9 b  .P 9 9 9 9 9 9 9 9 9 9 9 o T 9 9 _ # # < < < < ",
"# # # # #.#.*.*.# # y y i i 9 Y 9 9 9 9 P 9 =.=.9 9 9 9 9 9 9 9 9 9 o 9 9 9 9 9 9 9 9 9 9 9 9 9 9 9 9 9 9 d ' 9 9 9 # # # # # # ",
"# # # # #.#.*.*.# # y y i i 9 o T T 9 1 9 9 9 9 9 9 9 9 9 9 9 9 9 9 Q 9 -.9 9 9 A 9 9 9 9 9 9 9 9 9 9 9 1 d ;.9 9 Z # # # # # # ",
"] ] # # #.#.# # # # G G i i 9 9 ' d 4 d 9 9 9 9 9 9 9 9 9 9 9 9 9 9 9 9 9 9 9 9 9 9 9 9 9 9 9 9 9 9 9 9 9 d ;.9 9 Z # # ] ] ] ] ",
"] ] # # #.#.# # # # G G i i 9 9 4 5 1 1 9 9 M >.9 9 9 9 9 9 9 9 9 9 9 9 9 9 9 9 L 9 9 9 9 9 9 9 9 9 9 9 9 o ;.9 9 ,.# # ] ] ] ] ",
"< < # # # # # # i i G G i i 9 1 9 9 f '.9 9 9 9 9 9 a 9 9 9 9 9 9 9 9 9 9 9 9 9 9 9 9 9 9 9 9 9 9 9 9 9 9 9 9 m L 9 # # < < < < ",
"< < # # # # # # i i G G i i 9 u 9 9 a a 9 9 9 9 9 9 7 9 9 9 9 9 9 9 9 9 9 9 9 9 9 9 9 9 9 9 9 9 9 9 9 9 9 9 9 p 9 9 # # < < < < ",
"< < < < # # i i G G G G i i 9 9 9 9 9 9 9 9 9 9 9 q 9 9 9 9 9 Z ).9 9 9 9 9 9 p !.9 9 9 9 9 9 9 9 9 9 9 9 9 9 9 9 9 # # < < < < ",
"< < < < # # i i G G G G i i 9 K 9 9 9 9 9 9 9 9 9 9 9 9 T 9 9 g ~.R 9 9 9 9 9 {.].9 9 9 9 9 9 9 9 9 9 ^.9 9 9 9 9 9 # # < < < < ",
"# # # # # # G G G G G G i i 9 9 9 9 9 9 9 9 9 9 9 9 _ /.o 9 V 9 9 9 U 9 9 9 9 9 9 9 9 9 9 9 9 9 9 9 9 9 9 9 9 9 x 9 # # # # # # ",
"# # # # # # G G G G G G i i 9 9 9 9 9 9 9 9 9 9 9 9 : 5 o 9 7 9 9 9 ,.9 9 9 9 9 9 9 9 9 9 9 9 9 9 9 9 9 9 9 9 9 9 (.# # # # # # ",
"] ] ] ] # # y y G G y y i i 9 9 9 9 9 9 _., D D 9 9 9 9 :._ 9 9 9 9 9 9 9 9 9 9 9 9 9 _ 1 9 9 9 9 9 9 9 x 9 9 9 9 9 # # ] ] ] ] ",
"] ] ] ] # # y y G G y y i i 9 9 9 9 9 9 2 2 D D 9 9 9 9 1 _ _ 9 9 9 9 9 9 9 9 9 9 9 9 9 T 9 9 9 9 9 9 9 9 9 9 9 9 9 # # ] ] ] ] ",
"< < < < # # y y G G y y i i 9 9 9 9 9 9 1 1 9 9 9 9 Q 9 9 9 9 9 K 9 Y 9 9 9 9 9 9 9 9 9 9 1 D 9 9 9 9 9 9 9 9 : _ 9 # # < < < < ",
"< < < < # # y y G G y y i i 9 9 9 9 9 9 1 1 9 9 9 9 9 9 9 9 9 9 9 9 A 9 9 9 9 9 9 9 9 9 9 9 9 9 9 9 9 9 1 9 9 9 9 9 # # < < < < ",
"< < # # # # # # G G y y i i 9 9 9 9 9 9 | 1 9 9 9 9 9 9 K 9 _ 9 9 9 _ 9 9 9 9 1 : 9 9 : : 9 9 9 9 9 9 : D 9 9 9 9 9 # # < < < < ",
"< < # # # # # # G G y y i i 9 9 ..9 9 9 9 9 9 9 ,.g 9 9 9 9 o 9 9 9 9 R ,.9 9 9 9 9 9 9 9 9 9 9 9 9 9 9 9 9 9 <.R 9 # # < < < < ",
"# # # # #.#.# # # # y y i i 9 9 N [.9 9 9 9 9 9 9 9 9 9 9 9 1 4 T 9 9 }.N 9 9 9 9 9 9 9 9 |...9 9 9 9 9 9 9 R 1.<.9 # # # # # # ",
"# # # # #.#.# # # # y y i i 9 Z P 9 9 9 <.b 9 9 9 9 2.R L 9 4 /.;.9 9 9 P 9 9 9 9 g g 9 9 9 9 9 9 9 9 9 9 9 9 9 R 9 # # # # # # ",
"] ] # # #.#.*.*.# # y y i i 9 K 9 9 9 9  . .9 9 9 9 g g K 9 _ 1 T 9 9 9 9 9 9 9 9 ).c 9 9 9 9 9 9 9 9 : _ 9 9 9 9 g # # ] ] ] ] ",
"] ] # # #.#.*.*.# # y y i i 9 9 9 9 9 9 <.%.9 9 3.g 9 9 9 9 9 9 u 9 9 9 Z h ` 9 9 4.g 9 9 9 9 9 9 9 9 9 9 V 9 5.9 9 # # ] ] ] ] ",
"< < # # #.#.# # # # y y i i 9 9 9 9 ....g U 9 9 g V 9 9 9 9 p 9 Q 9 9 L g ).~.9 9 9 V 9 9 9 9 9 9 9 9 9 9 M 9 6.9 9 # # < < < < ",
"< < # # #.#.# # # # y y i i 9 9 9 9 9 9 9 9 V V 9 9 9 9 9 9 p 9 9 9 9 9 9 ..h R Z 9 9 9 9 9 9 9 9 9 9 9 9 9 9 9 9 9 # # < < < < ",
"< < # # # # # # G G y y i i 9 9 9 9 9 9 9 9 K K 9 9 9 9 9 9 l 9 9 9 9 9 9 R K g K 9 9 9 9 9 9 9 9 9 9 9 9 9 9 9 9 9 # # < < < < ",
"< < # # # # # # G G y y i i 9 9 ..M 9 9 9 9 9 9 9 9 9 9 9 9 9 9 9 9 9 9 9 9 9 9 9 9 9 9 9 9 9 9 9 9 9 p 9 9 9 9 9 9 # # < < < < ",
"< < < < # # G G G G G G i i 9 9 ..a 9 9 9 9 9 9 9 9 9 9 9 9 9 9 9 9 9 7.9 9 9 9 9 9 9 9 9 9 9 9 9 9 9 a 9 9 9 9 9 9 # # # # # # ",
"< < < < # # G G G G G G i i F 9 9 9 9 9 9 9 9 8.9 9.9 9 9 9 9 9 9 9 9 7.9 _ _ 9 p 9 9 9 9 9 9 9 9 9 9 Y _ 9 9 9 9 9 # # # # # # ",
"# # # # # # G G y y G G i i 0.9 9 9 9 9 9 9 9 9 9 7.9 9 9 9 9 9 9 9 9 7.9 9 9 9 a 9 9 9 9 9 9 9 9 9 9 Y 9 9 9 9 9 9 # # ] ] ] ] ",
"# # # # # # G G y y G G i i } a.9 9 9 9 9 9 9 9 8.b.9 9 : 9 9 9 : 9 9 8.9 9 -.9 Y 9 9 9 9 u c.9 9 d.c 9 9 o T 9 9 9 # # ] ] ] ] ",
"] ] ] ] # # # # # # # # # # # # # # # # # # # # # # # # # # # # # # # # # # # # # # # # # # # # # # # # # # # # # # # # < < < < ",
"] ] ] ] # # # # # # # # # # # # # # # # # # # # # # # # # # # # # # # # # # # # # # # # # # # # # # # # # # # # # # # # < < < < ",
"< < < < ] ] # # $ $ $ $ $ $ $ $ $ $ i i $ $ $ $ $ $ $ $ i i $ $ $ $ $ $ $ $ e.e.$ $ $ $ $ $ $ $ f.f.$ $ $ $ $ $ $ $ # # < < < < ",
"< < < < ] ] # # $ $ $ $ $ $ $ $ $ $ i i $ $ $ $ $ $ $ $ i i $ $ $ $ $ $ $ $ e.e.$ $ $ $ $ $ $ $ f.f.$ $ $ $ $ $ $ $ # # < < < < ",
"< < < < < < ] ] # # < < < < < < < < # # < < < < < < < < # # < < < < < < < < # # < < < < < < # # < < < < < < < < # # < < < < < < ",
"< < < < < < ] ] # # < < < < < < < < # # < < < < < < < < # # < < < < < < < < # # < < < < < < # # < < < < < < < < # # < < < < < < ",
"# # # # # # # # # # # # # # # # # # # # # # # # # # # # # # # # # # # # # # # # # # # # # # # # # # # # # # # # # # # # # # # # ",
"# # # # # # # # # # # # # # # # # # # # # # # # # # # # # # # # # # # # # # # # # # # # # # # # # # # # # # # # # # # # # # # # "};
