/* XPM */
static char * player_l_xpm[] = {
"64 64 359 2",
"  	c #4C532B",
". 	c #798366",
"+ 	c #6C7858",
"@ 	c #7B8363",
"# 	c #899071",
"$ 	c #858C69",
"% 	c #7B845C",
"& 	c #929C6A",
"* 	c #A6AD87",
"= 	c #656B54",
"- 	c #6A6C5A",
"; 	c #757D63",
"> 	c #757A63",
", 	c #7B875A",
"' 	c #6C7454",
") 	c #6A6B55",
"! 	c #737B5B",
"~ 	c #707265",
"{ 	c #6D745A",
"] 	c #576243",
"^ 	c #5B643B",
"/ 	c #636B42",
"( 	c #7B8453",
"_ 	c #65733B",
": 	c #546324",
"< 	c #727D44",
"[ 	c #94A263",
"} 	c #55632C",
"| 	c #59652C",
"1 	c #5A6434",
"2 	c #434C16",
"3 	c #434523",
"4 	c #44452A",
"5 	c #737B53",
"6 	c #5A5D3B",
"7 	c #3E4522",
"8 	c #797E4D",
"9 	c #69743C",
"0 	c #454B2A",
"a 	c #42451D",
"b 	c #3B3E1B",
"c 	c #53553B",
"d 	c #5B6342",
"e 	c #555D3A",
"f 	c #72754B",
"g 	c #717544",
"h 	c #444B23",
"i 	c #494D24",
"j 	c #3D441C",
"k 	c #46522A",
"l 	c #556933",
"m 	c #566939",
"n 	c #56633A",
"o 	c #555B42",
"p 	c #4B4D33",
"q 	c #4A5325",
"r 	c #525C2C",
"s 	c #5B6A2C",
"t 	c #66762C",
"u 	c #6B7B35",
"v 	c #66793A",
"w 	c #647334",
"x 	c #5A6A25",
"y 	c #556925",
"z 	c #818E4C",
"A 	c #748244",
"B 	c #434B1D",
"C 	c #6B7443",
"D 	c #5D6A3A",
"E 	c #4A6C1B",
"F 	c #3D4A1C",
"G 	c #51552C",
"H 	c #595D2D",
"I 	c #525533",
"J 	c #4E5A32",
"K 	c #455223",
"L 	c #4D5432",
"M 	c #525C25",
"N 	c #56692C",
"O 	c #4E6124",
"P 	c #435315",
"Q 	c #7D8B52",
"R 	c #74834B",
"S 	c #45521C",
"T 	c #4C5A24",
"U 	c #63722E",
"V 	c #6E813C",
"W 	c #76894C",
"X 	c #8E9B62",
"Y 	c #5C6A33",
"Z 	c #737C4B",
"` 	c #4A462A",
" .	c #3E4329",
"..	c #556333",
"+.	c #3E4A22",
"@.	c #364A16",
"#.	c #4E612B",
"$.	c #4A4D2A",
"%.	c #5E6751",
"&.	c #39460C",
"*.	c #4B5A1D",
"=.	c #828D54",
"-.	c #596626",
";.	c #657342",
">.	c #667747",
",.	c #6D8628",
"'.	c #6B801D",
").	c #5B5D43",
"!.	c #465924",
"~.	c #716F4D",
"{.	c #454C32",
"].	c #6C7B3C",
"^.	c #838C5B",
"/.	c #535C33",
"(.	c #61663B",
"_.	c #595E34",
":.	c #797E53",
"<.	c #4A4D1D",
"[.	c #414415",
"}.	c #86935A",
"|.	c #98A56A",
"1.	c #485617",
"2.	c #4A531D",
"3.	c #929720",
"4.	c #919F1D",
"5.	c #587A20",
"6.	c #768944",
"7.	c #8A9654",
"8.	c #8C9B54",
"9.	c #657934",
"0.	c #7E9249",
"a.	c #93A15C",
"b.	c #616D2D",
"c.	c #4A4936",
"d.	c #A5961D",
"e.	c #BFBD1F",
"f.	c #767F1B",
"g.	c #A9B235",
"h.	c #59651E",
"i.	c #677E20",
"j.	c #879959",
"k.	c #929D5B",
"l.	c #47582B",
"m.	c #4D5A2B",
"n.	c #4A4524",
"o.	c #626C3B",
"p.	c #6C744B",
"q.	c #798444",
"r.	c #626D34",
"s.	c #3E492A",
"t.	c #89964B",
"u.	c #818945",
"v.	c #B78A22",
"w.	c #E6D839",
"x.	c #928A20",
"y.	c #BDB830",
"z.	c #6D7B4A",
"A.	c #3C4A15",
"B.	c #74823D",
"C.	c #515B1D",
"D.	c #7C8B45",
"E.	c #3C4415",
"F.	c #54220C",
"G.	c #BB7C28",
"H.	c #F8DB3C",
"I.	c #E9BB3A",
"J.	c #C78616",
"K.	c #DBB725",
"L.	c #F5E439",
"M.	c #8D8C27",
"N.	c #585632",
"O.	c #727D3D",
"P.	c #5E6A44",
"Q.	c #402110",
"R.	c #A27D2F",
"S.	c #ECCA3A",
"T.	c #878937",
"U.	c #364419",
"V.	c #758251",
"W.	c #626542",
"X.	c #595C25",
"Y.	c #49461C",
"Z.	c #515425",
"`.	c #67897E",
" +	c #718768",
".+	c #96863F",
"++	c #8D8645",
"@+	c #949449",
"#+	c #B6C490",
"$+	c #8CA777",
"%+	c #5E7134",
"&+	c #6E8143",
"*+	c #7E8F82",
"=+	c #AED7E4",
"-+	c #A6D2DC",
";+	c #D4D9CD",
">+	c #DADCD3",
",+	c #D3E3CD",
"'+	c #E5DCDD",
")+	c #F5F4ED",
"!+	c #E5ECE3",
"~+	c #BDC9B6",
"{+	c #809479",
"]+	c #6D7B43",
"^+	c #919E55",
"/+	c #8A955C",
"(+	c #566562",
"_+	c #99B5C4",
":+	c #C8E5ED",
"<+	c #E2E2EC",
"[+	c #A2A6A8",
"}+	c #CBD2D2",
"|+	c #F9EFF5",
"1+	c #FAF3FA",
"2+	c #F7F5FA",
"3+	c #C4D5BB",
"4+	c #92B084",
"5+	c #849353",
"6+	c #799B96",
"7+	c #AAC8C9",
"8+	c #DAE2E6",
"9+	c #7B8498",
"0+	c #283A53",
"a+	c #3C4457",
"b+	c #959998",
"c+	c #ECEBEC",
"d+	c #F5F8F3",
"e+	c #F2FAEC",
"f+	c #6B8B5D",
"g+	c #364314",
"h+	c #446846",
"i+	c #BDDEE5",
"j+	c #9195AB",
"k+	c #283560",
"l+	c #1F326C",
"m+	c #19255B",
"n+	c #33314C",
"o+	c #899596",
"p+	c #DEEFF2",
"q+	c #ECF7F7",
"r+	c #65785B",
"s+	c #4A5636",
"t+	c #616534",
"u+	c #1A3C17",
"v+	c #283C2F",
"w+	c #D3DBDD",
"x+	c #4B516F",
"y+	c #2B337D",
"z+	c #1F2B74",
"A+	c #2A3374",
"B+	c #1F204B",
"C+	c #646672",
"D+	c #ADB8B7",
"E+	c #EFF3F4",
"F+	c #FAF5F4",
"G+	c #7A8C79",
"H+	c #8A8F74",
"I+	c #6A6D3C",
"J+	c #5B635C",
"K+	c #7D7D84",
"L+	c #B4BDC6",
"M+	c #2B3C8C",
"N+	c #181C34",
"O+	c #888888",
"P+	c #CAD2C9",
"Q+	c #6A7534",
"R+	c #78863D",
"S+	c #747688",
"T+	c #C6C5CE",
"U+	c #253D93",
"V+	c #293788",
"W+	c #172862",
"X+	c #233B7D",
"Y+	c #151F4B",
"Z+	c #43496A",
"`+	c #707194",
" @	c #D9DBE4",
".@	c #8EA15A",
"+@	c #4E611B",
"@@	c #909C8C",
"#@	c #D6D5D8",
"$@	c #373E6D",
"%@	c #2D387D",
"&@	c #2A3B93",
"*@	c #192A57",
"=@	c #2A3A74",
"-@	c #303984",
";@	c #626A8A",
">@	c #F5F6F0",
",@	c #2B366C",
"'@	c #4A5077",
")@	c #89A28B",
"!@	c #7A854C",
"~@	c #84934C",
"{@	c #757C72",
"]@	c #E3EDEE",
"^@	c #555F77",
"/@	c #2C3C84",
"(@	c #243785",
"_@	c #2D4372",
":@	c #53699D",
"<@	c #27377B",
"[@	c #284084",
"}@	c #313889",
"|@	c #2D2E60",
"1@	c #50534B",
"2@	c #EAF4E6",
"3@	c #3C486C",
"4@	c #31487B",
"5@	c #9BB5E5",
"6@	c #435886",
"7@	c #2A3796",
"8@	c #56715A",
"9@	c #636B4B",
"0@	c #7E8676",
"a@	c #4A6299",
"b@	c #263E8D",
"c@	c #929D63",
"d@	c #6A6E44",
"e@	c #4E6333",
"f@	c #96A08E",
"g@	c #DFE0D9",
"h@	c #424C57",
"i@	c #202D5B",
"j@	c #2B399B",
"k@	c #7C8B4C",
"l@	c #E1E1E0",
"m@	c #142D3D",
"n@	c #91975C",
"o@	c #5E712D",
"p@	c #8F978D",
"q@	c #E0DFE3",
"r@	c #19334F",
"s@	c #53641E",
"t@	c #173252",
"u@	c #727A37",
"v@	c #61662D",
"w@	c #5C776E",
"x@	c #2A396C",
"y@	c #1B3743",
"z@	c #8C9B5C",
"A@	c #153339",
"B@	c #243D6A",
"C@	c #7E9151",
"D@	c #969766",
"E@	c #5E713A",
"F@	c #6D8137",
"G@	c #1C3758",
"H@	c #233472",
"I@	c #303A7F",
"J@	c #233B76",
"K@	c #4D5439",
"L@	c #203155",
"M@	c #1B2B5B",
"N@	c #696E35",
"O@	c #8B9074",
"P@	c #444532",
"Q@	c #373E16",
"R@	c #3B3E23",
"  . + @ . # $ % & * # @ @ @ . . = = - - ; @ # # > > = ; # , % ' ' - - ) ) - - > ; ; ! - - ~ { $ $ ' + = { ; ! ! @ ; ; ; { = ~ > ",
"  ] ^ ^ / ( _ : < [ < } | 1 1 1 2 3 4 4 ^ ^ 5 5 ^ 6 7 1 8 9 1   0 0 7 a b 4 4 c d ^ e 0 4 0   f g h i j k l 1 m m n ^ n 0 7 o ] ",
"  p q r } s t u v w x y u z A v : r h B C C D D E E F G H | 1 q h h F   r I J k K } | r L   2 M M h k J J N O P : Q R } r r q   ",
"  7 B S T : U V D | O O W X Q R Y 1 2 2 R Z | | E E j ` ` r ^    . .7 I l ..m +.@.#.| Y ..h a $.$.7 4 %.n l O &.*.[ =.-.| r B F ",
"  c   B h K r D ;.>.Y } v R D T 1 1 h h K q l l ,.,.'.'.4 $.L e ).c e ....q k J J } #.!.B / ~.$.i 6 o {.k l } : w W ].: < ^.D /.",
"  ^ /.h 0 $.c ^ _ W w : w A -.S 1 (.  $.h F ^ ^ ,.,.'.'.a B i _.(.1 D : } B F   m m } F F :.f <.[.1 ..j @.N : } Y A ].-.}.|.;.e ",
"  ^ r j 3 4 4 h T N w ].s 1.2.<.B 3 3 7 h h m /.3.3.4.4.B 2 5.5.2 r : 6.7._ ..n ..K B r 1 i q r U 8.z s Y ].9.l ..| } : s Y C Z ",
"  n r a 4 ` 4 4 !.l >.< | 2.i $.4 3 3 h +.h n ..3.3.4.4.3 B 5.5.a T : 0.a.v 1 l ..S 2 l ^ 4 h r b.a.8.: 1 R v ..} } : s -.-.C Z ",
"  n l l I i h a +.k /.^ /.0 0 4 c.  1 ^ l 1 j h d.d.e.e.f.f.g.g.h.h.i.i.-.9 Z D 1 =.j.D ^ 7  .e s A < 1 1 i i F F : w a.k.k.r j ",
"  e ..m J l.T q   i L 6 L 0 $.$.i i l l T m.` n.d.d.e.e.f.f.g.g.h.h.i.i.r o.p._.r A q.N l m.q Y r.].9 r r 0 0 s.k N U t.u.u.G n.",
"  7 !.l ..l ....  j 4   0 h /.^ h 7 n ..F F $.$.v.v.w.w.d.d.w.w.x.x.y.y.f.f.h a 2 M -.: l z.8 Z 9 | } A.B 7 $.n n } s B.C.2.n.4 ",
"  o.r.} :   I ^ I 3 0 0 $.      q   d n     4 ` v.v.w.w.d.d.w.w.x.x.y.y.f.f.^ $.B r.w N #.Y o.1 1         h k m.m.l D 9 q a n.` ",
"  X D.-.T E.  ^   3 3 3   ^   B 1 ..^ l l ..F.F.G.G.H.H.I.I.J.J.K.K.L.L.M.M.:.N.<.9 ].N } !.B a h h h n n ..J A.h l /./.i 3 3 n.",
"  ( B.x b.Z /         i 0 i   q ;.9 q.6.: | F.F.G.G.H.H.I.I.J.J.K.K.L.L.M.M.I G i 9 O.Y l K i G L /.J +.k m...T m.>.P.L $.0 L I ",
"  8 u y A & z.F   ^ m.h h j I ^ 8 O.8.8.y } Q.Q.R.R.H.H.I.I.v.v.S.S.w.w.T.T.n.` q 9 < D ..K q _.6 ^ J U.F ..l Y Y V./ U.0 $.6 W.",
"  / Y N _ ( 9 m.} ....J   +.q   _.X.q.6.: N Q.Q.R.R.H.H.I.I.v.v.S.S.w.w.T.T.` i Y.Z.H G   h i e ..} Y R >.l l } Y Y o.l e I     ",
"  n l l _ R w } N l l ..  a h i i <.< A } l `.`. + +T.T..+.+++++++++@+@+#+#+$+$+a <.<.K $.3 +./.} : s [ j.} | } N } w R o.1 i j ",
"  $.!.l.m.Y %+v %+#.D >.D e i h 3 n.W./ k   `.`. + +T.T..+.+++++++++@+@+#+#+$+$+a <.i i $.I n ;.%+x x w 9.Y o.=.A N : C.| 1 ..e ",
"  7 h q m.| _ &+w O _ R 9 ^   3 n.3 ^ ^ *+*+=+=+-+-+;+;+>+>+,+,+>+>+'+'+)+)+!+!+~+~+{+{+4 6 ..C ]+} | } N } v ^+D.| r 2...1 ....",
"  ).  h h K r N %+v w 1 r   $.` 3 j     *+*+=+=+-+-+;+;+>+>+,+,+>+>+'+'+)+)+!+!+~+~+{+{+3 ^ m.1 ..K r C _ N %+B.r.K q h G } Q /+",
"  d G h h h m.} _ R 9 ..r q $.$.4 h B i (+(+_+_+:+:+<+<+[+[+}+}+|+|+1+1+|+|+1+1+2+2+!+!+3+3+4+4+/.h   ( >.} %+q.9 i h B | s 5+X ",
"  0   e I 3 i K m.l m.K h h h i e _.i i (+(+_+_+:+:+<+<+[+[+}+}+|+|+1+1+|+|+1+1+2+2+!+!+3+3+4+4+r j +.m.!.Y } <.h 7   ^ < ]+r.Y ",
"  7 q 1 I 7 4 i m.^ I   h +.a B 1 1 6+6+6+6+7+7+8+8+9+9+0+0+a+a+b+b+}+}+c+c+2+2+2+2+d+d+e+e+,+,+f+f++.k K ..r B h j   ^ ]+R D ..",
"  n l l I 0 4 3 h   h 7 h j   ..1 1 6+6+6+6+7+7+8+8+9+9+0+0+a+a+b+b+}+}+c+c+2+2+2+2+d+d+e+e+,+,+f+f+n F K ../ < r.g+q l l l k s.",
"  ^ } T   I $.3 h $.4 h i k h+h+ + +7+7+i+i+:+:+j+j+k+k+l+l+m+m+n+n+o+o+p+p+q+q+d+d+)+)+d+d+;+;+r+r+J k   r 1 r.| B !.T ..l s+s+",
"  1 T g+!.^   a Y.i i   I ..h+h+ + +7+7+i+i+:+:+j+j+k+k+l+l+m+m+n+n+o+o+p+p+q+q+d+d+)+)+d+d+;+;+r+r++.^ /.q i S !.D T A.!.| n ] ",
"  Z r.*.} ;...q r t+G h u+u+v+v+o+o+p+p+q+q+w+w+x+x+y+y+z+z+A+A+B+B+C+C+D+D+E+E+d+d+)+)+F+F+c+c+G+G+k ....B i /.J /.m.*.9.V Y m ",
"H+& Q } o.V.;.Y I+( 1 F u+u+v+v+o+o+p+p+q+q+w+w+x+x+y+y+z+z+A+A+B+B+C+C+D+D+E+E+d+d+)+)+F+F+c+c+G+G+D ../.a i ^ ..B T -.5+[ _ l ",
"  , O.N Y C ..q Z._.r l.J ..J+J+K+K+[+[+c+c+L+L+0+0+M+M+z+z+z+z+l+l+N+N+O+O+'+'+F+F+F+F+F+F+1+1+P+P+../.  3 0 | Y s Q+q.O.].D } ",
"  Z u : -.Y l.F [.a   ^ ....J+J+K+K+[+[+c+c+L+L+0+0+M+M+z+z+z+z+l+l+N+N+O+O+'+'+F+F+F+F+F+F+1+1+P+P+} K h 3 $.} w ].z k.Q+M 1 } ",
"  < R+D.].l ..I p 7   D r+r+O+O+O+O+S+S+T+T+S+S+A+A+U+U+V+V+W+W+X+X+Y+Y+Z+Z+`+`+ @ @F+F+F+F+1+1+P+P+R r m.3 $.} %+].v 9.s -.| l ",
"  A R+.@A } ..^ I j r Y r+r+O+O+O+O+S+S+T+T+S+S+A+A+U+U+V+V+W+W+X+X+Y+Y+Z+Z+`+`+ @ @F+F+F+F+1+1+P+P+j.1 ..a $.Y w W 9.: : | l l ",
"  D U R+9.Y m.F r r } +@@@@@)+)+ @ @#@#@L+L+$@$@%@%@&@&@V+V+*@*@=@=@m+m+y+y+-@-@;@;@w+w+1+1+F+F+w+w+ + +!.1 ^ z.>.N Y } >.Z Y ..",
"  l w A _ l q A.T | -.y @@@@)+)+ @ @#@#@L+L+$@$@%@%@&@&@V+V+*@*@=@=@m+m+y+y+-@-@;@;@w+w+1+1+F+F+w+w+ + +B Y (.8 C } l | >.Z D l ",
"  ^ } T r l D >.A 5+u x @@@@)+)+d+d+>@>@S+S+,@,@-@-@U+U+V+V+*@*@=@=@m+m+y+y+M+M+=@=@'@'@j+j+#@#@>@>@)@)@!@1 r G q B h B ../   h ",
"  d J k m.l _ A ~@a.].} @@@@)+)+d+d+>@>@S+S+,@,@-@-@U+U+V+V+*@*@=@=@m+m+y+y+M+M+=@=@'@'@j+j+#@#@>@>@)@)@}.1 r i h a h +./.^ 4 3 ",
"  4 0 0 0 K T : N s | l {@{@>+>+e+e+]@]@^@^@A+A+/@/@&@&@(@(@_@_@:@:@l+l+<@<@[@[@}@}@y+y+|@|@K+K+]@]@)@)@< 2 2 a   6 I i h h 4 n.",
"  7 3 7 3 $.r D } Y | } {@{@>+>+e+e+]@]@^@^@A+A+/@/@&@&@(@(@_@_@:@:@l+l+<@<@[@[@}@}@y+y+|@|@K+K+]@]@)@)@p.i j 7 0 / r K 2 g+7 b ",
"  ).I 3 0 n.4 K T | _ R 1@1@P+P+2@2@b+b+3@3@<@<@&@&@[@[@(@(@4@4@5@5@6@6@(@(@[@[@&@&@7@7@A+A+;@;@L+L+8@8@  b $.] J E.!.| < 8 9@^ ",
"  6 c 4 4 3 4 K T Y o.Z 1@1@P+P+2@2@b+b+3@3@<@<@&@&@[@[@(@(@4@4@5@5@6@6@(@(@[@[@&@&@7@7@A+A+;@;@L+L+8@8@i h   n J F 2.t+C 8 / 6 ",
"  4   ^ I 7 4 q 1 Z o.q 0@0@;+;+D+D+a+a+m+m+M+M+&@&@[@[@[@[@(@(@a@a@4@4@X+X+U+U+b@b@&@&@7@7@,@,@C+C+B   K m /.F B 1 _ c@T E.n ^ ",
"  $.      3 0 h H d@_.G 0@0@;+;+D+D+a+a+m+m+M+M+&@&@[@[@[@[@(@(@a@a@4@4@X+X+U+U+b@b@&@&@7@7@,@,@C+C+J K h ..e@!.T } t+9 <.B     ",
"  6 M g+h $.0 3 Z.1 G   f@f@g@g@h@h@i@i@/@/@M+M+&@&@j@j@[@[@[@[@X+X+(@(@[@[@U+U+b@b@M+M+j@j@/@/@0+0+^ F +.l ..| | : | 2.2 2 h 7 ",
"  V.9 M q e   h q r $.4 f@f@g@g@h@h@i@i@/@/@M+M+&@&@j@j@[@[@[@[@X+X+(@(@[@[@U+U+b@b@M+M+j@j@/@/@0+0+    m.m Y k@v s s < H G   0 ",
"  & k@-.| D   j h   h j @@@@l@l@Z+Z+%@%@&@&@&@&@[@[@j@j@j@j@[@[@b@b@[@[@U+U+U+U+b@b@b@b@j@j@}@}@=@=@m@m@^ Y v .@k@-.Q+n@o.1   h ",
"  C t Q+s K   e   h h h @@@@l@l@Z+Z+%@%@&@&@&@&@[@[@j@j@j@j@[@[@b@b@[@[@U+U+U+U+b@b@b@b@j@j@}@}@=@=@m@m@  | Y o@v w w X.K B L   ",
"  } w A Y E.k ^ L 3 4 h p@p@q@q@Z+Z+}@}@j@j@&@&@j@j@&@&@j@j@[@[@&@&@U+U+j@j@j@j@M+M+M+M+j@j@&@&@M+M+r@r@B l N s@s A 9 B B j n d ",
"  ]+w Y Y r ..^ L 3 h B p@p@q@q@Z+Z+}@}@j@j@&@&@j@j@&@&@j@j@[@[@&@&@U+U+j@j@j@j@M+M+M+M+j@j@&@&@M+M+r@r@..]+o.1.*.o.1 h i j 6 d ",
"  R Q+y -.} | }   a a F G+G+T+T+3@3@/@/@&@&@&@&@j@j@j@j@&@&@&@&@&@&@&@&@j@j@j@j@M+M+M+M+j@j@j@j@j@j@t@t@l ( C P *.^ /.3 h j e d ",
"  M x u@q.~@~@5+]+r Z.i G+G+T+T+3@3@/@/@&@&@&@&@j@j@j@j@&@&@&@&@&@&@&@&@j@j@j@j@M+M+M+M+j@j@j@j@j@j@t@t@K l D | r i 0 $./.1   h ",
"  <.: u@D.a.k.8.A v@M i 0 K w@w@x@x@}@}@&@&@M+M+U+U+U+U+&@&@b@b@&@&@M+M+U+U+j@j@[@[@/@/@}@}@j@j@&@&@t@t@h } l 1 /.3 3   _.l h j ",
"  3 2 2 b.O.Q+s@9.A t+` G ^ w@w@x@x@}@}@&@&@M+M+U+U+U+U+&@&@b@b@&@&@M+M+U+U+j@j@[@[@/@/@}@}@j@j@&@&@t@t@C K B a 3 0 3 h 1 1 Z :.",
"  3 B q 1 < 9 -.w < 1 $.c n y@y@/@/@j@j@&@&@[@[@[@[@[@[@U+U+U+U+[@[@[@[@U+U+j@j@M+M+M+M+&@&@&@&@/@/@y@y@C K h a 3 3 7 B } | C 5 ",
"  0 h   q l T S S q Y.a B F y@y@/@/@j@j@&@&@[@[@[@[@[@[@U+U+U+U+[@[@[@[@U+U+j@j@M+M+M+M+&@&@&@&@/@/@y@y@B 1 /.a h $.G 1 Q z@Q Z ",
"    q h   ^ m.S K i Y.Y.B F A@A@B@B@U+U+j@j@&@&@M+M+&@&@&@&@&@&@j@j@j@j@j@j@U+U+M+M+j@j@j@j@[@[@B@B@D 2 K _./.a i i   Y C@z@W z.",
"  ......  F } Z ^ n.f D@g } A@A@B@B@U+U+j@j@&@&@M+M+&@&@&@&@&@&@j@j@j@j@j@j@U+U+M+M+j@j@j@j@[@[@B@B@j.1 r a i 1 r A.K N y y N | ",
"  l }   J   } | /.!.w &+E@N %+w F@B.G@G@H@H@I@I@-@-@-@-@-@-@-@-@}@}@}@}@M+M+M+M+/@/@M+M+J@J@0+0+A@A@< r.o.a ` K@L m.m.D n ] c L ",
"  } !.g+k P.q B   D Y } #.l _ A ^+a.G@G@H@H@I@I@-@-@-@-@-@-@-@-@}@}@}@}@M+M+M+M+/@/@M+M+J@J@0+0+A@A@Y R Z j 3 7 B } U k@Y ..0 U.",
"  R 9.T L p 0 4   /.T T } Y D w t.8.1.T j i L@L@L@L@L@L@L@L@i@i@i@i@i@i@M@M@M@M@r@r@r@r@T < !@N@Y T r / ^ ` 4 E.2.!@O.: !.K 0 j ",
"H+c@D.N m.j 7 0   l T S T l } s t.c@2 j     L@L@L@L@L@L@L@L@i@i@i@i@i@i@M@M@M@M@r@r@r@r@N /+/+w : P *..._.I ` j r c@=.T h h 0 4 ",
"O@< 9.y :   h h q 1 M !.m.!.r s t 9 4 3 K@L J ..D D k m ;.D ....K m.J J e k K l l !.q m./.o.b.Q+w T T r   3 n.4 0 f C r 3  .P@P@",
"  C x s@x : B E.h | | } S 2 Y O.C.C.a 7 c /./.r !.m.K l ;._ } S A.!.J ..d {.7 0   h h L L i P O.v : T r r Q@b 4 $.1 1 r 7 7 4 4 ",
"  K@m.T 9.}.t+H $.h r /.m.n /.r 9 9 2.q B K | N : T _ | S T S T *.} N *.S r S M s w _ Y } !.G r m.m...i   6 I b B -.s ].| /.  i ",
"  P@K@  >.& / e p 7 L e ] ] K@  :.( m.e 7 7 ..} l I % (.F h K e m.l l K A.r M s -.].< Y } m.6   0 ] d 7  .).c R@3 l o.R D ^ L $."};
